<?xml version="1.0" standalone="no"?>
<!DOCTYPE svg PUBLIC "-//W3C//DTD SVG 1.1//EN" "http://www.w3.org/Graphics/SVG/1.1/DTD/svg11.dtd" >
<svg>
<metadata>
Created by FontForge 20120731 at Sat Jun 29 23:52:46 2019
 By www
Copyright (c) 2015 by Kostas Bartsokas. All rights reserved.
</metadata>
<defs>
<font id="AvertaStd-ExtraBold" horiz-adv-x="691" >
  <font-face 
    font-family="AvertaStd-ExtraBold"
    font-weight="400"
    font-stretch="normal"
    units-per-em="1000"
    panose-1="0 0 9 0 0 0 0 0 0 0"
    ascent="783"
    descent="-217"
    x-height="489"
    cap-height="710"
    bbox="-269 -258 1438 994"
    underline-thickness="60"
    underline-position="-35"
    unicode-range="U+0020-2715"
  />
<missing-glyph horiz-adv-x="437" 
 />
    <glyph glyph-name=".notdef" horiz-adv-x="437" 
 />
    <glyph glyph-name=".null" horiz-adv-x="0" 
 />
    <glyph glyph-name="nonmarkingreturn" horiz-adv-x="333" 
 />
    <glyph glyph-name="space" unicode=" " horiz-adv-x="244" 
 />
    <glyph glyph-name="exclam" unicode="!" horiz-adv-x="290" 
d="M89 245l-27 491h168l-27 -491h-114zM144 -10q-39 0 -66 27t-27 65q0 37 27 64t66 27q37 0 64.5 -27t27.5 -64q0 -38 -27 -65t-65 -27z" />
    <glyph glyph-name="quotedbl" unicode="&#x22;" horiz-adv-x="443" 
d="M26 440l30 270h156l-68 -270h-118zM236 440l30 270h157l-69 -270h-118z" />
    <glyph glyph-name="numbersign" unicode="#" horiz-adv-x="638" 
d="M96 -48l29 179h-100v115h117l20 128h-111v113h129l26 169h105l-27 -169h124l27 169h104l-26 -169h103l-1 -113h-120l-19 -128h113l-1 -115h-130l-28 -179h-104l27 179h-124l-28 -179h-105zM247 246h124l20 128h-124z" />
    <glyph glyph-name="dollar" unicode="$" horiz-adv-x="562" 
d="M534 202q0 -82 -49 -135.5t-134 -67.5v-106h-123v106q-112 19 -198 103l95 117q78 -74 171 -74q28 0 44.5 12t16.5 32q0 22 -19.5 37t-75.5 32q-40 12 -67.5 22t-58 27t-48.5 37.5t-30 50.5t-12 68q0 79 48.5 133.5t133.5 67.5v115h123v-121q98 -22 171 -82l-92 -116
q-78 54 -147 54q-62 0 -62 -40q0 -35 87 -61q60 -18 95.5 -32.5t68.5 -38t47.5 -58t14.5 -82.5z" />
    <glyph glyph-name="percent" unicode="%" horiz-adv-x="1016" 
d="M408 -27l-114 50l317 704l114 -50zM231 318q-85 0 -143.5 56.5t-58.5 145.5q0 84 56.5 141.5t145.5 57.5q87 0 145.5 -55.5t58.5 -143.5q0 -85 -57 -143.5t-147 -58.5zM233 426q37 0 60 26.5t23 65.5q0 41 -24 66.5t-59 25.5q-36 0 -59.5 -26.5t-23.5 -65.5
q0 -41 24 -66.5t59 -25.5zM785 -10q-86 0 -144.5 56.5t-58.5 144.5q0 84 56.5 142t146.5 58q85 0 144 -56t59 -144q0 -84 -56.5 -142.5t-146.5 -58.5zM786 98q36 0 59.5 26.5t23.5 65.5q0 41 -24 66.5t-59 25.5q-37 0 -60.5 -26.5t-23.5 -65.5q0 -40 24.5 -66t59.5 -26z" />
    <glyph glyph-name="ampersand" unicode="&#x26;" horiz-adv-x="659" 
d="M472 0l-32 42h-1q-66 -52 -173 -52q-101 0 -169 62t-68 160q0 129 126 208l-73 97q9 90 72 146.5t155 56.5q161 0 234 -153l-127 -47q-35 66 -92 67q-34 0 -52 -18t-23 -41l200 -266q16 41 16 84l145 4q0 -124 -62 -218v-3l97 -129h-173zM184 222q0 -41 27.5 -66
t70.5 -25q39 0 75 18v3l-120 160q-53 -32 -53 -90z" />
    <glyph glyph-name="quotesingle" unicode="'" horiz-adv-x="232" 
d="M26 440l30 270h156l-68 -270h-118z" />
    <glyph glyph-name="parenleft" unicode="(" horiz-adv-x="309" 
d="M167 -162q-125 187 -125 456q0 273 126 457l113 -51q-99 -181 -99 -406q0 -221 99 -405z" />
    <glyph glyph-name="parenright" unicode=")" horiz-adv-x="309" 
d="M155 -162l-114 51q99 184 99 405q0 225 -99 406l113 51q126 -184 126 -457q0 -269 -125 -456z" />
    <glyph glyph-name="asterisk" unicode="*" horiz-adv-x="387" 
d="M148 378l4 95l-78 -50l-47 79l83 41l-83 44l47 80l78 -51l-4 94h91l-5 -94l79 50l47 -79l-84 -43l83 -42l-46 -80l-77 51l3 -95h-91z" />
    <glyph glyph-name="plus" unicode="+" horiz-adv-x="566" 
d="M215 40v170h-171v134h171v172h135v-172h171v-134h-171v-170h-135z" />
    <glyph glyph-name="comma" unicode="," horiz-adv-x="243" 
d="M16 -134l30 270h157l-75 -270h-112z" />
    <glyph glyph-name="hyphen" unicode="-" horiz-adv-x="380" 
d="M37 237v144h306v-144h-306z" />
    <glyph glyph-name="period" unicode="." horiz-adv-x="269" 
d="M135 -10q-39 0 -66 27t-27 65q0 37 27 64t66 27q37 0 64.5 -27t27.5 -64q0 -38 -27 -65t-65 -27z" />
    <glyph glyph-name="slash" unicode="/" horiz-adv-x="439" 
d="M88 -111l-114 52l381 854l113 -52z" />
    <glyph glyph-name="zero" unicode="0" horiz-adv-x="618" 
d="M309 -10q-124 0 -198.5 95t-74.5 259q0 160 74 256t199 96q124 0 198.5 -94.5t74.5 -257.5q0 -162 -73.5 -258t-199.5 -96zM309 141q50 0 78.5 51.5t28.5 151.5q0 93 -27.5 147t-79.5 54q-49 0 -77.5 -51.5t-28.5 -149.5q0 -93 27.5 -148t78.5 -55z" />
    <glyph glyph-name="one" unicode="1" horiz-adv-x="415" 
d="M185 0v492l-105 -78l-77 121l215 152h130v-687h-163z" />
    <glyph glyph-name="two" unicode="2" horiz-adv-x="519" 
d="M261 146h225v-146h-456l-2 105l203 219q44 46 64.5 80t20.5 69q0 32 -20.5 53t-51.5 21q-62 0 -106 -64l-115 83q75 130 234 130q92 0 157 -56t65 -149q0 -62 -23 -113t-88 -119l-107 -111v-2z" />
    <glyph glyph-name="three" unicode="3" horiz-adv-x="527" 
d="M389 354q106 -51 106 -166q0 -90 -66.5 -144t-170.5 -54q-91 0 -158.5 44t-93.5 114l141 58q25 -71 100 -71q34 0 57.5 20t23.5 55q0 33 -25 55t-70 22h-45v129h57q35 0 53 18.5t18 47.5q0 30 -20.5 49.5t-50.5 19.5q-55 0 -83 -52l-129 68q23 57 81.5 93t134.5 36
q97 0 161 -49.5t64 -136.5q0 -98 -85 -154v-2z" />
    <glyph glyph-name="four" unicode="4" horiz-adv-x="560" 
d="M290 0v108h-277v99l307 480h128v-443h89v-136h-89v-108h-158zM185 235h118v196z" />
    <glyph glyph-name="five" unicode="5" horiz-adv-x="532" 
d="M290 446q87 0 148 -61t61 -160q0 -103 -71 -169t-178 -66q-152 0 -242 106l115 94q44 -53 112 -53q44 0 72 26t28 65q0 43 -29.5 66t-67.5 23q-51 0 -94 -33l-85 32l22 371h381v-146h-243l-6 -107q48 12 77 12z" />
    <glyph glyph-name="six" unicode="6" horiz-adv-x="568" 
d="M329 442q87 0 147 -59t60 -162t-71 -166.5t-181 -63.5q-109 0 -178.5 77.5t-69.5 202.5q0 161 99.5 284.5t269.5 155.5l44 -127q-178 -50 -231 -164l3 -2q51 24 108 24zM289 133q40 0 66 27t26 66q0 40 -26 65t-69 25q-56 0 -98 -50v-10q0 -56 28 -89.5t73 -33.5z" />
    <glyph glyph-name="seven" unicode="7" horiz-adv-x="469" 
d="M14 687h428v-104l-222 -599l-161 28l206 529h-251v146z" />
    <glyph glyph-name="eight" unicode="8" horiz-adv-x="557" 
d="M414 372q53 -22 85.5 -68.5t32.5 -113.5q0 -91 -72.5 -145t-181.5 -54t-180.5 54.5t-71.5 144.5q0 67 32 113t84 68v2q-32 15 -55.5 54t-23.5 87q0 87 60 134.5t155 47.5q96 0 156.5 -48t60.5 -134q0 -47 -24 -86.5t-57 -54.5v-1zM278 565q-29 0 -48.5 -19t-19.5 -46
q0 -28 19.5 -46.5t48.5 -18.5q30 0 49 18t19 47q0 27 -19.5 46t-48.5 19zM278 126q38 0 63.5 25.5t25.5 60.5q0 37 -25 61t-64 24q-38 0 -63.5 -24t-25.5 -61q0 -36 26 -61t63 -25z" />
    <glyph glyph-name="nine" unicode="9" horiz-adv-x="567" 
d="M277 696q114 0 183.5 -77.5t69.5 -203.5q0 -162 -100.5 -285.5t-271.5 -155.5l-45 127q183 52 235 168q-52 -27 -114 -27q-86 0 -145.5 59t-59.5 162t71 168t177 65zM184 459q0 -39 24.5 -62t64.5 -23q59 0 104 50v4q0 56 -28 90.5t-70 34.5q-41 0 -68 -26.5t-27 -67.5z
" />
    <glyph glyph-name="colon" unicode=":" horiz-adv-x="271" 
d="M134 315q-39 0 -66 27t-27 65q0 37 27 64t66 27q37 0 64.5 -27t27.5 -64q0 -38 -27 -65t-65 -27zM134 -10q-39 0 -66 27t-27 65q0 37 27 64t66 27q37 0 64.5 -27t27.5 -64q0 -38 -27 -65t-65 -27z" />
    <glyph glyph-name="semicolon" unicode=";" horiz-adv-x="251" 
d="M120 316q-39 0 -66 27t-27 65q0 37 27 64t66 27q37 0 64.5 -27t27.5 -64q0 -38 -27 -65t-65 -27zM16 -134l30 270h157l-75 -270h-112z" />
    <glyph glyph-name="less" unicode="&#x3c;" horiz-adv-x="570" 
d="M530 18l-472 198v110l472 202v-147l-276 -109l276 -110v-144z" />
    <glyph glyph-name="equal" unicode="=" horiz-adv-x="581" 
d="M57 325v134h478v-134h-478zM57 95v134h478v-134h-478z" />
    <glyph glyph-name="greater" unicode="&#x3e;" horiz-adv-x="570" 
d="M53 18v144l276 110l-276 109v147l472 -202v-110z" />
    <glyph glyph-name="question" unicode="?" horiz-adv-x="462" 
d="M125 243l-1 48q0 9 1.5 18.5t2.5 16.5t6 16.5t7 14.5t9.5 14.5t9.5 13t11.5 13.5t11 12t12.5 13l12 12q20 21 30 33t20 32t10 38q0 29 -17 45.5t-47 16.5q-51 0 -90 -47l-110 101q35 42 92 67t120 25q93 0 156.5 -50.5t63.5 -148.5q0 -87 -89 -170q-6 -5 -22 -19.5
t-22 -20.5t-16 -17t-14 -20t-5 -18l-4 -39h-138zM195 -10q-39 0 -66 27t-27 65q0 37 27 64t66 27q37 0 64.5 -27t27.5 -64q0 -38 -27 -65t-65 -27z" />
    <glyph glyph-name="at" unicode="@" horiz-adv-x="883" 
d="M666 467l-28 -267q-1 -9 -1 -22q0 -40 30 -40q40 0 64 52.5t24 100.5q0 118 -75 198.5t-204 80.5q-72 0 -131.5 -21t-97.5 -55t-64.5 -78t-38 -88t-11.5 -87q0 -126 82 -212.5t196 -86.5q101 0 201 56l45 -72q-113 -77 -246 -77q-162 0 -269 111t-107 281q0 53 14 108.5
t48 112.5t83 101t126 72t170 28q172 0 274 -105.5t102 -265.5q0 -31 -5.5 -62.5t-21.5 -66.5t-41 -62t-67.5 -44.5t-97.5 -17.5q-56 0 -92 23q-22 16 -30 43h-3q-19 -25 -50.5 -40.5t-62.5 -15.5q-74 0 -118 52t-44 137q0 34 10 72.5t30 77t57.5 63.5t85.5 25q68 0 106 -54
h1l6 45h151zM426 179q32 0 56.5 27t24.5 68q0 32 -17 52t-42 20q-31 0 -56 -27.5t-25 -68.5q0 -32 17 -51.5t42 -19.5z" />
    <glyph glyph-name="A" unicode="A" 
d="M512 0l-42 127h-249l-41 -127h-175l260 710h160l262 -710h-175zM267 269h157l-78 239h-2z" />
    <glyph glyph-name="B" unicode="B" horiz-adv-x="629" 
d="M461 378q140 -38 140 -180q0 -89 -58.5 -143.5t-168.5 -54.5h-312v710h268q117 0 175.5 -45t58.5 -128q0 -114 -103 -157v-2zM226 563v-136h79q39 0 64.5 18t25.5 50q0 68 -96 68h-73zM322 146q48 0 76.5 19.5t28.5 55.5q0 34 -26.5 54.5t-78.5 20.5h-96v-150h96z" />
    <glyph glyph-name="C" unicode="C" horiz-adv-x="708" 
d="M402 -9q-155 0 -260.5 96.5t-105.5 265.5q0 158 98 262.5t268 104.5q77 0 153.5 -34t132.5 -103l-123 -104q-29 35 -71.5 58.5t-91.5 23.5q-81 0 -136 -56.5t-55 -151.5q0 -86 53 -144t138 -58q47 0 90.5 22.5t72.5 58.5l123 -105q-49 -61 -122.5 -98.5t-163.5 -37.5z
" />
    <glyph glyph-name="D" unicode="D" horiz-adv-x="712" 
d="M62 0v710h246q167 0 267.5 -98.5t100.5 -257.5t-97.5 -256.5t-267.5 -97.5h-249zM227 149h73q90 0 146 58.5t56 146.5q0 89 -54 148t-136 59h-85v-412z" />
    <glyph glyph-name="E" unicode="E" horiz-adv-x="581" 
d="M62 0v710h463v-149h-299v-136h236v-147h-236v-129h320v-149h-484z" />
    <glyph glyph-name="F" unicode="F" horiz-adv-x="570" 
d="M62 0v710h480v-149h-315v-160h260v-148h-260v-253h-165z" />
    <glyph glyph-name="G" unicode="G" horiz-adv-x="731" 
d="M402 -8q-159 0 -262.5 97t-103.5 265q0 159 97 262.5t263 103.5q79 0 156.5 -33t130.5 -94l-119 -100q-72 70 -169 70q-78 0 -131.5 -56.5t-53.5 -152.5q0 -89 52 -149t140 -60q63 0 121 31v81h-136v141h297v-319q-49 -39 -125 -63t-157 -24z" />
    <glyph glyph-name="H" unicode="H" horiz-adv-x="711" 
d="M62 0v710h168v-294h250v294h169v-710h-169v267h-250v-267h-168z" />
    <glyph glyph-name="I" unicode="I" horiz-adv-x="302" 
d="M66 0v710h169v-710h-169z" />
    <glyph glyph-name="J" unicode="J" horiz-adv-x="493" 
d="M209 -10q-57 0 -110.5 24t-88.5 70l96 118q40 -53 91 -53q72 0 72 104v457h168v-453q0 -267 -228 -267z" />
    <glyph glyph-name="K" unicode="K" horiz-adv-x="658" 
d="M282 268h-1l-52 -63v-205h-167v710h167v-272h2l205 272h211l-255 -307l265 -403h-206z" />
    <glyph glyph-name="L" unicode="L" horiz-adv-x="549" 
d="M62 0v710h168v-561h298v-149h-466z" />
    <glyph glyph-name="M" unicode="M" horiz-adv-x="855" 
d="M625 710h168v-710h-166v392h-2l-144 -262h-107l-144 261h-2v-391h-166v710h168l197 -376h2z" />
    <glyph glyph-name="N" unicode="N" horiz-adv-x="734" 
d="M505 710h167v-710h-172l-270 426h-1v-426h-167v710h167l276 -437v437z" />
    <glyph glyph-name="O" unicode="O" horiz-adv-x="802" 
d="M402 -10q-162 0 -264 102.5t-102 262.5q0 161 102 263t264 102q160 0 262 -101t102 -264q0 -162 -102 -263.5t-262 -101.5zM402 146q82 0 136 60t54 149q0 90 -54 149.5t-136 59.5q-84 0 -138 -60t-54 -149q0 -88 54 -148.5t138 -60.5z" />
    <glyph glyph-name="P" unicode="P" horiz-adv-x="608" 
d="M62 0v710h270q126 0 189.5 -67t63.5 -178q0 -116 -71.5 -176t-194.5 -60h-92v-229h-165zM227 376h70q55 0 85 24.5t30 68.5q0 42 -29 68t-84 26h-72v-187z" />
    <glyph glyph-name="Q" unicode="Q" horiz-adv-x="814" 
d="M787 86l-86 -111l-85 77q-90 -62 -214 -62q-162 0 -264 102.5t-102 262.5q0 161 102 263t264 102q160 0 262 -101t102 -264q0 -115 -54 -203zM402 146q48 0 88 21l-55 51l85 104l58 -51q14 40 14 84q0 88 -52.5 148.5t-137.5 60.5q-82 0 -136.5 -59.5t-54.5 -149.5
t54.5 -149.5t136.5 -59.5z" />
    <glyph glyph-name="R" unicode="R" horiz-adv-x="644" 
d="M627 0h-196l-146 229h-58v-229h-165v710h277q126 0 190 -67t64 -178q0 -158 -132 -213v-2zM227 563v-188h77q53 0 84 25t31 69q0 41 -29 67.5t-83 26.5h-80z" />
    <glyph glyph-name="S" unicode="S" horiz-adv-x="565" 
d="M279 -10q-149 0 -262 114l99 122q78 -85 167 -85q80 0 80 58q0 29 -22 45.5t-84 37.5q-48 16 -80.5 32t-66.5 42.5t-51 64.5t-17 88q0 88 67.5 148.5t164.5 62.5q135 1 247 -93l-95 -124q-85 68 -146 68q-30 0 -47.5 -15t-17.5 -40q-1 -23 20.5 -39t82.5 -39
q32 -12 41 -15.5t36.5 -15t36 -17t29 -18t27.5 -21.5t20 -24.5t17.5 -30.5t8.5 -35t4 -43q0 -48 -16 -87.5t-42 -65t-60.5 -43t-69.5 -25t-71 -7.5z" />
    <glyph glyph-name="T" unicode="T" horiz-adv-x="582" 
d="M208 0v561h-188v149h542v-149h-188v-561h-166z" />
    <glyph glyph-name="U" unicode="U" horiz-adv-x="696" 
d="M347 -10q-134 0 -213.5 80.5t-79.5 225.5v414h169v-403q0 -69 32.5 -114.5t91.5 -45.5q56 0 91.5 43t35.5 117v403h168v-414q0 -141 -77.5 -223.5t-217.5 -82.5z" />
    <glyph glyph-name="V" unicode="V" horiz-adv-x="684" 
d="M497 710h180l-260 -710h-147l-262 710h181l153 -473h1z" />
    <glyph glyph-name="W" unicode="W" horiz-adv-x="1021" 
d="M829 710h178l-222 -710h-153l-119 467h-1l-124 -467h-153l-222 710h178l120 -436h2l110 436h176l108 -436h2z" />
    <glyph glyph-name="X" unicode="X" horiz-adv-x="702" 
d="M494 0l-141 229h-3l-142 -229h-195l227 357l-219 353h192l137 -223h3l137 223h190l-217 -353l226 -357h-195z" />
    <glyph glyph-name="Y" unicode="Y" horiz-adv-x="631" 
d="M439 710h194l-234 -401v-309h-169v309l-232 401h191l124 -235h4z" />
    <glyph glyph-name="Z" unicode="Z" horiz-adv-x="609" 
d="M569 583l-316 -431v-3h316v-149h-530v130l307 428v3h-296v149h519v-127z" />
    <glyph glyph-name="bracketleft" unicode="[" horiz-adv-x="351" 
d="M56 -150v885h259v-114h-126v-656h126v-115h-259z" />
    <glyph glyph-name="backslash" unicode="\" horiz-adv-x="442" 
d="M364 -111l-380 854l113 52l381 -854z" />
    <glyph glyph-name="bracketright" unicode="]" horiz-adv-x="351" 
d="M307 -150h-259v115h126v656h-126v114h259v-885z" />
    <glyph glyph-name="asciicircum" unicode="^" horiz-adv-x="454" 
d="M39 500l134 210h106l136 -210h-123l-65 116l-70 -116h-118z" />
    <glyph glyph-name="underscore" unicode="_" horiz-adv-x="523" 
d="M-9 -130v103h541v-103h-541z" />
    <glyph glyph-name="grave" unicode="`" horiz-adv-x="495" 
d="M217 532l-124 151l160 -1l110 -150h-146z" />
    <glyph glyph-name="a" unicode="a" horiz-adv-x="591" 
d="M386 489h157v-489h-148v53h-2q-48 -62 -136 -62q-102 0 -166.5 70t-64.5 183q0 112 64 183.5t160 71.5q82 0 135 -62h1v52zM289 128q44 0 74 32.5t30 83.5q0 50 -29.5 83t-73.5 33q-45 0 -75 -32.5t-30 -83.5q0 -52 29 -84t75 -32z" />
    <glyph glyph-name="b" unicode="b" horiz-adv-x="600" 
d="M349 499q96 0 159.5 -71.5t63.5 -183.5q0 -113 -64.5 -183t-165.5 -70q-92 0 -140 62h-2v-53h-149v736h157v-299h2q53 62 139 62zM310 128q46 0 75 32t29 84q0 51 -30 83.5t-75 32.5q-46 0 -76.5 -33t-30.5 -83q0 -52 30.5 -84t77.5 -32z" />
    <glyph glyph-name="c" unicode="c" horiz-adv-x="517" 
d="M282 -10q-110 0 -182 71t-72 183q0 113 73 184t189 71q62 0 118.5 -25.5t92.5 -72.5l-105 -89q-39 47 -101 47q-49 0 -79 -31t-30 -82q0 -52 30.5 -84t80.5 -32q59 0 99 44l107 -93q-34 -40 -91 -65.5t-130 -25.5z" />
    <glyph glyph-name="d" unicode="d" horiz-adv-x="599" 
d="M391 736h156v-736h-148v53h-2q-50 -62 -140 -62q-101 0 -165.5 70t-64.5 183q0 111 64 183t159 72q86 0 139 -62h2v299zM290 128q46 0 76.5 32t30.5 84q0 50 -30 83t-77 33q-45 0 -75 -32.5t-30 -83.5t29.5 -83.5t75.5 -32.5z" />
    <glyph glyph-name="e" unicode="e" horiz-adv-x="546" 
d="M520 249q0 -26 -4 -46h-332q8 -40 39.5 -62.5t75.5 -22.5q68 0 118 59l83 -93q-33 -42 -89 -67.5t-129 -25.5q-110 0 -182 70.5t-72 183.5q0 111 70 182.5t178 71.5q107 0 175.5 -70t68.5 -180zM278 374q-36 0 -61.5 -20.5t-32.5 -58.5l183 1q-8 36 -31 57t-58 21z" />
    <glyph glyph-name="f" unicode="f" horiz-adv-x="343" 
d="M69 0v362h-48v127h48v76q0 89 43 135t118 46q78 0 132 -38l-29 -112q-36 17 -62 17q-45 0 -45 -53v-71h93v-127h-93v-362h-157z" />
    <glyph glyph-name="g" unicode="g" horiz-adv-x="590" 
d="M385 489h157v-425q0 -271 -264 -271q-116 0 -201 47l35 126q72 -42 149 -42q61 0 94.5 26.5t33.5 66.5v46h-3q-50 -53 -134 -53q-99 0 -162.5 68t-63.5 172q0 108 62.5 178.5t155.5 70.5q84 0 140 -59h1v49zM289 149q45 0 74 29.5t29 75.5t-29.5 75.5t-73.5 29.5
q-45 0 -75 -29.5t-30 -75.5q0 -47 30 -76t75 -29z" />
    <glyph glyph-name="h" unicode="h" horiz-adv-x="583" 
d="M360 499q177 0 177 -204v-295h-157v257q0 57 -19 79.5t-62 22.5t-67 -28t-24 -84v-247h-157v736h157v-304q58 67 152 67z" />
    <glyph glyph-name="i" unicode="i" horiz-adv-x="270" 
d="M135 548q-41 0 -69.5 25.5t-28.5 65.5t28.5 65.5t69.5 25.5t69.5 -25.5t28.5 -65.5t-28.5 -65.5t-69.5 -25.5zM57 0v489h155v-489h-155z" />
    <glyph glyph-name="j" unicode="j" horiz-adv-x="257" 
d="M128 552q-41 0 -69.5 25.5t-28.5 65.5t28.5 65.5t69.5 25.5t69.5 -25.5t28.5 -65.5t-28.5 -65.5t-69.5 -25.5zM53 -207q-60 0 -112 18l26 124q20 -9 42 -9q42 0 42 63v500h156v-513q0 -90 -40 -136.5t-114 -46.5z" />
    <glyph glyph-name="k" unicode="k" horiz-adv-x="534" 
d="M261 179h-2l-51 -58v-121h-157v736h157v-409h1l142 162h181l-168 -191l172 -298h-173z" />
    <glyph glyph-name="l" unicode="l" horiz-adv-x="270" 
d="M57 0v736h155v-736h-155z" />
    <glyph glyph-name="m" unicode="m" horiz-adv-x="874" 
d="M654 499q82 0 128 -51.5t46 -162.5v-285h-156v249q0 110 -71 110q-36 0 -59 -29.5t-23 -84.5v-245h-156v249q0 110 -71 110q-38 0 -61 -29.5t-23 -84.5v-245h-157v489h157v-55h2q56 65 137 65q97 0 140 -71h2q60 71 165 71z" />
    <glyph glyph-name="n" unicode="n" horiz-adv-x="578" 
d="M356 499q176 0 176 -206v-293h-157v255q0 58 -18.5 81t-59.5 23t-65 -29t-24 -84v-246h-157v489h157v-59q60 69 148 69z" />
    <glyph glyph-name="o" unicode="o" horiz-adv-x="583" 
d="M292 -10q-117 0 -190.5 71t-73.5 183t73.5 183.5t190.5 71.5q116 0 190 -71t74 -184q0 -112 -74 -183t-190 -71zM292 129q45 0 75.5 32.5t30.5 82.5q0 51 -30 83t-76 32q-47 0 -76.5 -32.5t-29.5 -82.5q0 -49 30 -82t76 -33z" />
    <glyph glyph-name="p" unicode="p" horiz-adv-x="600" 
d="M349 499q96 0 159.5 -71.5t63.5 -183.5q0 -113 -64.5 -183t-165.5 -70q-84 0 -132 57h-2v-246h-157v687h157v-53h1q53 63 140 63zM310 128q46 0 75 32t29 84q0 51 -30 83.5t-75 32.5q-46 0 -76.5 -33t-30.5 -83q0 -52 30.5 -84t77.5 -32z" />
    <glyph glyph-name="q" unicode="q" horiz-adv-x="598" 
d="M392 489h156v-687h-156v246h-2q-49 -57 -132 -57q-101 0 -165.5 70t-64.5 183q0 111 64 183t159 72q87 0 140 -63h1v53zM291 128q46 0 76.5 32t30.5 84q0 50 -30 83t-77 33q-45 0 -75 -32.5t-30 -83.5q0 -52 29 -84t76 -32z" />
    <glyph glyph-name="r" unicode="r" horiz-adv-x="367" 
d="M351 499q4 0 5 -1v-168q-14 1 -36 1q-54 0 -83 -30.5t-29 -80.5v-220h-157v489h157v-66h1q56 76 142 76z" />
    <glyph glyph-name="s" unicode="s" horiz-adv-x="436" 
d="M215 -10q-119 0 -201 73l74 105q59 -56 128 -56q44 0 44 28q0 18 -75 41q-71 23 -112 60t-41 103q0 70 52.5 112.5t131.5 42.5q100 0 184 -62l-74 -112q-52 51 -111 51q-34 0 -34 -25q0 -17 64 -41q48 -17 72.5 -28.5t49.5 -30t35 -43t10 -60.5q0 -71 -50.5 -114.5
t-146.5 -43.5z" />
    <glyph glyph-name="t" unicode="t" horiz-adv-x="369" 
d="M211 -9q-66 0 -105 41.5t-39 121.5v208h-55v127h55v157l157 16v-173h118v-127h-118v-179q0 -56 37 -56q23 0 48 13l39 -116q-59 -33 -137 -33z" />
    <glyph glyph-name="u" unicode="u" horiz-adv-x="566" 
d="M361 489h157v-489h-157v55h-3q-53 -64 -138 -64q-176 0 -176 208v290h156v-251q0 -59 17.5 -83.5t57.5 -24.5q37 0 61.5 30t24.5 87v242z" />
    <glyph glyph-name="v" unicode="v" horiz-adv-x="536" 
d="M364 489h164l-189 -489h-142l-190 489h163l97 -302h2z" />
    <glyph glyph-name="w" unicode="w" horiz-adv-x="761" 
d="M597 489h155l-166 -489h-130l-76 273h-1l-74 -273h-131l-165 489h156l80 -262h2l72 262h122l73 -263h2z" />
    <glyph glyph-name="x" unicode="x" horiz-adv-x="521" 
d="M344 0l-82 121h-2l-84 -121h-167l164 252l-162 237h176l72 -121h2l73 121h175l-162 -237l166 -252h-169z" />
    <glyph glyph-name="y" unicode="y" horiz-adv-x="532" 
d="M365 489h160l-257 -687h-155l85 231l-191 456h162l99 -265h3z" />
    <glyph glyph-name="z" unicode="z" horiz-adv-x="474" 
d="M448 386l-216 -257v-3h208v-126h-413v104l211 256v4h-192v125h402v-103z" />
    <glyph glyph-name="braceleft" unicode="{" horiz-adv-x="351" 
d="M247 404q0 -85 -52 -110v-2q29 -12 40.5 -32t11.5 -79v-161q0 -35 10.5 -51t43.5 -16h21v-101h-83q-51 0 -86.5 37.5t-35.5 96.5v171q0 21 -1.5 31.5t-9 23t-26 18.5t-48.5 6v114q30 0 48.5 7t25.5 20.5t9 23.5t2 27v173q0 57 34 95.5t88 38.5h83v-101h-21
q-31 0 -42.5 -20t-11.5 -43v-167z" />
    <glyph glyph-name="bar" unicode="|" horiz-adv-x="316" 
d="M95 -115v852h126v-852h-126z" />
    <glyph glyph-name="braceright" unicode="}" horiz-adv-x="351" 
d="M246 428q0 -17 2 -27t9 -23.5t25.5 -20.5t48.5 -7v-114q-30 0 -48.5 -6t-26 -18.5t-9 -23t-1.5 -31.5v-171q0 -59 -35.5 -96.5t-86.5 -37.5h-83v101h21q33 0 43.5 16t10.5 51v161q0 59 11.5 79t40.5 32v2q-52 25 -52 110v167q0 13 -3 25.5t-16 25t-35 12.5h-21v101h83
q54 0 88 -38.5t34 -95.5v-173z" />
    <glyph glyph-name="asciitilde" unicode="~" horiz-adv-x="561" 
d="M146 186l-105 43q20 62 58.5 100t90.5 38q48 0 103 -25q30 -14 58 -14q38 0 65 42l105 -36q-19 -63 -57.5 -104t-89.5 -41q-40 0 -102 23q-36 17 -62 17q-36 0 -64 -43z" />
    <glyph glyph-name="exclamdown" unicode="&#xa1;" horiz-adv-x="290" 
d="M144 498q38 0 65 -27t27 -65q0 -37 -27.5 -64t-64.5 -27q-39 0 -66 27t-27 64q0 38 27 65t66 27zM89 243h114l27 -491h-168z" />
    <glyph glyph-name="cent" unicode="&#xa2;" horiz-adv-x="530" 
d="M508 135q-54 -66 -157 -85v-91h-120v90q-90 17 -146 84.5t-56 164.5t55 164t147 85v84h120v-84q99 -18 154 -92l-104 -89q-42 47 -102 47q-51 0 -81.5 -31t-30.5 -82t31.5 -83.5t81.5 -32.5q60 0 101 45z" />
    <glyph glyph-name="sterling" unicode="&#xa3;" horiz-adv-x="558" 
d="M37 0v148h59v154h-51v112h51v35q0 127 61 186.5t155 59.5q59 0 114 -25.5t92 -71.5l-81 -105q-48 53 -102 53q-33 0 -52.5 -22t-19.5 -85v-25h145v-112h-143v-154h271v-148h-499z" />
    <glyph glyph-name="currency" unicode="&#xa4;" horiz-adv-x="504" 
d="M435 388q0 -47 -24 -90l81 -81l-70 -70l-81 82q-43 -24 -90 -24q-48 0 -90 24l-81 -81l-70 69l82 82q-23 40 -23 89t23 90l-82 82l70 69l82 -81q42 24 89 24t90 -24l81 82l70 -70l-81 -81q24 -43 24 -91zM251 313q31 0 54 22.5t24 54.5q0 32 -23 54.5t-55 23.5
q-31 -1 -53.5 -23.5t-23.5 -54.5q0 -32 23 -54.5t54 -22.5z" />
    <glyph glyph-name="yen" unicode="&#xa5;" horiz-adv-x="600" 
d="M604 686l-145 -267h61v-72h-101l-24 -44h125v-72h-135v-231h-170v231h-145v72h135l-24 44h-111v72h71l-145 267h194l109 -237h2l108 237h195z" />
    <glyph glyph-name="brokenbar" unicode="&#xa6;" horiz-adv-x="316" 
d="M95 385v352h126v-352h-126zM95 -114v351h126v-351h-126z" />
    <glyph glyph-name="section" unicode="&#xa7;" horiz-adv-x="542" 
d="M433 146q50 -44 50 -119q0 -84 -58 -132t-154 -48q-135 0 -230 98l89 107q67 -67 140 -67q22 0 35 11t13 28q0 18 -14.5 30t-60.5 29q-51 20 -80.5 34t-61 36t-45.5 49.5t-14 62.5q0 89 68 132q-48 43 -48 114q0 78 55.5 128t148.5 50q55 0 114.5 -23t102.5 -60l-87 -107
q-69 48 -122 48q-24 0 -36 -9.5t-12 -23.5q0 -15 13 -25.5t55 -28.5q116 -49 146 -69q59 -40 63 -110v-11q0 -76 -70 -124zM193 294q0 -21 18.5 -37t75.5 -38q4 -2 13 -5.5t14 -5.5q36 10 36 41q0 20 -18 35t-81 40q-4 2 -11 4t-10 4q-37 -8 -37 -38z" />
    <glyph glyph-name="dieresis" unicode="&#xa8;" horiz-adv-x="530" 
d="M154 524q-41 0 -69.5 25.5t-28.5 65.5t28.5 65.5t69.5 25.5t69 -25.5t28 -65.5t-28 -65.5t-69 -25.5zM377 524q-41 0 -69.5 25.5t-28.5 65.5t28.5 65.5t69.5 25.5t69.5 -25.5t28.5 -65.5t-28.5 -65.5t-69.5 -25.5z" />
    <glyph glyph-name="copyright" unicode="&#xa9;" horiz-adv-x="715" 
d="M356 -5q-134 0 -227 95t-93 228q0 132 93.5 227.5t228.5 95.5t228 -95t93 -228q0 -132 -94 -227.5t-229 -95.5zM356 91q95 0 160 66.5t65 160.5t-64.5 160t-159.5 66t-159.5 -66.5t-64.5 -161.5q0 -94 64 -159.5t159 -65.5zM366 153q-71 0 -118.5 43t-47.5 120
q0 70 44 116.5t122 46.5q80 0 130 -62l-62 -53q-29 33 -68 33q-32 0 -53.5 -21.5t-21.5 -59.5q0 -35 20 -58t55 -23q40 0 68 33l62 -55q-51 -60 -130 -60z" />
    <glyph glyph-name="ordfeminine" unicode="&#xaa;" horiz-adv-x="385" 
d="M242 687h106v-295h-106v26h-1q-31 -33 -84 -33q-62 0 -100 43t-38 112q0 68 37 110.5t94 42.5q55 0 91 -41h1v35zM185 485q23 0 38.5 15.5t15.5 39.5q0 23 -16 38.5t-38 15.5q-24 0 -40 -15.5t-16 -38.5q0 -25 16 -40t40 -15z" />
    <glyph glyph-name="guillemotleft" unicode="&#xab;" horiz-adv-x="519" 
d="M302 46h-147l-114 201l116 205h146l-118 -205zM524 46h-147l-115 201l117 205h146l-118 -205z" />
    <glyph glyph-name="logicalnot" unicode="&#xac;" horiz-adv-x="534" 
d="M363 138v164h-325v132h459v-296h-134z" />
    <glyph glyph-name="registered" unicode="&#xae;" horiz-adv-x="721" 
d="M361 645q136 0 230 -96.5t94 -230.5q0 -133 -95 -229.5t-231 -96.5q-135 0 -229 96t-94 230t94.5 230.5t230.5 96.5zM359 88q97 0 162 67t65 163t-65 162.5t-160 66.5q-97 0 -162.5 -67.5t-65.5 -163.5q0 -95 65.5 -161.5t160.5 -66.5zM489 367q0 -70 -57 -97l73 -112
h-98l-61 99h-21v-99h-83v324h129q58 0 88 -31.5t30 -83.5zM325 406v-74h27q22 0 35 9.5t13 27.5q0 16 -13 26.5t-35 10.5h-27z" />
    <glyph glyph-name="macron" unicode="&#xaf;" horiz-adv-x="437" 
d="M62 554v121h313v-121h-313z" />
    <glyph glyph-name="degree" unicode="&#xb0;" horiz-adv-x="372" 
d="M186 438q-59 0 -101.5 41.5t-42.5 99.5q0 57 43.5 99t100.5 42q58 0 101 -42t43 -101q0 -57 -42.5 -98t-101.5 -41zM185 528q22 0 36 14.5t14 35.5q0 22 -15 37t-35 15q-21 0 -35.5 -15.5t-14.5 -36.5t14.5 -35.5t35.5 -14.5z" />
    <glyph glyph-name="plusminus" unicode="&#xb1;" horiz-adv-x="593" 
d="M222 186v170h-171v134h171v172h135v-172h171v-134h-171v-170h-135zM65 -3v134h478v-134h-478z" />
    <glyph glyph-name="uni00B2" unicode="&#xb2;" horiz-adv-x="327" 
 />
    <glyph glyph-name="uni00B3" unicode="&#xb3;" horiz-adv-x="334" 
 />
    <glyph glyph-name="acute" unicode="&#xb4;" horiz-adv-x="495" 
d="M130 532l112 150l159 1l-124 -151h-147z" />
    <glyph glyph-name="uni00B5" unicode="&#xb5;" horiz-adv-x="572" 
d="M367 489h156v-489h-144l-8 55h-3q-47 -64 -119 -64q-33 0 -52 12l-4 -3q13 -58 13 -115v-83h-156v687h156v-247q0 -59 19 -86t59 -27q37 0 60 29.5t23 85.5v245z" />
    <glyph glyph-name="paragraph" unicode="&#xb6;" horiz-adv-x="538" 
d="M270 0v272q-99 9 -158.5 61.5t-59.5 141.5q0 93 64.5 149t176.5 56h177v-680h-200z" />
    <glyph glyph-name="periodcentered" unicode="&#xb7;" horiz-adv-x="278" 
d="M143 152q-39 0 -66 27t-27 65q0 37 27 64t66 27q37 0 64.5 -27t27.5 -64q0 -38 -27 -65t-65 -27z" />
    <glyph glyph-name="cedilla" unicode="&#xb8;" horiz-adv-x="361" 
d="M183 -30q44 -2 68.5 -22.5t24.5 -58.5q0 -81 -127 -81q-24 0 -64 5v64q23 -7 53 -7q44 0 44 26q0 31 -79 31v37l22 42h79z" />
    <glyph glyph-name="uni00B9" unicode="&#xb9;" horiz-adv-x="280" 
 />
    <glyph glyph-name="ordmasculine" unicode="&#xba;" horiz-adv-x="374" 
d="M182 386q-72 0 -117.5 42.5t-45.5 111.5q0 68 45.5 110.5t117.5 42.5t117.5 -42.5t45.5 -110.5q0 -69 -45.5 -111.5t-117.5 -42.5zM182 484q22 0 37 16t15 40t-14.5 39.5t-37.5 15.5q-22 0 -36.5 -15.5t-14.5 -39.5q0 -25 14.5 -40.5t36.5 -15.5z" />
    <glyph glyph-name="guillemotright" unicode="&#xbb;" horiz-adv-x="519" 
d="M9 46l117 201l-118 205h146l117 -205l-115 -201h-147zM231 46l117 201l-118 205h146l116 -205l-114 -201h-147z" />
    <glyph glyph-name="onequarter" unicode="&#xbc;" horiz-adv-x="799" 
d="M304 -27l-115 50l317 704l114 -50zM117 299v266l-54 -39l-59 90l141 95h91v-412h-119zM619 0v60h-157v70l183 282h92v-251h53v-101h-53v-60h-118zM573 153h56v92z" />
    <glyph glyph-name="onehalf" unicode="&#xbd;" horiz-adv-x="838" 
d="M506 727l114 -50l-316 -704l-115 50zM236 299h-119v266l-54 -39l-59 90l141 95h91v-412zM695 107h126v-107h-294l-2 79l121 124q50 50 50 77q0 13 -9 21t-24 8q-32 0 -55 -31l-88 63q50 78 153 78q60 0 102.5 -34t42.5 -91q0 -39 -14 -68.5t-58 -69.5l-51 -47v-2z" />
    <glyph glyph-name="threequarters" unicode="&#xbe;" horiz-adv-x="828" 
d="M535 727l114 -50l-316 -704l-115 50zM319 412q0 -56 -42 -89t-110 -33q-60 0 -104 29t-60 74l107 42q12 -42 48 -42q17 0 27.5 10t10.5 25q0 36 -48 36h-25v86h33q17 0 27 8.5t10 21.5q0 14 -9.5 23.5t-24.5 9.5q-29 0 -40 -32l-98 52q13 36 51.5 60t87.5 24
q63 0 104 -30t41 -84q0 -58 -47 -91v-3q61 -29 61 -97zM766 161h53v-101h-53v-60h-118v60h-157v70l183 282h92v-251zM658 153v92l-56 -92h56z" />
    <glyph glyph-name="questiondown" unicode="&#xbf;" horiz-adv-x="447" 
d="M277 498q39 0 66 -27t27 -65q0 -37 -27 -64t-66 -27q-37 0 -64.5 27t-27.5 64q0 38 27 65t65 27zM347 245l1 -48q0 -9 -1.5 -18.5t-2.5 -16.5t-6 -16.5t-7 -14.5t-9.5 -14.5t-9.5 -13t-11.5 -13.5t-11 -12t-12.5 -13l-12 -12q-20 -21 -30 -33t-20 -32t-10 -38
q0 -29 17 -45.5t47 -16.5q51 0 90 47l110 -101q-35 -42 -92 -67t-120 -25q-93 0 -156.5 50.5t-63.5 148.5q0 87 89 170q6 5 22 19.5t22 20.5t16 17t14 20t5 18l4 39h138z" />
    <glyph glyph-name="Agrave" unicode="&#xc0;" 
d="M415 780h-146l-124 151l160 -1zM512 0l-42 127h-249l-41 -127h-175l260 710h160l262 -710h-175zM267 269h157l-78 239h-2z" />
    <glyph glyph-name="Aacute" unicode="&#xc1;" 
d="M550 931l-124 -151h-147l112 150zM512 0l-42 127h-249l-41 -127h-175l260 710h160l262 -710h-175zM267 269h157l-78 239h-2z" />
    <glyph glyph-name="Acircumflex" unicode="&#xc2;" 
d="M343 847l-39 -69h-138l108 153h136l115 -153h-139l-41 69h-2zM512 0l-42 127h-249l-41 -127h-175l260 710h160l262 -710h-175zM267 269h157l-78 239h-2z" />
    <glyph glyph-name="Atilde" unicode="&#xc3;" 
d="M290 818q-33 0 -55 -47l-91 39q18 57 50.5 91.5t77.5 34.5q41 0 88 -27q32 -19 50 -19q33 0 56 46l90 -29q-17 -61 -49.5 -98.5t-76.5 -37.5q-42 0 -88 28q-34 19 -52 19zM512 0l-42 127h-249l-41 -127h-175l260 710h160l262 -710h-175zM267 269h157l-78 239h-2z" />
    <glyph glyph-name="Adieresis" unicode="&#xc4;" 
d="M233 772q-41 0 -69.5 25.5t-28.5 65.5t28.5 65.5t69.5 25.5t69 -25.5t28 -65.5t-28 -65.5t-69 -25.5zM456 772q-41 0 -69.5 25.5t-28.5 65.5t28.5 65.5t69.5 25.5t69.5 -25.5t28.5 -65.5t-28.5 -65.5t-69.5 -25.5zM512 0l-42 127h-249l-41 -127h-175l260 710h160
l262 -710h-175zM267 269h157l-78 239h-2z" />
    <glyph glyph-name="Aring" unicode="&#xc5;" 
d="M345 755q-47 0 -80 31.5t-33 78.5q0 46 31.5 77.5t81.5 31.5q47 0 80 -31t33 -78q0 -46 -31.5 -78t-81.5 -32zM344 901q-14 0 -24 -10.5t-10 -24.5q0 -15 10 -25t24 -10q16 0 26 10.5t10 25.5q0 14 -10.5 24t-25.5 10zM512 0l-42 127h-249l-41 -127h-175l260 710h160
l262 -710h-175zM267 269h157l-78 239h-2z" />
    <glyph glyph-name="AE" unicode="&#xc6;" horiz-adv-x="945" 
d="M590 149h321v-149h-485v127h-192l-60 -127h-175l342 710h550v-149h-301v-136h242v-145h-242v-131zM300 269h126v265h-1z" />
    <glyph glyph-name="Ccedilla" unicode="&#xc7;" horiz-adv-x="708" 
d="M402 151q47 0 90.5 22.5t72.5 58.5l123 -105q-104 -130 -275 -136l-12 -21q44 -2 68.5 -22.5t24.5 -58.5q0 -81 -127 -81q-24 0 -64 5v64q23 -7 53 -7q44 0 44 26q0 31 -79 31v37l15 29v3q-131 20 -215.5 113.5t-84.5 243.5q0 158 98 262.5t268 104.5q77 0 153.5 -34
t132.5 -103l-123 -104q-29 35 -71.5 58.5t-91.5 23.5q-81 0 -136 -56.5t-55 -151.5q0 -86 53 -144t138 -58z" />
    <glyph glyph-name="Egrave" unicode="&#xc8;" horiz-adv-x="581" 
d="M272 779l-124 151l160 -1l110 -150h-146zM62 0v710h463v-149h-299v-136h236v-147h-236v-129h320v-149h-484z" />
    <glyph glyph-name="Eacute" unicode="&#xc9;" horiz-adv-x="581" 
d="M186 779l112 150l159 1l-124 -151h-147zM62 0v710h463v-149h-299v-136h236v-147h-236v-129h320v-149h-484z" />
    <glyph glyph-name="Ecircumflex" unicode="&#xca;" horiz-adv-x="581" 
d="M299 846l-39 -69h-138l108 153h136l115 -153h-139l-41 69h-2zM226 149h320v-149h-484v710h463v-149h-299v-136h236v-147h-236v-129z" />
    <glyph glyph-name="Edieresis" unicode="&#xcb;" horiz-adv-x="581" 
d="M189 771q-41 0 -69.5 25.5t-28.5 65.5t28.5 65.5t69.5 25.5t69 -25.5t28 -65.5t-28 -65.5t-69 -25.5zM412 771q-41 0 -69.5 25.5t-28.5 65.5t28.5 65.5t69.5 25.5t69.5 -25.5t28.5 -65.5t-28.5 -65.5t-69.5 -25.5zM62 0v710h463v-149h-299v-136h236v-147h-236v-129h320
v-149h-484z" />
    <glyph glyph-name="Igrave" unicode="&#xcc;" horiz-adv-x="302" 
d="M86 779l-124 151l160 -1l110 -150h-146zM66 0v710h169v-710h-169z" />
    <glyph glyph-name="Iacute" unicode="&#xcd;" horiz-adv-x="302" 
d="M83 779l112 150l159 1l-124 -151h-147zM66 0v710h169v-710h-169z" />
    <glyph glyph-name="Icircumflex" unicode="&#xce;" horiz-adv-x="302" 
d="M147 846l-39 -69h-138l108 153h136l115 -153h-139l-41 69h-2zM66 0v710h169v-710h-169z" />
    <glyph glyph-name="Idieresis" unicode="&#xcf;" horiz-adv-x="302" 
d="M37 771q-41 0 -69.5 25.5t-28.5 65.5t28.5 65.5t69.5 25.5t69 -25.5t28 -65.5t-28 -65.5t-69 -25.5zM260 771q-41 0 -69.5 25.5t-28.5 65.5t28.5 65.5t69.5 25.5t69.5 -25.5t28.5 -65.5t-28.5 -65.5t-69.5 -25.5zM66 0v710h169v-710h-169z" />
    <glyph glyph-name="Eth" unicode="&#xd0;" horiz-adv-x="712" 
d="M308 710q167 0 267.5 -98.5t100.5 -257.5t-97.5 -256.5t-267.5 -97.5h-249v277h-48v142h48v291h246zM300 149q90 0 146 58.5t56 146.5q0 89 -54 148t-136 59h-85v-142h93v-142h-93v-128h73z" />
    <glyph glyph-name="Ntilde" unicode="&#xd1;" horiz-adv-x="734" 
d="M315 818q-33 0 -55 -47l-91 39q18 57 50.5 91.5t77.5 34.5q41 0 88 -27q32 -19 50 -19q33 0 56 46l90 -29q-17 -61 -49.5 -98.5t-76.5 -37.5q-42 0 -88 28q-34 19 -52 19zM505 710h167v-710h-172l-270 426h-1v-426h-167v710h167l276 -437v437z" />
    <glyph glyph-name="Ograve" unicode="&#xd2;" horiz-adv-x="802" 
d="M340 780l-124 151l160 -1l110 -150h-146zM402 -10q-162 0 -264 102.5t-102 262.5q0 161 102 263t264 102q160 0 262 -101t102 -264q0 -162 -102 -263.5t-262 -101.5zM402 146q82 0 136 60t54 149q0 90 -54 149.5t-136 59.5q-84 0 -138 -60t-54 -149q0 -88 54 -148.5
t138 -60.5z" />
    <glyph glyph-name="Oacute" unicode="&#xd3;" horiz-adv-x="802" 
d="M334 780l112 150l159 1l-124 -151h-147zM402 -10q-162 0 -264 102.5t-102 262.5q0 161 102 263t264 102q160 0 262 -101t102 -264q0 -162 -102 -263.5t-262 -101.5zM402 146q82 0 136 60t54 149q0 90 -54 149.5t-136 59.5q-84 0 -138 -60t-54 -149q0 -88 54 -148.5
t138 -60.5z" />
    <glyph glyph-name="Ocircumflex" unicode="&#xd4;" horiz-adv-x="802" 
d="M400 847l-39 -69h-138l108 153h136l115 -153h-139l-41 69h-2zM402 720q160 0 262 -101t102 -264q0 -162 -102 -263.5t-262 -101.5q-162 0 -264 102.5t-102 262.5q0 161 102 263t264 102zM402 146q82 0 136 60t54 149q0 90 -54 149.5t-136 59.5q-84 0 -138 -60t-54 -149
q0 -88 54 -148.5t138 -60.5z" />
    <glyph glyph-name="Otilde" unicode="&#xd5;" horiz-adv-x="802" 
d="M292 771l-91 39q18 57 50.5 91.5t77.5 34.5q41 0 88 -27q32 -19 50 -19q33 0 56 46l90 -29q-17 -61 -49.5 -98.5t-76.5 -37.5q-42 0 -88 28q-34 19 -52 19q-33 0 -55 -47zM402 -10q-162 0 -264 102.5t-102 262.5q0 161 102 263t264 102q160 0 262 -101t102 -264
q0 -162 -102 -263.5t-262 -101.5zM402 146q82 0 136 60t54 149q0 90 -54 149.5t-136 59.5q-84 0 -138 -60t-54 -149q0 -88 54 -148.5t138 -60.5z" />
    <glyph glyph-name="Odieresis" unicode="&#xd6;" horiz-adv-x="802" 
d="M290 772q-41 0 -69.5 25.5t-28.5 65.5t28.5 65.5t69.5 25.5t69 -25.5t28 -65.5t-28 -65.5t-69 -25.5zM513 772q-41 0 -69.5 25.5t-28.5 65.5t28.5 65.5t69.5 25.5t69.5 -25.5t28.5 -65.5t-28.5 -65.5t-69.5 -25.5zM402 -10q-162 0 -264 102.5t-102 262.5q0 161 102 263
t264 102q160 0 262 -101t102 -264q0 -162 -102 -263.5t-262 -101.5zM402 146q82 0 136 60t54 149q0 90 -54 149.5t-136 59.5q-84 0 -138 -60t-54 -149q0 -88 54 -148.5t138 -60.5z" />
    <glyph glyph-name="multiply" unicode="&#xd7;" horiz-adv-x="522" 
d="M131 53l-94 94l130 131l-130 131l93 93l130 -130l132 131l94 -95l-131 -131l131 -131l-93 -93l-132 130z" />
    <glyph glyph-name="Oslash" unicode="&#xd8;" horiz-adv-x="809" 
d="M773 675l-81 -88q74 -96 74 -232q0 -162 -102 -263.5t-262 -101.5q-114 0 -204 55l-76 -84l-75 69l74 81q-85 99 -85 244q0 161 102 263t264 102q125 0 217 -64l80 87zM210 355q0 -62 29 -115l267 292q-46 32 -104 32q-84 0 -138 -60t-54 -149zM592 355q0 55 -21 99
l-260 -285q41 -23 91 -23q82 0 136 60t54 149z" />
    <glyph glyph-name="Ugrave" unicode="&#xd9;" horiz-adv-x="696" 
d="M293 780l-124 151l160 -1l110 -150h-146zM347 -10q-134 0 -213.5 80.5t-79.5 225.5v414h169v-403q0 -69 32.5 -114.5t91.5 -45.5q56 0 91.5 43t35.5 117v403h168v-414q0 -141 -77.5 -223.5t-217.5 -82.5z" />
    <glyph glyph-name="Uacute" unicode="&#xda;" horiz-adv-x="696" 
d="M262 780l112 150l159 1l-124 -151h-147zM347 -10q-134 0 -213.5 80.5t-79.5 225.5v414h169v-403q0 -69 32.5 -114.5t91.5 -45.5q56 0 91.5 43t35.5 117v403h168v-414q0 -141 -77.5 -223.5t-217.5 -82.5z" />
    <glyph glyph-name="Ucircumflex" unicode="&#xdb;" horiz-adv-x="696" 
d="M346 847l-39 -69h-138l108 153h136l115 -153h-139l-41 69h-2zM474 710h168v-414q0 -141 -77.5 -223.5t-217.5 -82.5q-134 0 -213.5 80.5t-79.5 225.5v414h169v-403q0 -69 32.5 -114.5t91.5 -45.5q56 0 91.5 43t35.5 117v403z" />
    <glyph glyph-name="Udieresis" unicode="&#xdc;" horiz-adv-x="696" 
d="M236 772q-41 0 -69.5 25.5t-28.5 65.5t28.5 65.5t69.5 25.5t69 -25.5t28 -65.5t-28 -65.5t-69 -25.5zM459 772q-41 0 -69.5 25.5t-28.5 65.5t28.5 65.5t69.5 25.5t69.5 -25.5t28.5 -65.5t-28.5 -65.5t-69.5 -25.5zM347 -10q-134 0 -213.5 80.5t-79.5 225.5v414h169v-403
q0 -69 32.5 -114.5t91.5 -45.5q56 0 91.5 43t35.5 117v403h168v-414q0 -141 -77.5 -223.5t-217.5 -82.5z" />
    <glyph glyph-name="Yacute" unicode="&#xdd;" horiz-adv-x="631" 
d="M500 931l-124 -151h-147l112 150zM439 710h194l-234 -401v-309h-169v309l-232 401h191l124 -235h4z" />
    <glyph glyph-name="Thorn" unicode="&#xde;" horiz-adv-x="632" 
d="M62 0v710h165v-118h127q126 0 189 -67t63 -178q0 -114 -71 -174t-194 -60h-114v-113h-165zM227 260h90q55 0 85.5 24.5t30.5 66.5t-29 67.5t-84 25.5h-93v-184z" />
    <glyph glyph-name="germandbls" unicode="&#xdf;" horiz-adv-x="623" 
d="M487 418q53 -27 83.5 -79t30.5 -116q0 -107 -61.5 -169.5t-166.5 -62.5h-87v137h49q49 0 79 29t30 74q0 47 -31.5 76t-86.5 29h-30v122h22q45 1 67 25t22 56t-24.5 52.5t-68.5 20.5q-106 0 -106 -118v-494h-156v483q0 130 68 196.5t191 66.5q120 0 184 -55t64 -136
q0 -88 -72 -135v-2z" />
    <glyph glyph-name="agrave" unicode="&#xe0;" horiz-adv-x="591" 
d="M389 555h-146l-124 151l160 -1zM386 489h157v-489h-148v53h-2q-48 -62 -136 -62q-102 0 -166.5 70t-64.5 183q0 112 64 183.5t160 71.5q82 0 135 -62h1v52zM289 128q44 0 74 32.5t30 83.5q0 50 -29.5 83t-73.5 33q-45 0 -75 -32.5t-30 -83.5q0 -52 29 -84t75 -32z" />
    <glyph glyph-name="aacute" unicode="&#xe1;" horiz-adv-x="591" 
d="M471 706l-124 -151h-147l112 150zM386 489h157v-489h-148v53h-2q-48 -62 -136 -62q-102 0 -166.5 70t-64.5 183q0 112 64 183.5t160 71.5q82 0 135 -62h1v52zM289 128q44 0 74 32.5t30 83.5q0 50 -29.5 83t-73.5 33q-45 0 -75 -32.5t-30 -83.5q0 -52 29 -84t75 -32z" />
    <glyph glyph-name="acircumflex" unicode="&#xe2;" horiz-adv-x="591" 
d="M293 623l-39 -69h-138l108 153h136l115 -153h-139l-41 69h-2zM386 489h157v-489h-148v53h-2q-48 -62 -136 -62q-102 0 -166.5 70t-64.5 183q0 112 64 183.5t160 71.5q82 0 135 -62h1v52zM289 128q44 0 74 32.5t30 83.5q0 50 -29.5 83t-73.5 33q-45 0 -75 -32.5t-30 -83.5
q0 -52 29 -84t75 -32z" />
    <glyph glyph-name="atilde" unicode="&#xe3;" horiz-adv-x="591" 
d="M240 594q-33 0 -55 -47l-91 39q18 57 50.5 91.5t77.5 34.5q41 0 88 -27q32 -19 50 -19q33 0 56 46l90 -29q-17 -61 -49.5 -98.5t-76.5 -37.5q-42 0 -88 28q-34 19 -52 19zM386 489h157v-489h-148v53h-2q-48 -62 -136 -62q-102 0 -166.5 70t-64.5 183q0 112 64 183.5
t160 71.5q82 0 135 -62h1v52zM289 128q44 0 74 32.5t30 83.5q0 50 -29.5 83t-73.5 33q-45 0 -75 -32.5t-30 -83.5q0 -52 29 -84t75 -32z" />
    <glyph glyph-name="adieresis" unicode="&#xe4;" horiz-adv-x="591" 
d="M183 548q-41 0 -69.5 25.5t-28.5 65.5t28.5 65.5t69.5 25.5t69 -25.5t28 -65.5t-28 -65.5t-69 -25.5zM406 548q-41 0 -69.5 25.5t-28.5 65.5t28.5 65.5t69.5 25.5t69.5 -25.5t28.5 -65.5t-28.5 -65.5t-69.5 -25.5zM386 489h157v-489h-148v53h-2q-48 -62 -136 -62
q-102 0 -166.5 70t-64.5 183q0 112 64 183.5t160 71.5q82 0 135 -62h1v52zM289 128q44 0 74 32.5t30 83.5q0 50 -29.5 83t-73.5 33q-45 0 -75 -32.5t-30 -83.5q0 -52 29 -84t75 -32z" />
    <glyph glyph-name="aring" unicode="&#xe5;" horiz-adv-x="591" 
d="M295 531q-47 0 -80 31.5t-33 78.5q0 46 31.5 77.5t81.5 31.5q47 0 80 -31t33 -78q0 -46 -31.5 -78t-81.5 -32zM294 677q-14 0 -24 -10.5t-10 -24.5q0 -15 10 -25t24 -10q16 0 26 10.5t10 25.5q0 14 -10.5 24t-25.5 10zM386 489h157v-489h-148v53h-2q-48 -62 -136 -62
q-102 0 -166.5 70t-64.5 183q0 112 64 183.5t160 71.5q82 0 135 -62h1v52zM289 128q44 0 74 32.5t30 83.5q0 50 -29.5 83t-73.5 33q-45 0 -75 -32.5t-30 -83.5q0 -52 29 -84t75 -32z" />
    <glyph glyph-name="ae" unicode="&#xe6;" horiz-adv-x="786" 
d="M764 247q0 -31 -4 -44h-315q22 -82 108 -82q66 0 109 56l83 -94q-33 -41 -87 -66.5t-119 -25.5q-99 0 -159 65h-2q-28 -30 -75 -47.5t-99 -17.5q-91 0 -137 41.5t-46 109.5q0 154 200 155h74v4q0 41 -16 57.5t-50 16.5q-56 0 -111 -31l-65 108q27 15 79.5 31t106.5 16
q102 0 145 -59h1q61 59 150 59q99 0 164 -71.5t65 -180.5zM531 371q-30 0 -53.5 -19t-32.5 -56h166q-14 75 -80 75zM223 105q30 0 51 20t21 37v43h-57q-70 -2 -70 -52q0 -21 14.5 -34.5t40.5 -13.5z" />
    <glyph glyph-name="ccedilla" unicode="&#xe7;" horiz-adv-x="517" 
d="M503 81q-71 -84 -204 -91l-12 -20q44 -2 68.5 -22.5t24.5 -58.5q0 -81 -127 -81q-24 0 -64 5v64q23 -7 53 -7q44 0 44 26q0 31 -79 31v37l15 29v3q-87 19 -140.5 86t-53.5 162q0 113 73 184t189 71q62 0 118.5 -25.5t92.5 -72.5l-105 -89q-39 47 -101 47q-49 0 -79 -31
t-30 -82q0 -52 30.5 -84t80.5 -32q59 0 99 44z" />
    <glyph glyph-name="egrave" unicode="&#xe8;" horiz-adv-x="546" 
d="M370 555h-146l-124 151l160 -1zM520 249q0 -26 -4 -46h-332q8 -40 39.5 -62.5t75.5 -22.5q68 0 118 59l83 -93q-33 -42 -89 -67.5t-129 -25.5q-110 0 -182 70.5t-72 183.5q0 111 70 182.5t178 71.5q107 0 175.5 -70t68.5 -180zM278 374q-36 0 -61.5 -20.5t-32.5 -58.5
l183 1q-8 36 -31 57t-58 21z" />
    <glyph glyph-name="eacute" unicode="&#xe9;" horiz-adv-x="546" 
d="M478 706l-124 -151h-147l112 150zM520 249q0 -26 -4 -46h-332q8 -40 39.5 -62.5t75.5 -22.5q68 0 118 59l83 -93q-33 -42 -89 -67.5t-129 -25.5q-110 0 -182 70.5t-72 183.5q0 111 70 182.5t178 71.5q107 0 175.5 -70t68.5 -180zM278 374q-36 0 -61.5 -20.5t-32.5 -58.5
l183 1q-8 36 -31 57t-58 21z" />
    <glyph glyph-name="ecircumflex" unicode="&#xea;" horiz-adv-x="546" 
d="M282 623l-39 -69h-138l108 153h136l115 -153h-139l-41 69h-2zM520 249q0 -26 -4 -46h-332q8 -40 39.5 -62.5t75.5 -22.5q68 0 118 59l83 -93q-33 -42 -89 -67.5t-129 -25.5q-110 0 -182 70.5t-72 183.5q0 111 70 182.5t178 71.5q107 0 175.5 -70t68.5 -180zM278 374
q-36 0 -61.5 -20.5t-32.5 -58.5l183 1q-8 36 -31 57t-58 21z" />
    <glyph glyph-name="edieresis" unicode="&#xeb;" horiz-adv-x="546" 
d="M172 548q-41 0 -69.5 25.5t-28.5 65.5t28.5 65.5t69.5 25.5t69 -25.5t28 -65.5t-28 -65.5t-69 -25.5zM395 548q-41 0 -69.5 25.5t-28.5 65.5t28.5 65.5t69.5 25.5t69.5 -25.5t28.5 -65.5t-28.5 -65.5t-69.5 -25.5zM520 249q0 -26 -4 -46h-332q8 -40 39.5 -62.5
t75.5 -22.5q68 0 118 59l83 -93q-33 -42 -89 -67.5t-129 -25.5q-110 0 -182 70.5t-72 183.5q0 111 70 182.5t178 71.5q107 0 175.5 -70t68.5 -180zM278 374q-36 0 -61.5 -20.5t-32.5 -58.5l183 1q-8 36 -31 57t-58 21z" />
    <glyph glyph-name="igrave" unicode="&#xec;" horiz-adv-x="270" 
d="M66 555l-85 151l160 -1l72 -150h-147zM57 0v489h155v-489h-155z" />
    <glyph glyph-name="iacute" unicode="&#xed;" horiz-adv-x="270" 
d="M67 555l112 150l159 1l-124 -151h-147zM57 0v489h155v-489h-155z" />
    <glyph glyph-name="icircumflex" unicode="&#xee;" horiz-adv-x="270" 
d="M133 623l-39 -69h-138l108 153h136l115 -153h-139l-41 69h-2zM57 0v489h155v-489h-155z" />
    <glyph glyph-name="idieresis" unicode="&#xef;" horiz-adv-x="270" 
d="M31 548q-38 0 -65 27t-27 64t27.5 64.5t64.5 27.5q36 0 63 -27.5t27 -64.5t-27 -64t-63 -27zM240 548q-37 0 -63.5 27t-26.5 64t26.5 64t63.5 27q35 0 61.5 -27t26.5 -64t-26.5 -64t-61.5 -27zM57 0v489h155v-489h-155z" />
    <glyph glyph-name="eth" unicode="&#xf0;" horiz-adv-x="576" 
d="M547 257h-1v-1q0 -119 -73 -192.5t-190 -73.5q-109 0 -182 67.5t-73 168.5q0 107 66.5 170t164.5 63q35 0 85 -15q-36 60 -89 104l-63 -48l-65 75l38 30v3q-37 17 -67 28l65 106q67 -23 114 -49l69 54l65 -79l-44 -34v-1q180 -145 180 -376zM287 129q43 0 72 30.5
t29 77.5q0 42 -28.5 70.5t-74.5 28.5q-42 0 -70.5 -29t-28.5 -70q0 -46 28.5 -77t72.5 -31z" />
    <glyph glyph-name="ntilde" unicode="&#xf1;" horiz-adv-x="578" 
d="M240 594q-33 0 -55 -47l-91 39q18 57 50.5 91.5t77.5 34.5q41 0 88 -27q32 -19 50 -19q33 0 56 46l90 -29q-17 -61 -49.5 -98.5t-76.5 -37.5q-42 0 -88 28q-34 19 -52 19zM356 499q176 0 176 -206v-293h-157v255q0 58 -18.5 81t-59.5 23t-65 -29t-24 -84v-246h-157v489
h157v-59q60 69 148 69z" />
    <glyph glyph-name="ograve" unicode="&#xf2;" horiz-adv-x="583" 
d="M236 555l-124 151l160 -1l110 -150h-146zM292 -10q-117 0 -190.5 71t-73.5 183t73.5 183.5t190.5 71.5q116 0 190 -71t74 -184q0 -112 -74 -183t-190 -71zM292 129q45 0 75.5 32.5t30.5 82.5q0 51 -30 83t-76 32q-47 0 -76.5 -32.5t-29.5 -82.5q0 -49 30 -82t76 -33z" />
    <glyph glyph-name="oacute" unicode="&#xf3;" horiz-adv-x="583" 
d="M219 555l112 150l159 1l-124 -151h-147zM292 -10q-117 0 -190.5 71t-73.5 183t73.5 183.5t190.5 71.5q116 0 190 -71t74 -184q0 -112 -74 -183t-190 -71zM292 129q45 0 75.5 32.5t30.5 82.5q0 51 -30 83t-76 32q-47 0 -76.5 -32.5t-29.5 -82.5q0 -49 30 -82t76 -33z" />
    <glyph glyph-name="ocircumflex" unicode="&#xf4;" horiz-adv-x="583" 
d="M290 623l-39 -69h-138l108 153h136l115 -153h-139l-41 69h-2zM292 499q116 0 190 -71t74 -184q0 -112 -74 -183t-190 -71q-117 0 -190.5 71t-73.5 183t73.5 183.5t190.5 71.5zM292 129q45 0 75.5 32.5t30.5 82.5q0 51 -30 83t-76 32q-47 0 -76.5 -32.5t-29.5 -82.5
q0 -49 30 -82t76 -33z" />
    <glyph glyph-name="otilde" unicode="&#xf5;" horiz-adv-x="583" 
d="M182 547l-91 39q18 57 50.5 91.5t77.5 34.5q41 0 88 -27q32 -19 50 -19q33 0 56 46l90 -29q-17 -61 -49.5 -98.5t-76.5 -37.5q-42 0 -88 28q-34 19 -52 19q-33 0 -55 -47zM292 -10q-117 0 -190.5 71t-73.5 183t73.5 183.5t190.5 71.5q116 0 190 -71t74 -184
q0 -112 -74 -183t-190 -71zM292 129q45 0 75.5 32.5t30.5 82.5q0 51 -30 83t-76 32q-47 0 -76.5 -32.5t-29.5 -82.5q0 -49 30 -82t76 -33z" />
    <glyph glyph-name="odieresis" unicode="&#xf6;" horiz-adv-x="583" 
d="M180 548q-41 0 -69.5 25.5t-28.5 65.5t28.5 65.5t69.5 25.5t69 -25.5t28 -65.5t-28 -65.5t-69 -25.5zM403 548q-41 0 -69.5 25.5t-28.5 65.5t28.5 65.5t69.5 25.5t69.5 -25.5t28.5 -65.5t-28.5 -65.5t-69.5 -25.5zM292 -10q-117 0 -190.5 71t-73.5 183t73.5 183.5
t190.5 71.5q116 0 190 -71t74 -184q0 -112 -74 -183t-190 -71zM292 129q45 0 75.5 32.5t30.5 82.5q0 51 -30 83t-76 32q-47 0 -76.5 -32.5t-29.5 -82.5q0 -49 30 -82t76 -33z" />
    <glyph glyph-name="divide" unicode="&#xf7;" horiz-adv-x="554" 
d="M278 389q-40 0 -66.5 24t-26.5 62t26.5 62.5t66.5 24.5q39 0 66 -24.5t27 -62.5t-27 -62t-66 -24zM44 210v134h478v-134h-478zM278 -14q-40 0 -66.5 24t-26.5 62t26.5 62.5t66.5 24.5q39 0 66 -24.5t27 -62.5t-27 -62t-66 -24z" />
    <glyph glyph-name="oslash" unicode="&#xf8;" horiz-adv-x="583" 
d="M504 404q52 -66 52 -160q0 -112 -74 -183t-190 -71q-78 0 -140 34l-49 -54l-63 59l45 49q-57 70 -57 166q0 112 73.5 183.5t190.5 71.5q85 0 147 -38l52 57l63 -59zM186 244q0 -26 9 -47l141 153q-20 9 -44 9q-47 0 -76.5 -32.5t-29.5 -82.5zM292 129q45 0 75.5 32.5
t30.5 82.5q0 22 -6 40l-137 -149q18 -6 37 -6z" />
    <glyph glyph-name="ugrave" unicode="&#xf9;" horiz-adv-x="566" 
d="M377 555h-146l-124 151l160 -1zM361 489h157v-489h-157v55h-3q-53 -64 -138 -64q-176 0 -176 208v290h156v-251q0 -59 17.5 -83.5t57.5 -24.5q37 0 61.5 30t24.5 87v242z" />
    <glyph glyph-name="uacute" unicode="&#xfa;" horiz-adv-x="566" 
d="M478 706l-124 -151h-147l112 150zM361 489h157v-489h-157v55h-3q-53 -64 -138 -64q-176 0 -176 208v290h156v-251q0 -59 17.5 -83.5t57.5 -24.5q37 0 61.5 30t24.5 87v242z" />
    <glyph glyph-name="ucircumflex" unicode="&#xfb;" horiz-adv-x="566" 
d="M282 623l-39 -69h-138l108 153h136l115 -153h-139l-41 69h-2zM361 489h157v-489h-157v55h-3q-53 -64 -138 -64q-176 0 -176 208v290h156v-251q0 -59 17.5 -83.5t57.5 -24.5q37 0 61.5 30t24.5 87v242z" />
    <glyph glyph-name="udieresis" unicode="&#xfc;" horiz-adv-x="566" 
d="M172 548q-41 0 -69.5 25.5t-28.5 65.5t28.5 65.5t69.5 25.5t69 -25.5t28 -65.5t-28 -65.5t-69 -25.5zM395 548q-41 0 -69.5 25.5t-28.5 65.5t28.5 65.5t69.5 25.5t69.5 -25.5t28.5 -65.5t-28.5 -65.5t-69.5 -25.5zM361 489h157v-489h-157v55h-3q-53 -64 -138 -64
q-176 0 -176 208v290h156v-251q0 -59 17.5 -83.5t57.5 -24.5q37 0 61.5 30t24.5 87v242z" />
    <glyph glyph-name="yacute" unicode="&#xfd;" horiz-adv-x="532" 
d="M449 706l-124 -151h-147l112 150zM365 489h160l-257 -687h-155l85 231l-191 456h162l99 -265h3z" />
    <glyph glyph-name="thorn" unicode="&#xfe;" horiz-adv-x="600" 
d="M349 499q96 0 159.5 -71.5t63.5 -183.5q0 -113 -64.5 -183t-165.5 -70q-84 0 -132 57h-2v-246h-157v934h157v-300h1q53 63 140 63zM310 128q46 0 75 32t29 84q0 51 -30 83.5t-75 32.5q-46 0 -76.5 -33t-30.5 -83q0 -52 30.5 -84t77.5 -32z" />
    <glyph glyph-name="ydieresis" unicode="&#xff;" horiz-adv-x="532" 
d="M156 548q-41 0 -69.5 25.5t-28.5 65.5t28.5 65.5t69.5 25.5t69 -25.5t28 -65.5t-28 -65.5t-69 -25.5zM379 548q-41 0 -69.5 25.5t-28.5 65.5t28.5 65.5t69.5 25.5t69.5 -25.5t28.5 -65.5t-28.5 -65.5t-69.5 -25.5zM365 489h160l-257 -687h-155l85 231l-191 456h162
l99 -265h3z" />
    <glyph glyph-name="Amacron" unicode="&#x100;" 
d="M502 923v-121h-313v121h313zM512 0l-42 127h-249l-41 -127h-175l260 710h160l262 -710h-175zM267 269h157l-78 239h-2z" />
    <glyph glyph-name="amacron" unicode="&#x101;" horiz-adv-x="591" 
d="M452 699v-121h-313v121h313zM386 489h157v-489h-148v53h-2q-48 -62 -136 -62q-102 0 -166.5 70t-64.5 183q0 112 64 183.5t160 71.5q82 0 135 -62h1v52zM289 128q44 0 74 32.5t30 83.5q0 50 -29.5 83t-73.5 33q-45 0 -75 -32.5t-30 -83.5q0 -52 29 -84t75 -32z" />
    <glyph glyph-name="Abreve" unicode="&#x102;" 
d="M345 773q-69 0 -118 42t-54 115h115q2 -24 17 -40t40 -16q24 0 40 15t17 41h115q-5 -68 -51 -112.5t-121 -44.5zM512 0l-42 127h-249l-41 -127h-175l260 710h160l262 -710h-175zM267 269h157l-78 239h-2z" />
    <glyph glyph-name="abreve" unicode="&#x103;" horiz-adv-x="591" 
d="M295 549q-69 0 -118 42t-54 115h115q2 -24 17 -40t40 -16q24 0 40 15t17 41h115q-5 -68 -51 -112.5t-121 -44.5zM386 489h157v-489h-148v53h-2q-48 -62 -136 -62q-102 0 -166.5 70t-64.5 183q0 112 64 183.5t160 71.5q82 0 135 -62h1v52zM289 128q44 0 74 32.5t30 83.5
q0 50 -29.5 83t-73.5 33q-45 0 -75 -32.5t-30 -83.5q0 -52 29 -84t75 -32z" />
    <glyph glyph-name="Aogonek" unicode="&#x104;" 
d="M659 0q-40 -1 -65.5 -22t-25.5 -45q0 -38 37 -38q21 0 36 5l7 -80q-29 -11 -76 -11q-55 0 -87.5 26.5t-32.5 67.5q0 57 60 98l-42 126h-249l-41 -127h-175l260 710h160l262 -710h-28zM267 269h157l-78 239h-2z" />
    <glyph glyph-name="aogonek" unicode="&#x105;" horiz-adv-x="591" 
d="M386 489h157v-489h-8q-40 -1 -65.5 -22t-25.5 -45q0 -38 37 -38q21 0 36 5l7 -80q-29 -11 -76 -11q-55 0 -87.5 26.5t-32.5 67.5q0 26 17 54.5t50 47.5v48h-2q-48 -62 -136 -62q-102 0 -166.5 70t-64.5 183q0 112 64 183.5t160 71.5q82 0 135 -62h1v52zM289 128
q44 0 74 32.5t30 83.5q0 50 -29.5 83t-73.5 33q-45 0 -75 -32.5t-30 -83.5q0 -52 29 -84t75 -32z" />
    <glyph glyph-name="Cacute" unicode="&#x106;" horiz-adv-x="708" 
d="M322 780l112 150l159 1l-124 -151h-147zM402 -9q-155 0 -260.5 96.5t-105.5 265.5q0 158 98 262.5t268 104.5q77 0 153.5 -34t132.5 -103l-123 -104q-29 35 -71.5 58.5t-91.5 23.5q-81 0 -136 -56.5t-55 -151.5q0 -86 53 -144t138 -58q47 0 90.5 22.5t72.5 58.5l123 -105
q-49 -61 -122.5 -98.5t-163.5 -37.5z" />
    <glyph glyph-name="cacute" unicode="&#x107;" horiz-adv-x="517" 
d="M207 555l112 150l159 1l-124 -151h-147zM282 -10q-110 0 -182 71t-72 183q0 113 73 184t189 71q62 0 118.5 -25.5t92.5 -72.5l-105 -89q-39 47 -101 47q-49 0 -79 -31t-30 -82q0 -52 30.5 -84t80.5 -32q59 0 99 44l107 -93q-34 -40 -91 -65.5t-130 -25.5z" />
    <glyph glyph-name="Ccircumflex" unicode="&#x108;" horiz-adv-x="708" 
d="M399 847l-39 -69h-138l108 153h136l115 -153h-139l-41 69h-2zM402 151q47 0 90.5 22.5t72.5 58.5l123 -105q-49 -61 -122.5 -98.5t-163.5 -37.5q-155 0 -260.5 96.5t-105.5 265.5q0 158 98 262.5t268 104.5q77 0 153.5 -34t132.5 -103l-123 -104q-29 35 -71.5 58.5
t-91.5 23.5q-81 0 -136 -56.5t-55 -151.5q0 -86 53 -144t138 -58z" />
    <glyph glyph-name="ccircumflex" unicode="&#x109;" horiz-adv-x="517" 
d="M287 623l-39 -69h-138l108 153h136l115 -153h-139l-41 69h-2zM396 174l107 -93q-34 -40 -91 -65.5t-130 -25.5q-110 0 -182 71t-72 183q0 113 73 184t189 71q62 0 118.5 -25.5t92.5 -72.5l-105 -89q-39 47 -101 47q-49 0 -79 -31t-30 -82q0 -52 30.5 -84t80.5 -32
q59 0 99 44z" />
    <glyph glyph-name="Cdotaccent" unicode="&#x10a;" horiz-adv-x="708" 
d="M401 772q-41 0 -69.5 25.5t-28.5 65.5t28.5 65.5t69.5 25.5t69.5 -25.5t28.5 -65.5t-28.5 -65.5t-69.5 -25.5zM402 -9q-155 0 -260.5 96.5t-105.5 265.5q0 158 98 262.5t268 104.5q77 0 153.5 -34t132.5 -103l-123 -104q-29 35 -71.5 58.5t-91.5 23.5q-81 0 -136 -56.5
t-55 -151.5q0 -86 53 -144t138 -58q47 0 90.5 22.5t72.5 58.5l123 -105q-49 -61 -122.5 -98.5t-163.5 -37.5z" />
    <glyph glyph-name="cdotaccent" unicode="&#x10b;" horiz-adv-x="517" 
d="M289 548q-41 0 -69.5 25.5t-28.5 65.5t28.5 65.5t69.5 25.5t69.5 -25.5t28.5 -65.5t-28.5 -65.5t-69.5 -25.5zM282 -10q-110 0 -182 71t-72 183q0 113 73 184t189 71q62 0 118.5 -25.5t92.5 -72.5l-105 -89q-39 47 -101 47q-49 0 -79 -31t-30 -82q0 -52 30.5 -84
t80.5 -32q59 0 99 44l107 -93q-34 -40 -91 -65.5t-130 -25.5z" />
    <glyph glyph-name="Ccaron" unicode="&#x10c;" horiz-adv-x="708" 
d="M470 778h-136l-112 153h139l38 -68h4l40 68h138zM402 151q47 0 90.5 22.5t72.5 58.5l123 -105q-49 -61 -122.5 -98.5t-163.5 -37.5q-155 0 -260.5 96.5t-105.5 265.5q0 158 98 262.5t268 104.5q77 0 153.5 -34t132.5 -103l-123 -104q-29 35 -71.5 58.5t-91.5 23.5
q-81 0 -136 -56.5t-55 -151.5q0 -86 53 -144t138 -58z" />
    <glyph glyph-name="ccaron" unicode="&#x10d;" horiz-adv-x="517" 
d="M358 554h-136l-112 153h139l38 -68h4l40 68h138zM396 174l107 -93q-34 -40 -91 -65.5t-130 -25.5q-110 0 -182 71t-72 183q0 113 73 184t189 71q62 0 118.5 -25.5t92.5 -72.5l-105 -89q-39 47 -101 47q-49 0 -79 -31t-30 -82q0 -52 30.5 -84t80.5 -32q59 0 99 44z" />
    <glyph glyph-name="Dcaron" unicode="&#x10e;" horiz-adv-x="712" 
d="M418 777h-136l-112 153h139l38 -68h4l40 68h138zM308 710q167 0 267.5 -98.5t100.5 -257.5t-97.5 -256.5t-267.5 -97.5h-249v710h246zM300 149q90 0 146 58.5t56 146.5q0 89 -54 148t-136 59h-85v-412h73z" />
    <glyph glyph-name="dcaron" unicode="&#x10f;" horiz-adv-x="670" 
d="M636 793h148l-72 -217h-108zM391 437v299h156v-736h-148v53h-2q-50 -62 -140 -62q-101 0 -165.5 70t-64.5 183q0 111 64 183t159 72q86 0 139 -62h2zM290 128q46 0 76.5 32t30.5 84q0 50 -30 83t-77 33q-45 0 -75 -32.5t-30 -83.5t29.5 -83.5t75.5 -32.5z" />
    <glyph glyph-name="Dcroat" unicode="&#x110;" horiz-adv-x="712" 
d="M308 710q167 0 267.5 -98.5t100.5 -257.5t-97.5 -256.5t-267.5 -97.5h-249v277h-48v142h48v291h246zM300 149q90 0 146 58.5t56 146.5q0 89 -54 148t-136 59h-85v-142h93v-142h-93v-128h73z" />
    <glyph glyph-name="dcroat" unicode="&#x111;" horiz-adv-x="597" 
d="M603 640v-96h-56v-544h-148v53h-2q-50 -62 -140 -62q-101 0 -165.5 70t-64.5 183q0 111 64 183t159 72q86 0 139 -62h2v107h-87v96h87v96h156v-96h56zM290 128q46 0 76.5 32t30.5 84q0 50 -30 83t-77 33q-45 0 -75 -32.5t-30 -83.5t29.5 -83.5t75.5 -32.5z" />
    <glyph glyph-name="Emacron" unicode="&#x112;" horiz-adv-x="581" 
d="M145 801v121h313v-121h-313zM62 0v710h463v-149h-299v-136h236v-147h-236v-129h320v-149h-484z" />
    <glyph glyph-name="emacron" unicode="&#x113;" horiz-adv-x="546" 
d="M441 699v-121h-313v121h313zM520 249q0 -26 -4 -46h-332q8 -40 39.5 -62.5t75.5 -22.5q68 0 118 59l83 -93q-33 -42 -89 -67.5t-129 -25.5q-110 0 -182 70.5t-72 183.5q0 111 70 182.5t178 71.5q107 0 175.5 -70t68.5 -180zM278 374q-36 0 -61.5 -20.5t-32.5 -58.5l183 1
q-8 36 -31 57t-58 21z" />
    <glyph glyph-name="Ebreve" unicode="&#x114;" horiz-adv-x="581" 
d="M301 772q-69 0 -118 42t-54 115h115q2 -24 17 -40t40 -16q24 0 40 15t17 41h115q-5 -68 -51 -112.5t-121 -44.5zM62 0v710h463v-149h-299v-136h236v-147h-236v-129h320v-149h-484z" />
    <glyph glyph-name="ebreve" unicode="&#x115;" horiz-adv-x="546" 
d="M284 549q-69 0 -118 42t-54 115h115q2 -24 17 -40t40 -16q24 0 40 15t17 41h115q-5 -68 -51 -112.5t-121 -44.5zM520 249q0 -26 -4 -46h-332q8 -40 39.5 -62.5t75.5 -22.5q68 0 118 59l83 -93q-33 -42 -89 -67.5t-129 -25.5q-110 0 -182 70.5t-72 183.5q0 111 70 182.5
t178 71.5q107 0 175.5 -70t68.5 -180zM278 374q-36 0 -61.5 -20.5t-32.5 -58.5l183 1q-8 36 -31 57t-58 21z" />
    <glyph glyph-name="Edotaccent" unicode="&#x116;" horiz-adv-x="581" 
d="M301 771q-41 0 -69.5 25.5t-28.5 65.5t28.5 65.5t69.5 25.5t69.5 -25.5t28.5 -65.5t-28.5 -65.5t-69.5 -25.5zM62 0v710h463v-149h-299v-136h236v-147h-236v-129h320v-149h-484z" />
    <glyph glyph-name="edotaccent" unicode="&#x117;" horiz-adv-x="546" 
d="M284 548q-41 0 -69.5 25.5t-28.5 65.5t28.5 65.5t69.5 25.5t69.5 -25.5t28.5 -65.5t-28.5 -65.5t-69.5 -25.5zM520 249q0 -26 -4 -46h-332q8 -40 39.5 -62.5t75.5 -22.5q68 0 118 59l83 -93q-33 -42 -89 -67.5t-129 -25.5q-110 0 -182 70.5t-72 183.5q0 111 70 182.5
t178 71.5q107 0 175.5 -70t68.5 -180zM278 374q-36 0 -61.5 -20.5t-32.5 -58.5l183 1q-8 36 -31 57t-58 21z" />
    <glyph glyph-name="Eogonek" unicode="&#x118;" horiz-adv-x="581" 
d="M226 149h320v-149h-4q-40 -1 -65.5 -22t-25.5 -45q0 -38 37 -38q21 0 36 5l7 -80q-29 -11 -76 -11q-55 0 -87.5 26.5t-32.5 67.5q0 55 56 95v2h-329v710h463v-149h-299v-136h236v-147h-236v-129z" />
    <glyph glyph-name="eogonek" unicode="&#x119;" horiz-adv-x="546" 
d="M520 249q0 -26 -4 -46h-332q8 -40 39.5 -62.5t75.5 -22.5q68 0 118 59l83 -93q-43 -56 -120 -79h1q-85 -26 -85 -69q0 -17 10 -26.5t27 -9.5q12 0 37 5l6 -82q-26 -11 -75 -11q-59 0 -92.5 26t-33.5 68q0 48 47 88v3q-87 18 -140.5 85t-53.5 163q0 111 70 182.5t178 71.5
q107 0 175.5 -70t68.5 -180zM278 374q-36 0 -61.5 -20.5t-32.5 -58.5l183 1q-8 36 -31 57t-58 21z" />
    <glyph glyph-name="Ecaron" unicode="&#x11a;" horiz-adv-x="581" 
d="M370 777h-136l-112 153h139l38 -68h4l40 68h138zM226 149h320v-149h-484v710h463v-149h-299v-136h236v-147h-236v-129z" />
    <glyph glyph-name="ecaron" unicode="&#x11b;" horiz-adv-x="546" 
d="M353 554h-136l-112 153h139l38 -68h4l40 68h138zM520 249q0 -26 -4 -46h-332q8 -40 39.5 -62.5t75.5 -22.5q68 0 118 59l83 -93q-33 -42 -89 -67.5t-129 -25.5q-110 0 -182 70.5t-72 183.5q0 111 70 182.5t178 71.5q107 0 175.5 -70t68.5 -180zM278 374
q-36 0 -61.5 -20.5t-32.5 -58.5l183 1q-8 36 -31 57t-58 21z" />
    <glyph glyph-name="Gcircumflex" unicode="&#x11c;" horiz-adv-x="731" 
d="M385 846l-39 -69h-138l108 153h136l115 -153h-139l-41 69h-2zM387 398h297v-319q-49 -39 -125 -63t-157 -24q-159 0 -262.5 97t-103.5 265q0 159 97 262.5t263 103.5q79 0 156.5 -33t130.5 -94l-119 -100q-72 70 -169 70q-78 0 -131.5 -56.5t-53.5 -152.5q0 -89 52 -149
t140 -60q63 0 121 31v81h-136v141z" />
    <glyph glyph-name="gcircumflex" unicode="&#x11d;" horiz-adv-x="590" 
d="M291 623l-39 -69h-138l108 153h136l115 -153h-139l-41 69h-2zM385 489h157v-425q0 -271 -264 -271q-116 0 -201 47l35 126q72 -42 149 -42q61 0 94.5 26.5t33.5 66.5v46h-3q-50 -53 -134 -53q-99 0 -162.5 68t-63.5 172q0 108 62.5 178.5t155.5 70.5q84 0 140 -59h1v49z
M289 149q45 0 74 29.5t29 75.5t-29.5 75.5t-73.5 29.5q-45 0 -75 -29.5t-30 -75.5q0 -47 30 -76t75 -29z" />
    <glyph glyph-name="Gbreve" unicode="&#x11e;" horiz-adv-x="731" 
d="M387 772q-69 0 -118 42t-54 115h115q2 -24 17 -40t40 -16q24 0 40 15t17 41h115q-5 -68 -51 -112.5t-121 -44.5zM402 -8q-159 0 -262.5 97t-103.5 265q0 159 97 262.5t263 103.5q79 0 156.5 -33t130.5 -94l-119 -100q-72 70 -169 70q-78 0 -131.5 -56.5t-53.5 -152.5
q0 -89 52 -149t140 -60q63 0 121 31v81h-136v141h297v-319q-49 -39 -125 -63t-157 -24z" />
    <glyph glyph-name="gbreve" unicode="&#x11f;" horiz-adv-x="590" 
d="M293 549q-69 0 -118 42t-54 115h115q2 -24 17 -40t40 -16q24 0 40 15t17 41h115q-5 -68 -51 -112.5t-121 -44.5zM385 489h157v-425q0 -271 -264 -271q-116 0 -201 47l35 126q72 -42 149 -42q61 0 94.5 26.5t33.5 66.5v46h-3q-50 -53 -134 -53q-99 0 -162.5 68t-63.5 172
q0 108 62.5 178.5t155.5 70.5q84 0 140 -59h1v49zM289 149q45 0 74 29.5t29 75.5t-29.5 75.5t-73.5 29.5q-45 0 -75 -29.5t-30 -75.5q0 -47 30 -76t75 -29z" />
    <glyph glyph-name="Gdotaccent" unicode="&#x120;" horiz-adv-x="731" 
d="M387 771q-41 0 -69.5 25.5t-28.5 65.5t28.5 65.5t69.5 25.5t69.5 -25.5t28.5 -65.5t-28.5 -65.5t-69.5 -25.5zM402 -8q-159 0 -262.5 97t-103.5 265q0 159 97 262.5t263 103.5q79 0 156.5 -33t130.5 -94l-119 -100q-72 70 -169 70q-78 0 -131.5 -56.5t-53.5 -152.5
q0 -89 52 -149t140 -60q63 0 121 31v81h-136v141h297v-319q-49 -39 -125 -63t-157 -24z" />
    <glyph glyph-name="gdotaccent" unicode="&#x121;" horiz-adv-x="590" 
d="M293 548q-41 0 -69.5 25.5t-28.5 65.5t28.5 65.5t69.5 25.5t69.5 -25.5t28.5 -65.5t-28.5 -65.5t-69.5 -25.5zM385 489h157v-425q0 -271 -264 -271q-116 0 -201 47l35 126q72 -42 149 -42q61 0 94.5 26.5t33.5 66.5v46h-3q-50 -53 -134 -53q-99 0 -162.5 68t-63.5 172
q0 108 62.5 178.5t155.5 70.5q84 0 140 -59h1v49zM289 149q45 0 74 29.5t29 75.5t-29.5 75.5t-73.5 29.5q-45 0 -75 -29.5t-30 -75.5q0 -47 30 -76t75 -29z" />
    <glyph glyph-name="Gcommaaccent" unicode="&#x122;" horiz-adv-x="731" 
d="M402 -8q-159 0 -262.5 97t-103.5 265q0 159 97 262.5t263 103.5q79 0 156.5 -33t130.5 -94l-119 -100q-72 70 -169 70q-78 0 -131.5 -56.5t-53.5 -152.5q0 -89 52 -149t140 -60q63 0 121 31v81h-136v141h297v-319q-49 -39 -125 -63t-157 -24zM304 -221l-29 85
q29 6 41.5 16.5t12.5 30.5q0 13 -6 36h127q5 -16 5 -42q0 -60 -39 -92t-112 -34z" />
    <glyph glyph-name="gcommaaccent" unicode="&#x123;" horiz-adv-x="590" 
d="M359 566h-127q-5 16 -5 42q0 60 39 92t112 34l29 -85q-29 -6 -41.5 -16.5t-12.5 -30.5q0 -14 6 -36zM385 489h157v-425q0 -271 -264 -271q-116 0 -201 47l35 126q72 -42 149 -42q61 0 94.5 26.5t33.5 66.5v46h-3q-50 -53 -134 -53q-99 0 -162.5 68t-63.5 172
q0 108 62.5 178.5t155.5 70.5q84 0 140 -59h1v49zM289 149q45 0 74 29.5t29 75.5t-29.5 75.5t-73.5 29.5q-45 0 -75 -29.5t-30 -75.5q0 -47 30 -76t75 -29z" />
    <glyph glyph-name="Hcircumflex" unicode="&#x124;" horiz-adv-x="711" 
d="M357 847l-39 -69h-138l108 153h136l115 -153h-139l-41 69h-2zM480 710h169v-710h-169v267h-250v-267h-168v710h168v-294h250v294z" />
    <glyph glyph-name="hcircumflex" unicode="&#x125;" horiz-adv-x="583" 
d="M250 858l-39 -69h-138l108 153h136l115 -153h-139l-41 69h-2zM360 499q177 0 177 -204v-295h-157v257q0 57 -19 79.5t-62 22.5t-67 -28t-24 -84v-247h-157v736h157v-304q58 67 152 67z" />
    <glyph glyph-name="Hbar" unicode="&#x126;" horiz-adv-x="715" 
d="M694 608v-95h-43v-513h-169v267h-250v-267h-168v513h-43v95h43v102h168v-102h250v102h169v-102h43zM482 416v97h-250v-97h250z" />
    <glyph glyph-name="hbar" unicode="&#x127;" horiz-adv-x="583" 
d="M360 499q177 0 177 -204v-295h-157v257q0 57 -19 79.5t-62 22.5t-67 -28t-24 -84v-247h-157v544h-52v96h52v96h157v-96h89v-96h-89v-112q58 67 152 67z" />
    <glyph glyph-name="Itilde" unicode="&#x128;" horiz-adv-x="302" 
d="M39 770l-91 39q18 57 50.5 91.5t77.5 34.5q41 0 88 -27q32 -19 50 -19q33 0 56 46l90 -29q-17 -61 -49.5 -98.5t-76.5 -37.5q-42 0 -88 28q-34 19 -52 19q-33 0 -55 -47zM66 0v710h169v-710h-169z" />
    <glyph glyph-name="itilde" unicode="&#x129;" horiz-adv-x="270" 
d="M44 547l-91 39q17 56 48 91t68 35q13 0 23 -1.5t19.5 -5t13.5 -5.5t14 -8t12 -7q30 -19 50 -19q34 0 55 46l90 -29q-17 -61 -49.5 -98.5t-76.5 -37.5q-41 0 -87 28q-5 3 -12 7t-11 6.5t-10 4t-12 1.5q-22 0 -44 -47zM57 0v489h155v-489h-155z" />
    <glyph glyph-name="Imacron" unicode="&#x12a;" horiz-adv-x="302" 
d="M-7 801v121h313v-121h-313zM66 0v710h169v-710h-169z" />
    <glyph glyph-name="imacron" unicode="&#x12b;" horiz-adv-x="270" 
d="M-21 578v121h313v-121h-313zM57 0v489h155v-489h-155z" />
    <glyph glyph-name="Ibreve" unicode="&#x12c;" horiz-adv-x="302" 
d="M149 772q-69 0 -118 42t-54 115h115q2 -24 17 -40t40 -16q24 0 40 15t17 41h115q-5 -68 -51 -112.5t-121 -44.5zM66 0v710h169v-710h-169z" />
    <glyph glyph-name="ibreve" unicode="&#x12d;" horiz-adv-x="270" 
d="M135 549q-63 0 -105 41.5t-47 115.5h112q5 -56 40 -56q16 0 27 15t12 41h113q-6 -70 -45 -113.5t-107 -43.5zM57 0v489h155v-489h-155z" />
    <glyph glyph-name="Iogonek" unicode="&#x12e;" horiz-adv-x="302" 
d="M66 710h169v-710h-20q-40 -1 -65.5 -22t-25.5 -45q0 -38 37 -38q21 0 36 5l7 -80q-29 -11 -76 -11q-55 0 -87.5 26.5t-32.5 67.5q0 24 15 50.5t44 46.5h-1v710z" />
    <glyph glyph-name="iogonek" unicode="&#x12f;" horiz-adv-x="270" 
d="M135 548q-41 0 -69.5 25.5t-28.5 65.5t28.5 65.5t69.5 25.5t69.5 -25.5t28.5 -65.5t-28.5 -65.5t-69.5 -25.5zM57 0v489h155v-489h-7q-40 -1 -65.5 -22t-25.5 -45q0 -38 37 -38q21 0 36 5l7 -80q-29 -11 -76 -11q-55 0 -87.5 26.5t-32.5 67.5q0 24 15.5 51t43.5 46z" />
    <glyph glyph-name="Idotaccent" unicode="&#x130;" horiz-adv-x="302" 
d="M149 771q-41 0 -69.5 25.5t-28.5 65.5t28.5 65.5t69.5 25.5t69.5 -25.5t28.5 -65.5t-28.5 -65.5t-69.5 -25.5zM66 0v710h169v-710h-169z" />
    <glyph glyph-name="dotlessi" unicode="&#x131;" horiz-adv-x="270" 
d="M57 0v489h155v-489h-155z" />
    <glyph glyph-name="IJ" unicode="&#x132;" horiz-adv-x="795" 
d="M66 0v710h169v-710h-169zM511 -10q-57 0 -110.5 24t-88.5 70l96 118q40 -53 91 -53q72 0 72 104v457h168v-453q0 -267 -228 -267z" />
    <glyph glyph-name="ij" unicode="&#x133;" horiz-adv-x="527" 
d="M398 552q-41 0 -69.5 25.5t-28.5 65.5t28.5 65.5t69.5 25.5t69.5 -25.5t28.5 -65.5t-28.5 -65.5t-69.5 -25.5zM135 548q-41 0 -69.5 25.5t-28.5 65.5t28.5 65.5t69.5 25.5t69.5 -25.5t28.5 -65.5t-28.5 -65.5t-69.5 -25.5zM57 0v489h155v-489h-155zM323 -207
q-60 0 -112 18l26 124q19 -9 42 -9q42 0 42 63v500h156v-513q0 -90 -40 -136.5t-114 -46.5z" />
    <glyph glyph-name="Jcircumflex" unicode="&#x134;" horiz-adv-x="493" 
d="M352 847l-39 -69h-138l108 153h136l115 -153h-139l-41 69h-2zM269 253v457h168v-453q0 -267 -228 -267q-57 0 -110.5 24t-88.5 70l96 118q40 -53 91 -53q72 0 72 104z" />
    <glyph glyph-name="jcircumflex" unicode="&#x135;" horiz-adv-x="257" 
d="M126 627l-39 -69h-138l108 153h136l115 -153h-139l-41 69h-2zM51 -11v500h156v-513q0 -90 -40 -136.5t-114 -46.5q-60 0 -112 18l26 124q20 -9 42 -9q42 0 42 63z" />
    <glyph glyph-name="Kcommaaccent" unicode="&#x136;" horiz-adv-x="658" 
d="M392 403l265 -403h-206l-169 268h-1l-52 -63v-205h-167v710h167v-272h2l205 272h211zM269 -53h127q5 -16 5 -42q0 -60 -39 -92t-112 -34l-29 85q29 6 41.5 16.5t12.5 30.5q0 13 -6 36z" />
    <glyph glyph-name="kcommaaccent" unicode="&#x137;" horiz-adv-x="534" 
d="M364 298l172 -298h-173l-102 179h-2l-51 -58v-121h-157v736h157v-409h1l142 162h181zM210 -53h127q5 -16 5 -42q0 -60 -39 -92t-112 -34l-29 85q29 6 41.5 16.5t12.5 30.5q0 13 -6 36z" />
    <glyph glyph-name="kgreenlandic" unicode="&#x138;" horiz-adv-x="534" 
d="M261 179h-2l-51 -58v-121h-157v489h157v-162h2l141 162h181l-168 -190l173 -299h-174z" />
    <glyph glyph-name="Lacute" unicode="&#x139;" horiz-adv-x="549" 
d="M171 780l112 150l159 1l-124 -151h-147zM62 0v710h168v-561h298v-149h-466z" />
    <glyph glyph-name="lacute" unicode="&#x13a;" horiz-adv-x="270" 
d="M59 793l112 150l159 1l-124 -151h-147zM57 0v736h155v-736h-155z" />
    <glyph glyph-name="Lcommaaccent" unicode="&#x13b;" horiz-adv-x="549" 
d="M62 0v710h168v-561h298v-149h-466zM209 -221l-29 85q29 6 41.5 16.5t12.5 30.5q0 13 -6 36h127q5 -16 5 -42q0 -60 -39 -92t-112 -34z" />
    <glyph glyph-name="lcommaaccent" unicode="&#x13c;" horiz-adv-x="270" 
d="M57 0v736h155v-736h-155zM49 -221l-29 85q29 6 41.5 16.5t12.5 30.5q0 13 -6 36h127q5 -16 5 -42q0 -60 -39 -92t-112 -34z" />
    <glyph glyph-name="Lcaron" unicode="&#x13d;" horiz-adv-x="549" 
d="M334 576l33 217h147l-71 -217h-109zM62 0v710h168v-561h298v-149h-466z" />
    <glyph glyph-name="lcaron" unicode="&#x13e;" horiz-adv-x="335" 
d="M269 576l33 217h147l-71 -217h-109zM57 0v736h155v-736h-155z" />
    <glyph glyph-name="Ldot" unicode="&#x13f;" horiz-adv-x="549" 
d="M62 0v710h168v-561h298v-149h-466zM435 250q-39 0 -66 27t-27 65q0 37 27 64t66 27q37 0 64.5 -27t27.5 -64q0 -38 -27 -65t-65 -27z" />
    <glyph glyph-name="ldot" unicode="&#x140;" horiz-adv-x="492" 
d="M57 0v736h155v-736h-155zM388 166q-39 0 -66 27t-27 65q0 37 27 64t66 27q37 0 64.5 -27t27.5 -64q0 -38 -27 -65t-65 -27z" />
    <glyph glyph-name="Lslash" unicode="&#x141;" horiz-adv-x="555" 
d="M236 149h298v-149h-466v255l-60 -28v134l60 28v321h168v-241l78 37v-135l-78 -37v-185z" />
    <glyph glyph-name="lslash" unicode="&#x142;" horiz-adv-x="302" 
d="M285 457v-138l-58 -28v-291h-155v218l-52 -25v138l52 25v380h155v-307z" />
    <glyph glyph-name="Nacute" unicode="&#x143;" horiz-adv-x="734" 
d="M526 931l-124 -151h-147l112 150zM505 710h167v-710h-172l-270 426h-1v-426h-167v710h167l276 -437v437z" />
    <glyph glyph-name="nacute" unicode="&#x144;" horiz-adv-x="578" 
d="M465 706l-124 -151h-147l112 150zM356 499q176 0 176 -206v-293h-157v255q0 58 -18.5 81t-59.5 23t-65 -29t-24 -84v-246h-157v489h157v-59q60 69 148 69z" />
    <glyph glyph-name="Ncommaaccent" unicode="&#x145;" horiz-adv-x="734" 
d="M505 710h167v-710h-172l-270 426h-1v-426h-167v710h167l276 -437v437zM300 -53h127q5 -16 5 -42q0 -60 -39 -92t-112 -34l-29 85q29 6 41.5 16.5t12.5 30.5q0 13 -6 36z" />
    <glyph glyph-name="ncommaaccent" unicode="&#x146;" horiz-adv-x="578" 
d="M356 499q176 0 176 -206v-293h-157v255q0 58 -18.5 81t-59.5 23t-65 -29t-24 -84v-246h-157v489h157v-59q60 69 148 69zM220 -53h127q5 -16 5 -42q0 -60 -39 -92t-112 -34l-29 85q29 6 41.5 16.5t12.5 30.5q0 13 -6 36z" />
    <glyph glyph-name="Ncaron" unicode="&#x147;" horiz-adv-x="734" 
d="M439 778h-136l-112 153h139l38 -68h4l40 68h138zM505 710h167v-710h-172l-270 426h-1v-426h-167v710h167l276 -437v437z" />
    <glyph glyph-name="ncaron" unicode="&#x148;" horiz-adv-x="578" 
d="M364 554h-136l-112 153h139l38 -68h4l40 68h138zM356 499q176 0 176 -206v-293h-157v255q0 58 -18.5 81t-59.5 23t-65 -29t-24 -84v-246h-157v489h157v-59q60 69 148 69z" />
    <glyph glyph-name="napostrophe" unicode="&#x149;" horiz-adv-x="706" 
d="M-29 483l33 227h147l-71 -227h-109zM484 499q176 0 176 -206v-293h-157v255q0 58 -18.5 81t-59.5 23t-65 -29t-24 -84v-246h-157v489h157v-59q60 69 148 69z" />
    <glyph glyph-name="Eng" unicode="&#x14a;" horiz-adv-x="735" 
d="M673 710v-650l-1 -1v-77q0 -92 -41.5 -140.5t-121.5 -48.5q-60 0 -112 18l26 119q21 -9 42 -9q42 0 42 63v5l-278 439h-1v-428h-166v710h167l275 -439h2v439h167z" />
    <glyph glyph-name="eng" unicode="&#x14b;" horiz-adv-x="563" 
d="M354 499q74 0 119 -51t45 -160v-306q0 -91 -40.5 -140t-113.5 -49q-62 0 -112 18l26 119q20 -9 42 -9q41 0 41 63v270q0 57 -15 81t-53 24q-36 0 -60.5 -30t-24.5 -84v-245h-157v489h157v-59h2q57 69 144 69z" />
    <glyph glyph-name="Omacron" unicode="&#x14c;" horiz-adv-x="802" 
d="M246 802v121h313v-121h-313zM402 -10q-162 0 -264 102.5t-102 262.5q0 161 102 263t264 102q160 0 262 -101t102 -264q0 -162 -102 -263.5t-262 -101.5zM402 146q82 0 136 60t54 149q0 90 -54 149.5t-136 59.5q-84 0 -138 -60t-54 -149q0 -88 54 -148.5t138 -60.5z" />
    <glyph glyph-name="omacron" unicode="&#x14d;" horiz-adv-x="583" 
d="M136 578v121h313v-121h-313zM292 -10q-117 0 -190.5 71t-73.5 183t73.5 183.5t190.5 71.5q116 0 190 -71t74 -184q0 -112 -74 -183t-190 -71zM292 129q45 0 75.5 32.5t30.5 82.5q0 51 -30 83t-76 32q-47 0 -76.5 -32.5t-29.5 -82.5q0 -49 30 -82t76 -33z" />
    <glyph glyph-name="Obreve" unicode="&#x14e;" horiz-adv-x="802" 
d="M402 773q-69 0 -118 42t-54 115h115q2 -24 17 -40t40 -16q24 0 40 15t17 41h115q-5 -68 -51 -112.5t-121 -44.5zM402 -10q-162 0 -264 102.5t-102 262.5q0 161 102 263t264 102q160 0 262 -101t102 -264q0 -162 -102 -263.5t-262 -101.5zM402 146q82 0 136 60t54 149
q0 90 -54 149.5t-136 59.5q-84 0 -138 -60t-54 -149q0 -88 54 -148.5t138 -60.5z" />
    <glyph glyph-name="obreve" unicode="&#x14f;" horiz-adv-x="583" 
d="M292 549q-69 0 -118 42t-54 115h115q2 -24 17 -40t40 -16q24 0 40 15t17 41h115q-5 -68 -51 -112.5t-121 -44.5zM292 -10q-117 0 -190.5 71t-73.5 183t73.5 183.5t190.5 71.5q116 0 190 -71t74 -184q0 -112 -74 -183t-190 -71zM292 129q45 0 75.5 32.5t30.5 82.5
q0 51 -30 83t-76 32q-47 0 -76.5 -32.5t-29.5 -82.5q0 -49 30 -82t76 -33z" />
    <glyph glyph-name="Ohungarumlaut" unicode="&#x150;" horiz-adv-x="802" 
d="M222 780l111 150l154 1l-123 -151h-142zM444 780l111 150l154 1l-123 -151h-142zM402 -10q-162 0 -264 102.5t-102 262.5q0 161 102 263t264 102q160 0 262 -101t102 -264q0 -162 -102 -263.5t-262 -101.5zM402 146q82 0 136 60t54 149q0 90 -54 149.5t-136 59.5
q-84 0 -138 -60t-54 -149q0 -88 54 -148.5t138 -60.5z" />
    <glyph glyph-name="ohungarumlaut" unicode="&#x151;" horiz-adv-x="583" 
d="M96 555l111 150l154 1l-123 -151h-142zM318 555l111 150l154 1l-123 -151h-142zM292 -10q-117 0 -190.5 71t-73.5 183t73.5 183.5t190.5 71.5q116 0 190 -71t74 -184q0 -112 -74 -183t-190 -71zM292 129q45 0 75.5 32.5t30.5 82.5q0 51 -30 83t-76 32q-47 0 -76.5 -32.5
t-29.5 -82.5q0 -49 30 -82t76 -33z" />
    <glyph glyph-name="OE" unicode="&#x152;" horiz-adv-x="946" 
d="M592 149h319v-149h-511q-161 0 -262.5 100.5t-101.5 254.5t101.5 255t262.5 100h491v-148h-299v-138h239v-144h-239v-131zM400 155h31v400h-31q-81 0 -135.5 -58t-54.5 -142t54.5 -142.5t135.5 -57.5z" />
    <glyph glyph-name="oe" unicode="&#x153;" horiz-adv-x="812" 
d="M789 247q0 -24 -4 -46h-296q21 -82 96 -82q50 0 84 40l100 -76q-72 -93 -194 -93q-99 0 -164 65h-1q-63 -65 -154 -65q-101 0 -164.5 70t-63.5 184q0 113 66 184t167 71q85 0 147 -62h4q64 62 160 62q94 0 155.5 -71.5t61.5 -180.5zM571 372q-67 0 -83 -79h154
q-6 38 -25 58.5t-46 20.5zM259 129q33 0 55.5 32.5t22.5 82.5q0 51 -21 83t-55 32q-31 0 -53 -32t-22 -83t20.5 -83t52.5 -32z" />
    <glyph glyph-name="Racute" unicode="&#x154;" horiz-adv-x="644" 
d="M469 931l-124 -151h-147l112 150zM627 0h-196l-146 229h-58v-229h-165v710h277q126 0 190 -67t64 -178q0 -158 -132 -213v-2zM227 563v-188h77q53 0 84 25t31 69q0 41 -29 67.5t-83 26.5h-80z" />
    <glyph glyph-name="racute" unicode="&#x155;" horiz-adv-x="367" 
d="M376 707l-124 -151h-147l112 150zM209 423q56 76 142 76q4 0 5 -1v-168q-14 1 -36 1q-54 0 -83 -30.5t-29 -80.5v-220h-157v489h157v-66h1z" />
    <glyph glyph-name="Rcommaaccent" unicode="&#x156;" horiz-adv-x="644" 
d="M461 250l166 -250h-196l-146 229h-58v-229h-165v710h277q126 0 190 -67t64 -178q0 -158 -132 -213v-2zM227 563v-188h77q53 0 84 25t31 69q0 41 -29 67.5t-83 26.5h-80zM257 -53h127q5 -16 5 -42q0 -60 -39 -92t-112 -34l-29 85q29 6 41.5 16.5t12.5 30.5q0 13 -6 36z
" />
    <glyph glyph-name="rcommaaccent" unicode="&#x157;" horiz-adv-x="367" 
d="M351 499q4 0 5 -1v-168q-14 1 -36 1q-54 0 -83 -30.5t-29 -80.5v-220h-157v489h157v-66h1q56 76 142 76zM64 -53h127q5 -16 5 -42q0 -60 -39 -92t-112 -34l-29 85q29 6 41.5 16.5t12.5 30.5q0 13 -6 36z" />
    <glyph glyph-name="Rcaron" unicode="&#x158;" horiz-adv-x="644" 
d="M382 778h-136l-112 153h139l38 -68h4l40 68h138zM627 0h-196l-146 229h-58v-229h-165v710h277q126 0 190 -67t64 -178q0 -158 -132 -213v-2zM227 563v-188h77q53 0 84 25t31 69q0 41 -29 67.5t-83 26.5h-80z" />
    <glyph glyph-name="rcaron" unicode="&#x159;" horiz-adv-x="367" 
d="M289 554h-136l-112 153h139l38 -68h4l40 68h138zM209 423q56 76 142 76q4 0 5 -1v-168q-14 1 -36 1q-54 0 -83 -30.5t-29 -80.5v-220h-157v489h157v-66h1z" />
    <glyph glyph-name="Sacute" unicode="&#x15a;" horiz-adv-x="565" 
d="M201 780l112 150l159 1l-124 -151h-147zM279 -10q-149 0 -262 114l99 122q78 -85 167 -85q80 0 80 58q0 29 -22 45.5t-84 37.5q-48 16 -80.5 32t-66.5 42.5t-51 64.5t-17 88q0 88 67.5 148.5t164.5 62.5q135 1 247 -93l-95 -124q-85 68 -146 68q-30 0 -47.5 -15
t-17.5 -40q-1 -23 20.5 -39t82.5 -39q32 -12 41 -15.5t36.5 -15t36 -17t29 -18t27.5 -21.5t20 -24.5t17.5 -30.5t8.5 -35t4 -43q0 -48 -16 -87.5t-42 -65t-60.5 -43t-69.5 -25t-71 -7.5z" />
    <glyph glyph-name="sacute" unicode="&#x15b;" horiz-adv-x="436" 
d="M127 555l112 150l159 1l-124 -151h-147zM215 -10q-119 0 -201 73l74 105q59 -56 128 -56q44 0 44 28q0 18 -75 41q-71 23 -112 60t-41 103q0 70 52.5 112.5t131.5 42.5q100 0 184 -62l-74 -112q-52 51 -111 51q-34 0 -34 -25q0 -17 64 -41q48 -17 72.5 -28.5t49.5 -30
t35 -43t10 -60.5q0 -71 -50.5 -114.5t-146.5 -43.5z" />
    <glyph glyph-name="Scircumflex" unicode="&#x15c;" horiz-adv-x="565" 
d="M279 847l-39 -69h-138l108 153h136l115 -153h-139l-41 69h-2zM318 438q32 -12 41 -15.5t36.5 -15t36 -17t29 -18t27.5 -21.5t20 -24.5t17.5 -30.5t8.5 -35t4 -43q0 -48 -16 -87.5t-42 -65t-60.5 -43t-69.5 -25t-71 -7.5q-149 0 -262 114l99 122q78 -85 167 -85
q80 0 80 58q0 29 -22 45.5t-84 37.5q-48 16 -80.5 32t-66.5 42.5t-51 64.5t-17 88q0 88 67.5 148.5t164.5 62.5q135 1 247 -93l-95 -124q-85 68 -146 68q-30 0 -47.5 -15t-17.5 -40q-1 -23 20.5 -39t82.5 -39z" />
    <glyph glyph-name="scircumflex" unicode="&#x15d;" horiz-adv-x="436" 
d="M220 623l-39 -69h-138l108 153h136l115 -153h-139l-41 69h-2zM245 310q48 -17 72.5 -28.5t49.5 -30t35 -43t10 -60.5q0 -71 -50.5 -114.5t-146.5 -43.5q-119 0 -201 73l74 105q59 -56 128 -56q44 0 44 28q0 18 -75 41q-71 23 -112 60t-41 103q0 70 52.5 112.5t131.5 42.5
q100 0 184 -62l-74 -112q-52 51 -111 51q-34 0 -34 -25q0 -17 64 -41z" />
    <glyph glyph-name="Scedilla" unicode="&#x15e;" horiz-adv-x="565" 
d="M538 218q0 -57 -21.5 -101t-57.5 -70t-77 -40t-85 -17l-12 -20q44 -2 68.5 -22.5t24.5 -58.5q0 -81 -127 -81q-24 0 -64 5v64q23 -7 53 -7q44 0 44 26q0 31 -79 31v37l16 31q-116 19 -204 109l99 122q78 -85 167 -85q80 0 80 58q0 29 -22 45.5t-84 37.5q-48 16 -80.5 32
t-66.5 42.5t-51 64.5t-17 88q0 88 67.5 148.5t164.5 62.5q135 1 247 -93l-95 -124q-85 68 -146 68q-30 0 -47.5 -15t-17.5 -40q-1 -23 20.5 -39t82.5 -39q32 -12 41 -15.5t36.5 -15t36 -17t29 -18t27.5 -21.5t20 -24.5t17.5 -30.5t8.5 -35t4 -43z" />
    <glyph glyph-name="scedilla" unicode="&#x15f;" horiz-adv-x="436" 
d="M412 148q0 -67 -46 -110.5t-134 -47.5l-12 -20q44 -2 68.5 -22.5t24.5 -58.5q0 -81 -127 -81q-24 0 -64 5v64q23 -7 53 -7q44 0 44 26q0 31 -79 31v37l16 31q-80 14 -142 68l74 105q59 -56 128 -56q44 0 44 28q0 18 -75 41q-71 23 -112 60t-41 103q0 70 52.5 112.5
t131.5 42.5q100 0 184 -62l-74 -112q-52 51 -111 51q-34 0 -34 -25q0 -17 64 -41q48 -17 72.5 -28.5t49.5 -30t35 -43t10 -60.5z" />
    <glyph glyph-name="Scaron" unicode="&#x160;" horiz-adv-x="565" 
d="M350 778h-136l-112 153h139l38 -68h4l40 68h138zM318 438q32 -12 41 -15.5t36.5 -15t36 -17t29 -18t27.5 -21.5t20 -24.5t17.5 -30.5t8.5 -35t4 -43q0 -48 -16 -87.5t-42 -65t-60.5 -43t-69.5 -25t-71 -7.5q-149 0 -262 114l99 122q78 -85 167 -85q80 0 80 58
q0 29 -22 45.5t-84 37.5q-48 16 -80.5 32t-66.5 42.5t-51 64.5t-17 88q0 88 67.5 148.5t164.5 62.5q135 1 247 -93l-95 -124q-85 68 -146 68q-30 0 -47.5 -15t-17.5 -40q-1 -23 20.5 -39t82.5 -39z" />
    <glyph glyph-name="scaron" unicode="&#x161;" horiz-adv-x="436" 
d="M291 554h-136l-112 153h139l38 -68h4l40 68h138zM245 310q48 -17 72.5 -28.5t49.5 -30t35 -43t10 -60.5q0 -71 -50.5 -114.5t-146.5 -43.5q-119 0 -201 73l74 105q59 -56 128 -56q44 0 44 28q0 18 -75 41q-71 23 -112 60t-41 103q0 70 52.5 112.5t131.5 42.5
q100 0 184 -62l-74 -112q-52 51 -111 51q-34 0 -34 -25q0 -17 64 -41z" />
    <glyph glyph-name="uni0162" unicode="&#x162;" horiz-adv-x="582" 
d="M374 0h-66l-18 -30q44 -2 68.5 -22.5t24.5 -58.5q0 -81 -127 -81q-24 0 -64 5v64q23 -7 53 -7q44 0 44 26q0 31 -79 31v37l19 36h-21v561h-188v149h542v-149h-188v-561z" />
    <glyph glyph-name="uni0163" unicode="&#x163;" horiz-adv-x="369" 
d="M201 -30q44 -2 68.5 -22.5t24.5 -58.5q0 -81 -127 -81q-24 0 -64 5v64q23 -7 53 -7q44 0 44 26q0 31 -79 31v37l22 41q-76 37 -76 149v208h-55v127h55v157l157 16v-173h118v-127h-118v-179q0 -56 37 -56q23 0 48 13l39 -116q-59 -33 -135 -33z" />
    <glyph glyph-name="Tcaron" unicode="&#x164;" horiz-adv-x="582" 
d="M359 778h-136l-112 153h139l38 -68h4l40 68h138zM20 710h542v-149h-188v-561h-166v561h-188v149z" />
    <glyph glyph-name="tcaron" unicode="&#x165;" horiz-adv-x="369" 
d="M264 576l33 217h147l-71 -217h-109zM211 -9q-66 0 -105 41.5t-39 121.5v208h-55v127h55v157l157 16v-173h118v-127h-118v-179q0 -56 37 -56q23 0 48 13l39 -116q-59 -33 -137 -33z" />
    <glyph glyph-name="Tbar" unicode="&#x166;" horiz-adv-x="582" 
d="M562 561h-188v-144h118v-127h-118v-290h-166v290h-111v127h111v144h-188v149h542v-149z" />
    <glyph glyph-name="tbar" unicode="&#x167;" horiz-adv-x="369" 
d="M309 140l39 -116q-59 -33 -137 -33q-66 0 -105 41.5t-39 121.5v56h-47v95h47v57h-55v127h55v157l157 16v-173h118v-127h-118v-57h94v-95h-94v-27q0 -56 37 -56q23 0 48 13z" />
    <glyph glyph-name="Utilde" unicode="&#x168;" horiz-adv-x="696" 
d="M238 771l-91 39q18 57 50.5 91.5t77.5 34.5q41 0 88 -27q32 -19 50 -19q33 0 56 46l90 -29q-17 -61 -49.5 -98.5t-76.5 -37.5q-42 0 -88 28q-34 19 -52 19q-33 0 -55 -47zM347 -10q-134 0 -213.5 80.5t-79.5 225.5v414h169v-403q0 -69 32.5 -114.5t91.5 -45.5
q56 0 91.5 43t35.5 117v403h168v-414q0 -141 -77.5 -223.5t-217.5 -82.5z" />
    <glyph glyph-name="utilde" unicode="&#x169;" horiz-adv-x="566" 
d="M229 594q-33 0 -55 -47l-91 39q18 57 50.5 91.5t77.5 34.5q41 0 88 -27q32 -19 50 -19q33 0 56 46l90 -29q-17 -61 -49.5 -98.5t-76.5 -37.5q-42 0 -88 28q-34 19 -52 19zM361 489h157v-489h-157v55h-3q-53 -64 -138 -64q-176 0 -176 208v290h156v-251q0 -59 17.5 -83.5
t57.5 -24.5q37 0 61.5 30t24.5 87v242z" />
    <glyph glyph-name="Umacron" unicode="&#x16a;" horiz-adv-x="696" 
d="M192 802v121h313v-121h-313zM347 -10q-134 0 -213.5 80.5t-79.5 225.5v414h169v-403q0 -69 32.5 -114.5t91.5 -45.5q56 0 91.5 43t35.5 117v403h168v-414q0 -141 -77.5 -223.5t-217.5 -82.5z" />
    <glyph glyph-name="umacron" unicode="&#x16b;" horiz-adv-x="566" 
d="M441 699v-121h-313v121h313zM361 489h157v-489h-157v55h-3q-53 -64 -138 -64q-176 0 -176 208v290h156v-251q0 -59 17.5 -83.5t57.5 -24.5q37 0 61.5 30t24.5 87v242z" />
    <glyph glyph-name="Ubreve" unicode="&#x16c;" horiz-adv-x="696" 
d="M348 773q-69 0 -118 42t-54 115h115q2 -24 17 -40t40 -16q24 0 40 15t17 41h115q-5 -68 -51 -112.5t-121 -44.5zM347 -10q-134 0 -213.5 80.5t-79.5 225.5v414h169v-403q0 -69 32.5 -114.5t91.5 -45.5q56 0 91.5 43t35.5 117v403h168v-414q0 -141 -77.5 -223.5
t-217.5 -82.5z" />
    <glyph glyph-name="ubreve" unicode="&#x16d;" horiz-adv-x="566" 
d="M284 549q-69 0 -118 42t-54 115h115q2 -24 17 -40t40 -16q24 0 40 15t17 41h115q-5 -68 -51 -112.5t-121 -44.5zM361 489h157v-489h-157v55h-3q-53 -64 -138 -64q-176 0 -176 208v290h156v-251q0 -59 17.5 -83.5t57.5 -24.5q37 0 61.5 30t24.5 87v242z" />
    <glyph glyph-name="Uring" unicode="&#x16e;" horiz-adv-x="696" 
d="M348 755q-47 0 -80 31.5t-33 78.5q0 46 31.5 77.5t81.5 31.5q47 0 80 -31t33 -78q0 -46 -31.5 -78t-81.5 -32zM347 831q16 0 26 10.5t10 25.5q0 14 -10.5 24t-25.5 10q-14 0 -24 -10.5t-10 -24.5q0 -15 10 -25t24 -10zM347 -10q-134 0 -213.5 80.5t-79.5 225.5v414h169
v-403q0 -69 32.5 -114.5t91.5 -45.5q56 0 91.5 43t35.5 117v403h168v-414q0 -141 -77.5 -223.5t-217.5 -82.5z" />
    <glyph glyph-name="uring" unicode="&#x16f;" horiz-adv-x="566" 
d="M284 531q-47 0 -80 31.5t-33 78.5q0 46 31.5 77.5t81.5 31.5q47 0 80 -31t33 -78q0 -46 -31.5 -78t-81.5 -32zM283 677q-14 0 -24 -10.5t-10 -24.5q0 -15 10 -25t24 -10q16 0 26 10.5t10 25.5q0 14 -10.5 24t-25.5 10zM361 489h157v-489h-157v55h-3q-53 -64 -138 -64
q-176 0 -176 208v290h156v-251q0 -59 17.5 -83.5t57.5 -24.5q37 0 61.5 30t24.5 87v242z" />
    <glyph glyph-name="Uhungarumlaut" unicode="&#x170;" horiz-adv-x="696" 
d="M157 780l111 150l154 1l-123 -151h-142zM379 780l111 150l154 1l-123 -151h-142zM347 -10q-134 0 -213.5 80.5t-79.5 225.5v414h169v-403q0 -69 32.5 -114.5t91.5 -45.5q56 0 91.5 43t35.5 117v403h168v-414q0 -141 -77.5 -223.5t-217.5 -82.5z" />
    <glyph glyph-name="uhungarumlaut" unicode="&#x171;" horiz-adv-x="566" 
d="M360 706l-123 -151h-142l111 150zM459 555h-142l111 150l154 1zM361 247v242h157v-489h-157v55h-3q-53 -64 -138 -64q-176 0 -176 208v290h156v-251q0 -59 17.5 -83.5t57.5 -24.5q37 0 61.5 30t24.5 87z" />
    <glyph glyph-name="Uogonek" unicode="&#x172;" horiz-adv-x="696" 
d="M474 710h168v-414q0 -112 -50 -188t-142 -104h1q-36 -8 -62 -27.5t-26 -45.5q0 -15 10 -24.5t27 -9.5q18 0 36 6l7 -80q-28 -12 -75 -12q-55 0 -87.5 26.5t-32.5 68.5q0 48 45 86v2q-111 15 -175 93.5t-64 208.5v414h169v-403q0 -69 32.5 -114.5t91.5 -45.5q56 0 91.5 43
t35.5 117v403z" />
    <glyph glyph-name="uogonek" unicode="&#x173;" horiz-adv-x="566" 
d="M361 489h157v-489h-10q-40 -1 -65.5 -22t-25.5 -45q0 -38 37 -38q21 0 36 5l7 -80q-29 -11 -76 -11q-55 0 -87.5 26.5t-32.5 67.5q0 57 60 98v54h-3q-53 -64 -138 -64q-176 0 -176 208v290h156v-251q0 -59 17.5 -83.5t57.5 -24.5q37 0 61.5 30t24.5 87v242z" />
    <glyph glyph-name="Wcircumflex" unicode="&#x174;" horiz-adv-x="1021" 
d="M510 847l-39 -69h-138l108 153h136l115 -153h-139l-41 69h-2zM829 710h178l-222 -710h-153l-119 467h-1l-124 -467h-153l-222 710h178l120 -436h2l110 436h176l108 -436h2z" />
    <glyph glyph-name="wcircumflex" unicode="&#x175;" horiz-adv-x="761" 
d="M378 623l-39 -69h-138l108 153h136l115 -153h-139l-41 69h-2zM597 489h155l-166 -489h-130l-76 273h-1l-74 -273h-131l-165 489h156l80 -262h2l72 262h122l73 -263h2z" />
    <glyph glyph-name="Ycircumflex" unicode="&#x176;" horiz-adv-x="631" 
d="M314 847l-39 -69h-138l108 153h136l115 -153h-139l-41 69h-2zM439 710h194l-234 -401v-309h-169v309l-232 401h191l124 -235h4z" />
    <glyph glyph-name="ycircumflex" unicode="&#x177;" horiz-adv-x="532" 
d="M266 623l-39 -69h-138l108 153h136l115 -153h-139l-41 69h-2zM365 489h160l-257 -687h-155l85 231l-191 456h162l99 -265h3z" />
    <glyph glyph-name="Ydieresis" unicode="&#x178;" horiz-adv-x="631" 
d="M204 772q-41 0 -69.5 25.5t-28.5 65.5t28.5 65.5t69.5 25.5t69 -25.5t28 -65.5t-28 -65.5t-69 -25.5zM427 772q-41 0 -69.5 25.5t-28.5 65.5t28.5 65.5t69.5 25.5t69.5 -25.5t28.5 -65.5t-28.5 -65.5t-69.5 -25.5zM439 710h194l-234 -401v-309h-169v309l-232 401h191
l124 -235h4z" />
    <glyph glyph-name="Zacute" unicode="&#x179;" horiz-adv-x="609" 
d="M459 931l-124 -151h-147l112 150zM569 583l-316 -431v-3h316v-149h-530v130l307 428v3h-296v149h519v-127z" />
    <glyph glyph-name="zacute" unicode="&#x17a;" horiz-adv-x="474" 
d="M396 707l-124 -151h-147l112 150zM448 386l-216 -257v-3h208v-126h-413v104l211 256v4h-192v125h402v-103z" />
    <glyph glyph-name="Zdotaccent" unicode="&#x17b;" horiz-adv-x="609" 
d="M303 772q-41 0 -69.5 25.5t-28.5 65.5t28.5 65.5t69.5 25.5t69.5 -25.5t28.5 -65.5t-28.5 -65.5t-69.5 -25.5zM569 583l-316 -431v-3h316v-149h-530v130l307 428v3h-296v149h519v-127z" />
    <glyph glyph-name="zdotaccent" unicode="&#x17c;" horiz-adv-x="474" 
d="M240 548q-41 0 -69.5 25.5t-28.5 65.5t28.5 65.5t69.5 25.5t69.5 -25.5t28.5 -65.5t-28.5 -65.5t-69.5 -25.5zM448 386l-216 -257v-3h208v-126h-413v104l211 256v4h-192v125h402v-103z" />
    <glyph glyph-name="Zcaron" unicode="&#x17d;" horiz-adv-x="609" 
d="M372 778h-136l-112 153h139l38 -68h4l40 68h138zM569 583l-316 -431v-3h316v-149h-530v130l307 428v3h-296v149h519v-127z" />
    <glyph glyph-name="zcaron" unicode="&#x17e;" horiz-adv-x="474" 
d="M309 554h-136l-112 153h139l38 -68h4l40 68h138zM448 386l-216 -257v-3h208v-126h-413v104l211 256v4h-192v125h402v-103z" />
    <glyph glyph-name="longs" unicode="&#x17f;" horiz-adv-x="340" 
d="M69 0v362h-48v127h48v76q0 89 42.5 135t117.5 46q78 0 132 -38l-28 -112q-37 17 -62 17q-46 0 -46 -53v-560h-156z" />
    <glyph glyph-name="uni018F" unicode="&#x18f;" horiz-adv-x="716" 
d="M331 720q156 0 252.5 -101t96.5 -267q0 -159 -91 -260t-233 -101q-145 0 -233.5 96.5t-88.5 255.5q0 36 4 54h470q-11 77 -56 122.5t-112 45.5q-80 0 -150 -38l-81 136q107 57 222 57zM350 146q52 0 90.5 29.5t56.5 82.5h-291q17 -52 54 -82t90 -30z" />
    <glyph glyph-name="florin" unicode="&#x192;" horiz-adv-x="542" 
d="M103 -168q-60 0 -100 14t-54 29l52 104q43 -12 71 -12q59 0 70 80l37 295h-74l18 128h74l13 98q23 178 195 178q103 0 154 -44l-54 -104q-50 12 -70 12q-30 0 -47 -18.5t-22 -62.5l-8 -59h125l-18 -128h-125l-43 -333q-24 -177 -194 -177z" />
    <glyph glyph-name="uni019D" unicode="&#x19d;" horiz-adv-x="734" 
d="M505 710h167v-710h-172l-270 426h-1v-444q0 -92 -42 -140.5t-123 -48.5q-60 0 -112 18l26 119q19 -9 43 -9q41 0 41 63v726h167l276 -437v437z" />
    <glyph glyph-name="Ohorn" unicode="&#x1a0;" horiz-adv-x="848" 
d="M714 774h133v-76q0 -138 -117 -172v-1q36 -77 36 -170q0 -162 -102 -263.5t-262 -101.5q-162 0 -264 102.5t-102 262.5q0 161 102 263t264 102q178 0 281 -122q19 12 25 34.5t6 62.5v79zM402 146q82 0 136 60t54 149q0 90 -54 149.5t-136 59.5q-84 0 -138 -60t-54 -149
q0 -88 54 -148.5t138 -60.5z" />
    <glyph glyph-name="ohorn" unicode="&#x1a1;" horiz-adv-x="677" 
d="M539 565h133v-76q0 -144 -125 -174q9 -33 9 -71q0 -112 -74 -183t-190 -71q-117 0 -190.5 71t-73.5 183t73.5 183.5t190.5 71.5q71 0 128.5 -28t91.5 -79q27 20 27 94v79zM292 129q45 0 75.5 32.5t30.5 82.5q0 51 -30 83t-76 32q-47 0 -76.5 -32.5t-29.5 -82.5
q0 -49 30 -82t76 -33z" />
    <glyph glyph-name="Uhorn" unicode="&#x1af;" horiz-adv-x="824" 
d="M705 774h133v-76q0 -92 -52 -137.5t-144 -43.5v-221q0 -141 -77.5 -223.5t-217.5 -82.5q-134 0 -213.5 80.5t-79.5 225.5v414h169v-403q0 -69 32.5 -114.5t91.5 -45.5q56 0 91.5 43t35.5 117v403h168v-123q40 7 51.5 31.5t11.5 76.5v79z" />
    <glyph glyph-name="uhorn" unicode="&#x1b0;" horiz-adv-x="705" 
d="M570 565h133v-76q0 -89 -49 -134t-136 -47v-308h-157v55h-3q-53 -64 -138 -64q-176 0 -176 208v290h156v-251q0 -59 17.5 -83.5t57.5 -24.5q37 0 61.5 30t24.5 87v242h157v-109q33 9 42.5 33t9.5 73v79z" />
    <glyph glyph-name="Gcaron" unicode="&#x1e6;" horiz-adv-x="731" 
d="M454 777h-136l-112 153h139l38 -68h4l40 68h138zM387 398h297v-319q-49 -39 -125 -63t-157 -24q-159 0 -262.5 97t-103.5 265q0 159 97 262.5t263 103.5q79 0 156.5 -33t130.5 -94l-119 -100q-72 70 -169 70q-78 0 -131.5 -56.5t-53.5 -152.5q0 -89 52 -149t140 -60
q63 0 121 31v81h-136v141z" />
    <glyph glyph-name="gcaron" unicode="&#x1e7;" horiz-adv-x="590" 
d="M360 554h-136l-112 153h139l38 -68h4l40 68h138zM385 489h157v-425q0 -271 -264 -271q-116 0 -201 47l35 126q72 -42 149 -42q61 0 94.5 26.5t33.5 66.5v46h-3q-50 -53 -134 -53q-99 0 -162.5 68t-63.5 172q0 108 62.5 178.5t155.5 70.5q84 0 140 -59h1v49zM289 149
q45 0 74 29.5t29 75.5t-29.5 75.5t-73.5 29.5q-45 0 -75 -29.5t-30 -75.5q0 -47 30 -76t75 -29z" />
    <glyph glyph-name="uni01EA" unicode="&#x1ea;" horiz-adv-x="802" 
d="M458 -6q-25 -9 -40 -26.5t-15 -34.5q0 -38 37 -38q21 0 36 5l7 -80q-29 -11 -76 -11q-55 0 -87.5 26.5t-32.5 67.5q0 50 48 89v3q-135 21 -217 119.5t-82 240.5q0 161 102 263t264 102q160 0 262 -101t102 -264q0 -147 -85 -245.5t-223 -115.5zM210 355q0 -88 54 -148.5
t138 -60.5q82 0 136 60t54 149q0 90 -54 149.5t-136 59.5q-84 0 -138 -60t-54 -149z" />
    <glyph glyph-name="uni01EB" unicode="&#x1eb;" horiz-adv-x="583" 
d="M326 -8q-23 -9 -36.5 -26t-13.5 -33q0 -38 37 -38q21 0 36 5l7 -80q-29 -11 -76 -11q-55 0 -87.5 26.5t-32.5 67.5q0 53 54 94v3q-85 22 -135.5 87.5t-50.5 156.5q0 112 73.5 183.5t190.5 71.5q116 0 190 -71t74 -184q0 -104 -63.5 -172.5t-166.5 -79.5zM292 359
q-47 0 -76.5 -32.5t-29.5 -82.5q0 -49 30 -82t76 -33q45 0 75.5 32.5t30.5 82.5q0 51 -30 83t-76 32z" />
    <glyph glyph-name="Aringacute" unicode="&#x1fa;" 
d="M348 755q-47 0 -80 31.5t-33 78.5q0 46 31.5 77.5t81.5 31.5q43 0 74 -25l56 44l161 1l-179 -146q-6 -40 -36.5 -66.5t-75.5 -26.5zM347 901q-14 0 -24 -10.5t-10 -24.5q0 -15 10 -25t24 -10q16 0 26 10.5t10 25.5q0 14 -10.5 24t-25.5 10zM512 0l-42 127h-249l-41 -127
h-175l260 710h160l262 -710h-175zM267 269h157l-78 239h-2z" />
    <glyph glyph-name="aringacute" unicode="&#x1fb;" horiz-adv-x="591" 
d="M295 531q-47 0 -80 31.5t-33 78.5q0 46 31.5 77.5t81.5 31.5q43 0 73 -25l63 48l160 1l-184 -149q-5 -41 -36 -67.5t-76 -26.5zM294 677q-14 0 -24 -10.5t-10 -24.5q0 -15 10 -25t24 -10q16 0 26 10.5t10 25.5q0 14 -10.5 24t-25.5 10zM386 437v52h157v-489h-148v53h-2
q-48 -62 -136 -62q-102 0 -166.5 70t-64.5 183q0 112 64 183.5t160 71.5q82 0 135 -62h1zM289 128q44 0 74 32.5t30 83.5q0 50 -29.5 83t-73.5 33q-45 0 -75 -32.5t-30 -83.5q0 -52 29 -84t75 -32z" />
    <glyph glyph-name="AEacute" unicode="&#x1fc;" horiz-adv-x="945" 
d="M653 931l-124 -151h-147l112 150zM590 149h321v-149h-485v127h-192l-60 -127h-175l342 710h550v-149h-301v-136h242v-145h-242v-131zM300 269h126v265h-1z" />
    <glyph glyph-name="aeacute" unicode="&#x1fd;" horiz-adv-x="786" 
d="M587 706l-124 -151h-147l112 150zM764 247q0 -31 -4 -44h-315q22 -82 108 -82q66 0 109 56l83 -94q-33 -41 -87 -66.5t-119 -25.5q-99 0 -159 65h-2q-28 -30 -75 -47.5t-99 -17.5q-91 0 -137 41.5t-46 109.5q0 154 200 155h74v4q0 41 -16 57.5t-50 16.5q-56 0 -111 -31
l-65 108q27 15 79.5 31t106.5 16q102 0 145 -59h1q61 59 150 59q99 0 164 -71.5t65 -180.5zM531 371q-30 0 -53.5 -19t-32.5 -56h166q-14 75 -80 75zM223 105q30 0 51 20t21 37v43h-57q-70 -2 -70 -52q0 -21 14.5 -34.5t40.5 -13.5z" />
    <glyph glyph-name="Oslashacute" unicode="&#x1fe;" horiz-adv-x="809" 
d="M598 930l-124 -151h-147l112 150zM773 675l-81 -88q74 -96 74 -232q0 -162 -102 -263.5t-262 -101.5q-114 0 -204 55l-76 -84l-75 69l74 81q-85 99 -85 244q0 161 102 263t264 102q125 0 217 -64l80 87zM210 355q0 -62 29 -115l267 292q-46 32 -104 32q-84 0 -138 -60
t-54 -149zM592 355q0 55 -21 99l-260 -285q41 -23 91 -23q82 0 136 60t54 149z" />
    <glyph glyph-name="oslashacute" unicode="&#x1ff;" horiz-adv-x="583" 
d="M486 707l-124 -151h-147l112 150zM504 404q52 -66 52 -160q0 -112 -74 -183t-190 -71q-78 0 -140 34l-49 -54l-63 59l45 49q-57 70 -57 166q0 112 73.5 183.5t190.5 71.5q85 0 147 -38l52 57l63 -59zM186 244q0 -26 9 -47l141 153q-20 9 -44 9q-47 0 -76.5 -32.5
t-29.5 -82.5zM292 129q45 0 75.5 32.5t30.5 82.5q0 22 -6 40l-137 -149q18 -6 37 -6z" />
    <glyph glyph-name="Scommaaccent" unicode="&#x218;" horiz-adv-x="565" 
d="M279 -10q-149 0 -262 114l99 122q78 -85 167 -85q80 0 80 58q0 29 -22 45.5t-84 37.5q-48 16 -80.5 32t-66.5 42.5t-51 64.5t-17 88q0 88 67.5 148.5t164.5 62.5q135 1 247 -93l-95 -124q-85 68 -146 68q-30 0 -47.5 -15t-17.5 -40q-1 -23 20.5 -39t82.5 -39
q32 -12 41 -15.5t36.5 -15t36 -17t29 -18t27.5 -21.5t20 -24.5t17.5 -30.5t8.5 -35t4 -43q0 -48 -16 -87.5t-42 -65t-60.5 -43t-69.5 -25t-71 -7.5zM201 -221l-29 85q29 6 41.5 16.5t12.5 30.5q0 13 -6 36h127q5 -16 5 -42q0 -60 -39 -92t-112 -34z" />
    <glyph glyph-name="scommaaccent" unicode="&#x219;" horiz-adv-x="436" 
d="M215 -10q-119 0 -201 73l74 105q59 -56 128 -56q44 0 44 28q0 18 -75 41q-71 23 -112 60t-41 103q0 70 52.5 112.5t131.5 42.5q100 0 184 -62l-74 -112q-52 51 -111 51q-34 0 -34 -25q0 -17 64 -41q48 -17 72.5 -28.5t49.5 -30t35 -43t10 -60.5q0 -71 -50.5 -114.5
t-146.5 -43.5zM136 -221l-29 85q29 6 41.5 16.5t12.5 30.5q0 13 -6 36h127q5 -16 5 -42q0 -60 -39 -92t-112 -34z" />
    <glyph glyph-name="uni021A" unicode="&#x21a;" horiz-adv-x="582" 
d="M208 0v561h-188v149h542v-149h-188v-561h-166zM206 -221l-29 85q29 6 41.5 16.5t12.5 30.5q0 13 -6 36h127q5 -16 5 -42q0 -60 -39 -92t-112 -34z" />
    <glyph glyph-name="uni021B" unicode="&#x21b;" horiz-adv-x="369" 
d="M211 -9q-66 0 -105 41.5t-39 121.5v208h-55v127h55v157l157 16v-173h118v-127h-118v-179q0 -56 37 -56q23 0 48 13l39 -116q-59 -33 -137 -33zM117 -221l-29 85q29 6 41.5 16.5t12.5 30.5q0 13 -6 36h127q5 -16 5 -42q0 -60 -39 -92t-112 -34z" />
    <glyph glyph-name="uni0232" unicode="&#x232;" horiz-adv-x="631" 
d="M471 923v-121h-313v121h313zM439 710h194l-234 -401v-309h-169v309l-232 401h191l124 -235h4z" />
    <glyph glyph-name="uni0233" unicode="&#x233;" horiz-adv-x="532" 
d="M423 699v-121h-313v121h313zM365 489h160l-257 -687h-155l85 231l-191 456h162l99 -265h3z" />
    <glyph glyph-name="uni0237" unicode="&#x237;" horiz-adv-x="257" 
d="M53 -207q-60 0 -112 18l26 124q20 -9 42 -9q42 0 42 63v500h156v-513q0 -90 -40 -136.5t-114 -46.5z" />
    <glyph glyph-name="uni0259" unicode="&#x259;" horiz-adv-x="546" 
d="M261 499q115 0 186.5 -70.5t71.5 -185.5q0 -110 -70 -181t-179 -71q-106 0 -174.5 71t-68.5 179q0 23 4 47h334q-8 39 -38.5 61t-73.5 22q-55 0 -123 -35l-58 115q84 48 189 48zM271 115q37 0 62 20.5t32 58.5h-184q8 -37 32 -58t58 -21z" />
    <glyph glyph-name="uni0272" unicode="&#x272;" horiz-adv-x="578" 
d="M356 499q176 0 176 -206v-293h-157v255q0 58 -18.5 81t-59.5 23t-65 -29t-24 -84v-264q0 -91 -40 -140t-114 -49q-60 0 -112 18l26 119q19 -9 42 -9q41 0 41 63v505h157v-59q60 69 148 69z" />
    <glyph glyph-name="circumflex" unicode="&#x2c6;" horiz-adv-x="461" 
d="M271 530l-41 69h-2l-39 -69h-138l108 153h136l115 -153h-139z" />
    <glyph glyph-name="caron" unicode="&#x2c7;" horiz-adv-x="461" 
d="M272 683h138l-111 -153h-136l-112 153h139l38 -68h4z" />
    <glyph glyph-name="breve" unicode="&#x2d8;" horiz-adv-x="458" 
d="M229 525q-69 0 -118 42t-54 115h115q2 -24 17 -40t40 -16q24 0 40 15t17 41h115q-5 -68 -51 -112.5t-121 -44.5z" />
    <glyph glyph-name="dotaccent" unicode="&#x2d9;" horiz-adv-x="504" 
d="M252 524q-41 0 -69.5 25.5t-28.5 65.5t28.5 65.5t69.5 25.5t69.5 -25.5t28.5 -65.5t-28.5 -65.5t-69.5 -25.5z" />
    <glyph glyph-name="ring" unicode="&#x2da;" horiz-adv-x="460" 
d="M230 508q-47 0 -80 31.5t-33 78.5q0 46 31.5 77.5t81.5 31.5q47 0 80 -31t33 -78q0 -46 -31.5 -78t-81.5 -32zM229 584q16 0 26 10.5t10 25.5q0 14 -10.5 24t-25.5 10q-14 0 -24 -10.5t-10 -24.5q0 -15 10 -25t24 -10z" />
    <glyph glyph-name="ogonek" unicode="&#x2db;" horiz-adv-x="476" 
d="M273 -191q-55 0 -87.5 26.5t-32.5 67.5q0 30 21.5 61t61.5 50l124 -14q-40 -1 -65.5 -22t-25.5 -45q0 -38 37 -38q21 0 36 5l7 -80q-29 -11 -76 -11z" />
    <glyph glyph-name="tilde" unicode="&#x2dc;" horiz-adv-x="494" 
d="M132 523l-91 39q18 57 50.5 91.5t77.5 34.5q41 0 88 -27q32 -19 50 -19q33 0 56 46l90 -29q-17 -61 -49.5 -98.5t-76.5 -37.5q-42 0 -88 28q-34 19 -52 19q-33 0 -55 -47z" />
    <glyph glyph-name="hungarumlaut" unicode="&#x2dd;" horiz-adv-x="542" 
d="M32 532l111 150l154 1l-123 -151h-142zM254 532l111 150l154 1l-123 -151h-142z" />
    <glyph glyph-name="uni0374" unicode="&#x374;" horiz-adv-x="299" 
d="M33 466l48 266h154l-77 -266h-125z" />
    <glyph glyph-name="uni0375" unicode="&#x375;" horiz-adv-x="299" 
d="M63 -160l48 266h154l-77 -266h-125z" />
    <glyph glyph-name="uni037E" unicode="&#x37e;" horiz-adv-x="251" 
d="M120 316q-39 0 -66 27t-27 65q0 37 27 64t66 27q37 0 64.5 -27t27.5 -64q0 -38 -27 -65t-65 -27zM16 -134l30 270h157l-75 -270h-112z" />
    <glyph glyph-name="tonos" unicode="&#x384;" horiz-adv-x="465" 
d="M129 532l53 177h171l-85 -177h-139z" />
    <glyph glyph-name="dieresistonos" unicode="&#x385;" horiz-adv-x="574" 
d="M204 532l9 177h127l-32 -177h-104zM444 524q-41 0 -69.5 26t-28.5 66q0 39 28.5 65t69.5 26t69.5 -26t28.5 -65q0 -40 -28.5 -66t-69.5 -26zM88 524q-41 0 -69 25.5t-28 65.5t28 65.5t69 25.5q42 0 70 -25.5t28 -65.5t-28 -65.5t-70 -25.5z" />
    <glyph glyph-name="Alphatonos" unicode="&#x386;" 
d="M512 0l-42 127h-249l-41 -127h-175l260 710h160l262 -710h-175zM191 709l-101 -177h-137l69 177h169zM267 269h157l-78 239h-2z" />
    <glyph glyph-name="anoteleia" unicode="&#x387;" horiz-adv-x="266" 
d="M135 316q-39 0 -66 27t-27 65q0 37 27 64t66 27q37 0 64.5 -27t27.5 -64q0 -38 -27 -65t-65 -27z" />
    <glyph glyph-name="Epsilontonos" unicode="&#x388;" horiz-adv-x="578" 
d="M-224 534l69 177h169l-101 -177h-137zM59 0v710h463v-149h-299v-136h236v-147h-236v-129h320v-149h-484z" />
    <glyph glyph-name="Etatonos" unicode="&#x389;" horiz-adv-x="709" 
d="M-223 534l69 177h169l-101 -177h-137zM60 0v710h168v-294h250v294h169v-710h-169v267h-250v-267h-168z" />
    <glyph glyph-name="Iotatonos" unicode="&#x38a;" horiz-adv-x="302" 
d="M-217 534l69 177h169l-101 -177h-137zM66 0v710h169v-710h-169z" />
    <glyph glyph-name="Omicrontonos" unicode="&#x38c;" horiz-adv-x="807" 
d="M407 -10q-162 0 -264 102.5t-102 262.5q0 161 102 263t264 102q160 0 262 -101t102 -264q0 -162 -102 -263.5t-262 -101.5zM-135 534l69 177h169l-101 -177h-137zM407 146q82 0 136 60t54 149q0 90 -54 149.5t-136 59.5q-84 0 -138 -60t-54 -149q0 -88 54 -148.5
t138 -60.5z" />
    <glyph glyph-name="Upsilontonos" unicode="&#x38e;" horiz-adv-x="634" 
d="M-269 534l69 177h169l-101 -177h-137zM442 710h194l-234 -401v-309h-169v309l-232 401h191l124 -235h4z" />
    <glyph glyph-name="Omegatonos" unicode="&#x38f;" horiz-adv-x="741" 
d="M594 151v-2h102v-149h-283v149q117 106 117 237q0 79 -44.5 130t-115.5 50q-71 0 -115.5 -50.5t-44.5 -129.5q0 -132 118 -237v-149h-284v149h103v1q-111 100 -111 248q0 145 91.5 233.5t242.5 88.5t243 -88.5t92 -233.5q0 -146 -111 -247zM-92 711h169l-101 -177h-137z
" />
    <glyph glyph-name="iotadieresistonos" unicode="&#x390;" horiz-adv-x="302" 
d="M78 556l9 177h127l-32 -177h-104zM318 548q-41 0 -69.5 26t-28.5 66q0 39 28.5 65t69.5 26t69.5 -26t28.5 -65q0 -40 -28.5 -66t-69.5 -26zM-38 548q-41 0 -69 25.5t-28 65.5t28 65.5t69 25.5q42 0 70 -25.5t28 -65.5t-28 -65.5t-70 -25.5zM194 -9q-70 0 -104.5 38.5
t-34.5 120.5v339h156v-318q0 -28 7.5 -36t24.5 -8q16 0 41 5l18 -119q-52 -22 -108 -22z" />
    <glyph glyph-name="Alpha" unicode="&#x391;" 
d="M512 0l-42 127h-249l-41 -127h-175l260 710h160l262 -710h-175zM267 269h157l-78 239h-2z" />
    <glyph glyph-name="Beta" unicode="&#x392;" horiz-adv-x="629" 
d="M461 378q140 -38 140 -180q0 -89 -58.5 -143.5t-168.5 -54.5h-312v710h268q117 0 175.5 -45t58.5 -128q0 -114 -103 -157v-2zM226 563v-136h79q39 0 64.5 18t25.5 50q0 68 -96 68h-73zM322 146q48 0 76.5 19.5t28.5 55.5q0 34 -26.5 54.5t-78.5 20.5h-96v-150h96z" />
    <glyph glyph-name="Gamma" unicode="&#x393;" horiz-adv-x="560" 
d="M62 0v710h478v-148h-310v-562h-168z" />
    <glyph glyph-name="uni0394" unicode="&#x394;" horiz-adv-x="679" 
d="M422 710l230 -583v-127h-626v127l230 583h166zM213 149h251l-124 354z" />
    <glyph glyph-name="Epsilon" unicode="&#x395;" horiz-adv-x="581" 
d="M62 0v710h463v-149h-299v-136h236v-147h-236v-129h320v-149h-484z" />
    <glyph glyph-name="Zeta" unicode="&#x396;" horiz-adv-x="609" 
d="M569 583l-316 -431v-3h316v-149h-530v130l307 428v3h-296v149h519v-127z" />
    <glyph glyph-name="Eta" unicode="&#x397;" horiz-adv-x="711" 
d="M62 0v710h168v-294h250v294h169v-710h-169v267h-250v-267h-168z" />
    <glyph glyph-name="Theta" unicode="&#x398;" horiz-adv-x="802" 
d="M402 -10q-162 0 -264 102.5t-102 262.5q0 161 102 263t264 102q160 0 262 -101t102 -264q0 -162 -102 -263.5t-262 -101.5zM402 146q82 0 136 60t54 149q0 90 -54 149.5t-136 59.5q-84 0 -138 -60t-54 -149q0 -88 54 -148.5t138 -60.5zM291 279v143h230v-143h-230z" />
    <glyph glyph-name="Iota" unicode="&#x399;" horiz-adv-x="302" 
d="M66 0v710h169v-710h-169z" />
    <glyph glyph-name="Kappa" unicode="&#x39a;" horiz-adv-x="658" 
d="M282 268h-1l-52 -63v-205h-167v710h167v-272h2l205 272h211l-255 -307l265 -403h-206z" />
    <glyph glyph-name="Lambda" unicode="&#x39b;" horiz-adv-x="665" 
d="M481 0l-147 474h-2l-148 -474h-179l246 710h163l246 -710h-179z" />
    <glyph glyph-name="Mu" unicode="&#x39c;" horiz-adv-x="855" 
d="M625 710h168v-710h-166v392h-2l-144 -262h-107l-144 261h-2v-391h-166v710h168l197 -376h2z" />
    <glyph glyph-name="Nu" unicode="&#x39d;" horiz-adv-x="734" 
d="M505 710h167v-710h-172l-270 426h-1v-426h-167v710h167l276 -437v437z" />
    <glyph glyph-name="Xi" unicode="&#x39e;" horiz-adv-x="619" 
d="M45 557v153h528v-153h-528zM105 279v145h405v-145h-405zM39 0v153h542v-153h-542z" />
    <glyph glyph-name="Omicron" unicode="&#x39f;" horiz-adv-x="802" 
d="M402 -10q-162 0 -264 102.5t-102 262.5q0 161 102 263t264 102q160 0 262 -101t102 -264q0 -162 -102 -263.5t-262 -101.5zM402 146q82 0 136 60t54 149q0 90 -54 149.5t-136 59.5q-84 0 -138 -60t-54 -149q0 -88 54 -148.5t138 -60.5z" />
    <glyph glyph-name="Pi" unicode="&#x3a0;" horiz-adv-x="680" 
d="M62 0v710h556v-710h-168v561h-220v-561h-168z" />
    <glyph glyph-name="Rho" unicode="&#x3a1;" horiz-adv-x="608" 
d="M62 0v710h270q126 0 189.5 -67t63.5 -178q0 -116 -71.5 -176t-194.5 -60h-92v-229h-165zM227 376h70q55 0 85 24.5t30 68.5q0 42 -29 68t-84 26h-72v-187z" />
    <glyph glyph-name="Sigma" unicode="&#x3a3;" horiz-adv-x="580" 
d="M550 562h-289v-2l155 -204l-155 -205v-2h289v-149h-515v116l180 240l-180 234v120h515v-148z" />
    <glyph glyph-name="Tau" unicode="&#x3a4;" horiz-adv-x="582" 
d="M208 0v561h-188v149h542v-149h-188v-561h-166z" />
    <glyph glyph-name="Upsilon" unicode="&#x3a5;" horiz-adv-x="631" 
d="M439 710h194l-234 -401v-309h-169v309l-232 401h191l124 -235h4z" />
    <glyph glyph-name="Phi" unicode="&#x3a6;" horiz-adv-x="819" 
d="M790 357q0 -118 -77.5 -194.5t-218.5 -95.5v-67h-165v67q-142 17 -220.5 94t-78.5 196q0 122 78.5 203.5t220.5 100.5v61h165v-62q140 -19 218 -100.5t78 -202.5zM197 359q0 -57 36.5 -97.5t101.5 -56.5v315q-65 -16 -101.5 -59t-36.5 -102zM488 206q64 16 99 56.5
t35 96.5q0 58 -35.5 101t-98.5 59v-313z" />
    <glyph glyph-name="Chi" unicode="&#x3a7;" horiz-adv-x="702" 
d="M494 0l-141 229h-3l-142 -229h-195l227 357l-219 353h192l137 -223h3l137 223h190l-217 -353l226 -357h-195z" />
    <glyph glyph-name="Psi" unicode="&#x3a8;" horiz-adv-x="788" 
d="M583 710h162l-1 -258q-1 -142 -70 -220t-198 -81v-151h-165v151q-129 3 -199 81t-69 220v258h163l-1 -239q0 -88 25 -127.5t81 -44.5v411h165v-411q55 5 80.5 45t26.5 127v239z" />
    <glyph glyph-name="uni03A9" unicode="&#x3a9;" horiz-adv-x="741" 
d="M594 151v-2h102v-149h-283v149q117 106 117 237q0 79 -44.5 130t-115.5 50q-71 0 -115.5 -50.5t-44.5 -129.5q0 -132 118 -237v-149h-284v149h103v1q-111 100 -111 248q0 145 91.5 233.5t242.5 88.5t243 -88.5t92 -233.5q0 -146 -111 -247z" />
    <glyph glyph-name="Iotadieresis" unicode="&#x3aa;" horiz-adv-x="302" 
d="M41 772q-41 0 -69.5 25.5t-28.5 65.5t28.5 65.5t69.5 25.5t69.5 -25.5t28.5 -65.5t-28.5 -65.5t-69.5 -25.5zM281 772q-41 0 -69.5 25.5t-28.5 65.5t28.5 65.5t69.5 25.5t69 -25.5t28 -65.5t-28 -65.5t-69 -25.5zM66 0v710h169v-710h-169z" />
    <glyph glyph-name="Upsilondieresis" unicode="&#x3ab;" horiz-adv-x="631" 
d="M202 772q-41 0 -69.5 25.5t-28.5 65.5t28.5 65.5t69.5 25.5t69.5 -25.5t28.5 -65.5t-28.5 -65.5t-69.5 -25.5zM442 772q-41 0 -69.5 25.5t-28.5 65.5t28.5 65.5t69.5 25.5t69 -25.5t28 -65.5t-28 -65.5t-69 -25.5zM439 710h194l-234 -401v-309h-169v309l-232 401h191
l124 -235h4z" />
    <glyph glyph-name="alphatonos" unicode="&#x3ac;" horiz-adv-x="590" 
d="M446 733l-85 -177h-139l53 177h171zM570 131l18 -118q-46 -22 -93 -22q-92 0 -112 76h-2q-48 -76 -139 -76q-99 0 -157.5 69.5t-58.5 183.5q0 112 62 183.5t155 71.5q100 0 145 -84h2l6 74h147l-30 -197v-122q0 -45 29 -45q13 0 28 6zM274 129q39 0 66.5 31.5t32.5 83.5
q0 53 -25 84t-68 31q-41 0 -68.5 -32t-27.5 -83q0 -50 24 -82.5t66 -32.5z" />
    <glyph glyph-name="epsilontonos" unicode="&#x3ad;" horiz-adv-x="488" 
d="M405 733l-85 -177h-139l53 177h171zM419 152l59 -106q-55 -34 -110 -44.5t-134 -10.5q-95 0 -150 37.5t-55 106.5q0 84 78 120q-63 40 -63 104t51 101.5t146 38.5q143 0 227 -49l-53 -104q-74 26 -150 24q-70 0 -70 -34q0 -13 15.5 -23t48.5 -10h81v-108h-90
q-31 0 -47 -11t-16 -26q0 -38 90 -38q83 0 142 32z" />
    <glyph glyph-name="etatonos" unicode="&#x3ae;" horiz-adv-x="573" 
d="M444 733l-85 -177h-139l53 177h171zM352 499q175 0 175 -209v-488h-156v450q0 107 -75 107q-40 0 -64 -29.5t-24 -84.5v-245h-156v489h156v-57h1q58 67 143 67z" />
    <glyph glyph-name="iotatonos" unicode="&#x3af;" horiz-adv-x="302" 
d="M64 556l53 177h171l-85 -177h-139zM194 -9q-70 0 -104.5 38.5t-34.5 120.5v339h156v-318q0 -28 7.5 -36t24.5 -8q16 0 41 5l18 -119q-52 -22 -108 -22z" />
    <glyph glyph-name="upsilondieresistonos" unicode="&#x3b0;" horiz-adv-x="552" 
d="M225 555l9 177h127l-32 -177h-104zM465 547q-41 0 -69.5 26t-28.5 66q0 39 28.5 65t69.5 26t69.5 -26t28.5 -65q0 -40 -28.5 -66t-69.5 -26zM109 547q-41 0 -69 25.5t-28 65.5t28 65.5t69 25.5q42 0 70 -25.5t28 -65.5t-28 -65.5t-70 -25.5zM276 -9q-108 0 -170 63.5
t-62 187.5v247h156v-243q0 -117 75 -117q77 0 77 117v243h156v-247q0 -124 -61.5 -187.5t-170.5 -63.5z" />
    <glyph glyph-name="alpha" unicode="&#x3b1;" horiz-adv-x="590" 
d="M570 131l18 -118q-46 -22 -93 -22q-92 0 -112 76h-2q-48 -76 -139 -76q-99 0 -157.5 69.5t-58.5 183.5q0 112 62 183.5t155 71.5q100 0 145 -84h2l6 74h147l-30 -197v-122q0 -45 29 -45q13 0 28 6zM274 129q39 0 66.5 31.5t32.5 83.5q0 53 -25 84t-68 31q-41 0 -68.5 -32
t-27.5 -83q0 -50 24 -82.5t66 -32.5z" />
    <glyph glyph-name="beta" unicode="&#x3b2;" horiz-adv-x="589" 
d="M454 399q51 -26 80.5 -73.5t29.5 -103.5q0 -106 -61.5 -168.5t-165.5 -62.5q-83 0 -129 48v-237h-156v686q0 127 65.5 192.5t175.5 65.5q109 0 172 -56t63 -136q0 -105 -74 -153v-2zM308 117q44 0 71.5 28t27.5 71q0 45 -30.5 73.5t-84.5 28.5h-29v120h22q50 1 71 29.5
t21 63.5q0 36 -20.5 58t-58.5 22t-64 -25t-26 -83v-277q0 -45 28.5 -77t71.5 -32z" />
    <glyph glyph-name="gamma" unicode="&#x3b3;" horiz-adv-x="535" 
d="M527 489l-184 -494q6 -21 9.5 -49.5t4.5 -44.5t1 -54v-45h-150v27.5t-0.5 30.5t-1.5 29t-3 33.5t-5.5 33t-9.5 38.5t-13 39l-168 456h163l97 -305h2l95 305h163z" />
    <glyph glyph-name="delta" unicode="&#x3b4;" horiz-adv-x="566" 
d="M403 467q139 -86 139 -226q0 -113 -72 -181.5t-183 -68.5q-116 0 -188 68t-72 180q0 68 35.5 122.5t92.5 90.5q-68 55 -68 136q0 67 54 112t149 46q129 0 220 -52l-53 -116q-79 37 -153 37q-63 0 -63 -32q0 -10 5 -18.5t21.5 -20t25 -16.5t37.5 -21q67 -37 73 -40z
M287 129q41 0 69 29t28 80q0 45 -24.5 73.5t-72.5 54.5l-24 14q-78 -48 -78 -141q0 -48 29 -79t73 -31z" />
    <glyph glyph-name="epsilon" unicode="&#x3b5;" horiz-adv-x="488" 
d="M419 152l59 -106q-55 -34 -110 -44.5t-134 -10.5q-95 0 -150 37.5t-55 106.5q0 84 78 120q-63 40 -63 104t51 101.5t146 38.5q143 0 227 -49l-53 -104q-74 26 -150 24q-70 0 -70 -34q0 -13 15.5 -23t48.5 -10h81v-108h-90q-31 0 -47 -11t-16 -26q0 -38 90 -38
q83 0 142 32z" />
    <glyph glyph-name="zeta" unicode="&#x3b6;" horiz-adv-x="464" 
d="M323 121q84 -32 116 -70t32 -89q0 -94 -86 -182l-130 63q57 59 57 94q0 23 -21 40.5t-73 33.5q-41 13 -69 26.5t-59.5 38.5t-47.5 64.5t-16 92.5q1 166 235 370v2h-200v131h407v-114q-122 -98 -203 -202.5t-82 -183.5q-1 -50 46 -76q18 -10 94 -39z" />
    <glyph glyph-name="eta" unicode="&#x3b7;" horiz-adv-x="573" 
d="M352 499q175 0 175 -209v-488h-156v450q0 107 -75 107q-40 0 -64 -29.5t-24 -84.5v-245h-156v489h156v-57h1q58 67 143 67z" />
    <glyph glyph-name="theta" unicode="&#x3b8;" horiz-adv-x="583" 
d="M291 746q120 0 192 -93.5t72 -283.5q0 -171 -64.5 -274.5t-199.5 -103.5q-121 0 -192.5 93t-71.5 285q0 81 15 147.5t45.5 119t82.5 81.5t121 29zM291 610q-92 0 -106 -178h213q-13 178 -107 178zM291 125q93 0 107 182h-213q11 -182 106 -182z" />
    <glyph glyph-name="iota" unicode="&#x3b9;" horiz-adv-x="302" 
d="M194 -9q-70 0 -104.5 38.5t-34.5 120.5v339h156v-318q0 -28 7.5 -36t24.5 -8q16 0 41 5l18 -119q-52 -22 -108 -22z" />
    <glyph glyph-name="kappa" unicode="&#x3ba;" horiz-adv-x="576" 
d="M264 174h-2l-54 -55v-119h-157v489h157v-173l174 173h190l-203 -206l205 -283h-182z" />
    <glyph glyph-name="lambda" unicode="&#x3bb;" horiz-adv-x="551" 
d="M383 0q-41 124 -90 285h-2l-116 -285h-167l211 474l-30 78q-21 56 -67 56q-34 0 -63 -9l-20 124q67 23 120 23q66 0 105.5 -36t75.5 -127q96 -242 206 -583h-163z" />
    <glyph glyph-name="uni03BC" unicode="&#x3bc;" horiz-adv-x="572" 
d="M367 489h156v-489h-144l-8 55h-3q-47 -64 -119 -64q-33 0 -52 12l-4 -3q13 -58 13 -115v-83h-156v687h156v-247q0 -59 19 -86t59 -27q37 0 60 29.5t23 85.5v245z" />
    <glyph glyph-name="nu" unicode="&#x3bd;" horiz-adv-x="536" 
d="M364 489h164l-189 -489h-142l-190 489h163l97 -302h2z" />
    <glyph glyph-name="xi" unicode="&#x3be;" horiz-adv-x="492" 
d="M337 120q81 -28 113 -66.5t32 -92.5q0 -90 -86 -181l-130 63q57 63 57 97q0 22 -19.5 37.5t-65.5 30.5q-37 12 -61 21.5t-55.5 27.5t-50 38t-31.5 52t-13 71q0 53 30 100t84 77v2q-80 53 -80 148q0 97 68 149t162 52q118 0 207 -53l-55 -124q-77 40 -143 40
q-39 0 -62 -21.5t-23 -51.5q0 -87 177 -87h46v-128h-115q-67 0 -102 -26t-35 -68q0 -34 33 -55.5t118 -51.5z" />
    <glyph glyph-name="omicron" unicode="&#x3bf;" horiz-adv-x="575" 
d="M287 -9q-115 0 -187.5 70.5t-72.5 182.5q0 113 72.5 184t187.5 71t187.5 -71t72.5 -184q0 -112 -72.5 -182.5t-187.5 -70.5zM287 129q44 0 73.5 32.5t29.5 82.5q0 51 -29 83t-74 32q-44 0 -73 -32t-29 -83q0 -50 29 -82.5t73 -32.5z" />
    <glyph glyph-name="pi" unicode="&#x3c0;" horiz-adv-x="627" 
d="M612 489v-131h-76v-358h-155v358h-132v-358h-155v358h-77v131h595z" />
    <glyph glyph-name="rho" unicode="&#x3c1;" horiz-adv-x="585" 
d="M295 499q113 0 189 -71t76 -184q0 -112 -63 -182.5t-162 -70.5q-83 0 -134 49h-2v-238h-157v442q0 112 67.5 183.5t185.5 71.5zM295 129q47 0 77 32t30 83q0 50 -31 82.5t-77 32.5q-43 0 -72.5 -32.5t-29.5 -82.5q0 -51 30 -83t73 -32z" />
    <glyph glyph-name="uni03C2" unicode="&#x3c2;" horiz-adv-x="501" 
d="M385 -219l-131 62q57 55 57 94q0 21 -16 36t-66 35q-45 19 -75.5 36t-63.5 46t-49.5 71.5t-16.5 97.5q0 108 73 174t193 66q61 0 117 -25.5t93 -72.5l-105 -89q-42 47 -101 47q-51 0 -81.5 -28t-30.5 -73q0 -46 32.5 -76t105.5 -59q86 -35 117.5 -71.5t31.5 -90.5
q0 -94 -84 -180z" />
    <glyph glyph-name="sigma" unicode="&#x3c3;" horiz-adv-x="592" 
d="M584 361h-110v-2q65 -55 65 -140q0 -100 -72.5 -164t-186.5 -64q-111 0 -182 68.5t-71 179.5q0 113 72.5 181.5t193.5 68.5h291v-128zM284 129q43 0 69.5 30.5t26.5 79.5q0 70 -50 122h-34q-50 0 -80.5 -33.5t-30.5 -88.5q0 -50 29.5 -80t69.5 -30z" />
    <glyph glyph-name="tau" unicode="&#x3c4;" horiz-adv-x="459" 
d="M282 -9q-151 0 -151 173v197h-123v128h433v-128h-153v-172q0 -36 10 -49t35 -13q22 0 55 12l38 -113q-61 -35 -144 -35z" />
    <glyph glyph-name="upsilon" unicode="&#x3c5;" horiz-adv-x="552" 
d="M276 -9q-108 0 -170 63.5t-62 187.5v247h156v-243q0 -117 75 -117q77 0 77 117v243h156v-247q0 -124 -61.5 -187.5t-170.5 -63.5z" />
    <glyph glyph-name="phi" unicode="&#x3c6;" horiz-adv-x="713" 
d="M688 261q0 -112 -69.5 -186t-192.5 -78v-195h-154v195q-109 6 -176 77.5t-67 192.5q0 124 75 233l144 -24q-65 -98 -65 -195q0 -135 91 -155v146q0 105 50.5 166t135.5 61q109 0 168.5 -65t59.5 -173zM424 123q52 8 81.5 46.5t29.5 90.5q0 44 -16.5 73.5t-45.5 29.5
q-49 0 -49 -96v-144z" />
    <glyph glyph-name="chi" unicode="&#x3c7;" horiz-adv-x="531" 
d="M517 -68l20 -124q-42 -15 -89 -15q-62 0 -95 31.5t-61 110.5l-27 70h-1l-99 -203h-165l194 356l-75 155q-24 49 -62 49q-5 0 -14.5 -1.5t-12.5 -1.5l-20 124q45 16 87 16q57 0 88 -29.5t60 -98.5l23 -62h1l87 180h168l-181 -330l85 -180q23 -50 61 -50q1 0 28 3z" />
    <glyph glyph-name="psi" unicode="&#x3c8;" horiz-adv-x="723" 
d="M532 489h148v-251q0 -120 -66 -182.5t-175 -65.5v-188h-155v188q-110 3 -176 65.5t-66 182.5v251h149v-240q0 -57 26 -87.5t70 -32.5v506h149v-506q43 2 69.5 32.5t26.5 87.5v240z" />
    <glyph glyph-name="omega" unicode="&#x3c9;" horiz-adv-x="738" 
d="M631 501q27 -42 40 -68t26.5 -80t13.5 -121q0 -113 -56.5 -177t-136.5 -64q-105 0 -148 76h-2q-42 -76 -147 -76q-81 0 -137.5 63.5t-56.5 177.5q0 67 13.5 121t26.5 80t40 68l141 -24q-62 -115 -62 -229q0 -118 59 -118q24 0 41 29.5t17 84.5v122h133v-122
q0 -55 16.5 -84.5t40.5 -29.5q60 0 60 118q0 110 -62 229z" />
    <glyph glyph-name="iotadieresis" unicode="&#x3ca;" horiz-adv-x="302" 
d="M12 548q-41 0 -69.5 25.5t-28.5 65.5t28.5 65.5t69.5 25.5t69.5 -25.5t28.5 -65.5t-28.5 -65.5t-69.5 -25.5zM252 548q-41 0 -69.5 25.5t-28.5 65.5t28.5 65.5t69.5 25.5t69 -25.5t28 -65.5t-28 -65.5t-69 -25.5zM194 -9q-70 0 -104.5 38.5t-34.5 120.5v339h156v-318
q0 -28 7.5 -36t24.5 -8q16 0 41 5l18 -119q-52 -22 -108 -22z" />
    <glyph glyph-name="upsilondieresis" unicode="&#x3cb;" horiz-adv-x="552" 
d="M156 548q-41 0 -69.5 25.5t-28.5 65.5t28.5 65.5t69.5 25.5t69.5 -25.5t28.5 -65.5t-28.5 -65.5t-69.5 -25.5zM396 548q-41 0 -69.5 25.5t-28.5 65.5t28.5 65.5t69.5 25.5t69 -25.5t28 -65.5t-28 -65.5t-69 -25.5zM276 -9q-108 0 -170 63.5t-62 187.5v247h156v-243
q0 -117 75 -117q77 0 77 117v243h156v-247q0 -124 -61.5 -187.5t-170.5 -63.5z" />
    <glyph glyph-name="omicrontonos" unicode="&#x3cc;" horiz-adv-x="575" 
d="M219 556l53 177h171l-85 -177h-139zM287 -9q-115 0 -187.5 70.5t-72.5 182.5q0 113 72.5 184t187.5 71t187.5 -71t72.5 -184q0 -112 -72.5 -182.5t-187.5 -70.5zM287 129q44 0 73.5 32.5t29.5 82.5q0 51 -29 83t-74 32q-44 0 -73 -32t-29 -83q0 -50 29 -82.5t73 -32.5z
" />
    <glyph glyph-name="upsilontonos" unicode="&#x3cd;" horiz-adv-x="552" 
d="M208 556l53 177h171l-85 -177h-139zM276 -9q-108 0 -170 63.5t-62 187.5v247h156v-243q0 -117 75 -117q77 0 77 117v243h156v-247q0 -124 -61.5 -187.5t-170.5 -63.5z" />
    <glyph glyph-name="omegatonos" unicode="&#x3ce;" horiz-adv-x="738" 
d="M529 733l-85 -177h-139l53 177h171zM631 501q27 -42 40 -68t26.5 -80t13.5 -121q0 -113 -56.5 -177t-136.5 -64q-105 0 -148 76h-2q-42 -76 -147 -76q-81 0 -137.5 63.5t-56.5 177.5q0 67 13.5 121t26.5 80t40 68l141 -24q-62 -115 -62 -229q0 -118 59 -118q24 0 41 29.5
t17 84.5v122h133v-122q0 -55 16.5 -84.5t40.5 -29.5q60 0 60 118q0 110 -62 229z" />
    <glyph glyph-name="uni03D7" unicode="&#x3d7;" horiz-adv-x="593" 
d="M363 283q38 -101 83 -142t139 -57v-82q-108 -121 -193 -169.5t-192 -48.5q-120 0 -197 40l24 121q71 -43 153 -43q125 0 220 97q-97 57 -139 171h-2l-51 -56v-114h-157v489h157v-175h1l154 175h188z" />
    <glyph glyph-name="Wgrave" unicode="&#x1e80;" horiz-adv-x="1021" 
d="M585 780h-146l-124 151l160 -1zM829 710h178l-222 -710h-153l-119 467h-1l-124 -467h-153l-222 710h178l120 -436h2l110 436h176l108 -436h2z" />
    <glyph glyph-name="wgrave" unicode="&#x1e81;" horiz-adv-x="761" 
d="M454 555h-146l-124 151l160 -1zM597 489h155l-166 -489h-130l-76 273h-1l-74 -273h-131l-165 489h156l80 -262h2l72 262h122l73 -263h2z" />
    <glyph glyph-name="Wacute" unicode="&#x1e82;" horiz-adv-x="1021" 
d="M714 931l-124 -151h-147l112 150zM829 710h178l-222 -710h-153l-119 467h-1l-124 -467h-153l-222 710h178l120 -436h2l110 436h176l108 -436h2z" />
    <glyph glyph-name="wacute" unicode="&#x1e83;" horiz-adv-x="761" 
d="M582 706l-124 -151h-147l112 150zM597 489h155l-166 -489h-130l-76 273h-1l-74 -273h-131l-165 489h156l80 -262h2l72 262h122l73 -263h2z" />
    <glyph glyph-name="Wdieresis" unicode="&#x1e84;" horiz-adv-x="1021" 
d="M400 772q-41 0 -69.5 25.5t-28.5 65.5t28.5 65.5t69.5 25.5t69 -25.5t28 -65.5t-28 -65.5t-69 -25.5zM623 772q-41 0 -69.5 25.5t-28.5 65.5t28.5 65.5t69.5 25.5t69.5 -25.5t28.5 -65.5t-28.5 -65.5t-69.5 -25.5zM829 710h178l-222 -710h-153l-119 467h-1l-124 -467
h-153l-222 710h178l120 -436h2l110 436h176l108 -436h2z" />
    <glyph glyph-name="wdieresis" unicode="&#x1e85;" horiz-adv-x="761" 
d="M268 548q-41 0 -69.5 25.5t-28.5 65.5t28.5 65.5t69.5 25.5t69 -25.5t28 -65.5t-28 -65.5t-69 -25.5zM491 548q-41 0 -69.5 25.5t-28.5 65.5t28.5 65.5t69.5 25.5t69.5 -25.5t28.5 -65.5t-28.5 -65.5t-69.5 -25.5zM597 489h155l-166 -489h-130l-76 273h-1l-74 -273h-131
l-165 489h156l80 -262h2l72 262h122l73 -263h2z" />
    <glyph glyph-name="uni1E9E" unicode="&#x1e9e;" horiz-adv-x="773" 
d="M550 428q55 -21 83 -34t60.5 -37.5t46 -58t13.5 -80.5q0 -59 -23.5 -105t-60.5 -71.5t-77.5 -38t-81.5 -12.5q-122 0 -225 85l76 138q37 -37 78.5 -56t72.5 -19q32 0 49 17.5t17 42.5q0 29 -22 46t-83 38q-77 26 -130 62l116 214v2q-67 8 -115 8q-62 0 -94 -26.5
t-32 -102.5v-439h-168l1 460q0 139 73.5 199t209.5 60q161 0 346 -48l-130 -241v-3z" />
    <glyph glyph-name="uni1EA0" unicode="&#x1ea0;" 
d="M687 0h-175l-42 127h-249l-41 -127h-175l260 710h160zM267 269h157l-78 239h-2zM342 -76q41 0 69.5 -25.5t28.5 -65.5t-28.5 -65.5t-69.5 -25.5t-69.5 25.5t-28.5 65.5t28.5 65.5t69.5 25.5z" />
    <glyph glyph-name="uni1EA1" unicode="&#x1ea1;" horiz-adv-x="591" 
d="M386 489h157v-489h-148v53h-2q-48 -62 -136 -62q-102 0 -166.5 70t-64.5 183q0 112 64 183.5t160 71.5q82 0 135 -62h1v52zM289 128q44 0 74 32.5t30 83.5q0 50 -29.5 83t-73.5 33q-45 0 -75 -32.5t-30 -83.5q0 -52 29 -84t75 -32zM288 -76q41 0 69.5 -25.5t28.5 -65.5
t-28.5 -65.5t-69.5 -25.5t-69.5 25.5t-28.5 65.5t28.5 65.5t69.5 25.5z" />
    <glyph glyph-name="uni1EA2" unicode="&#x1ea2;" 
d="M340 884q-30 0 -62 -27l-46 45q51 47 122 47q51 0 79 -22.5t28 -58.5q0 -63 -92 -81l-6 -23l-58 -3q-18 16 -18 30q0 15 39.5 37t39.5 40q0 16 -26 16zM512 0l-42 127h-249l-41 -127h-175l260 710h160l262 -710h-175zM267 269h157l-78 239h-2z" />
    <glyph glyph-name="uni1EA3" unicode="&#x1ea3;" horiz-adv-x="591" 
d="M290 660q-30 0 -62 -27l-46 45q51 47 122 47q51 0 79 -22.5t28 -58.5q0 -63 -92 -81l-6 -23l-58 -3q-18 16 -18 30q0 15 39.5 37t39.5 40q0 16 -26 16zM386 489h157v-489h-148v53h-2q-48 -62 -136 -62q-102 0 -166.5 70t-64.5 183q0 112 64 183.5t160 71.5q82 0 135 -62
h1v52zM289 128q44 0 74 32.5t30 83.5q0 50 -29.5 83t-73.5 33q-45 0 -75 -32.5t-30 -83.5q0 -52 29 -84t75 -32z" />
    <glyph glyph-name="uni1EA4" unicode="&#x1ea4;" 
d="M756 965l-144 -150h-115l111 149zM343 829l-39 -69h-138l108 153h136l115 -153h-139l-41 69h-2zM265 710h160l262 -710h-175l-42 127h-249l-41 -127h-175zM267 269h157l-78 239h-2z" />
    <glyph glyph-name="uni1EA5" unicode="&#x1ea5;" horiz-adv-x="591" 
d="M676 803l-143 -151h-115l111 150zM291 623l-39 -69h-138l108 153h136l115 -153h-139l-41 69h-2zM386 437v52h157v-489h-148v53h-2q-48 -62 -136 -62q-102 0 -166.5 70t-64.5 183q0 112 64 183.5t160 71.5q82 0 135 -62h1zM289 128q44 0 74 32.5t30 83.5q0 50 -29.5 83
t-73.5 33q-45 0 -75 -32.5t-30 -83.5q0 -52 29 -84t75 -32z" />
    <glyph glyph-name="uni1EA6" unicode="&#x1ea6;" 
d="M658 815h-111l-117 150h143zM344 829l-39 -69h-138l108 153h136l115 -153h-139l-41 69h-2zM512 0l-42 127h-249l-41 -127h-175l260 710h160l262 -710h-175zM267 269h157l-78 239h-2z" />
    <glyph glyph-name="uni1EA7" unicode="&#x1ea7;" horiz-adv-x="591" 
d="M572 653h-111l-117 151l143 -1zM293 623l-39 -69h-138l108 153h136l115 -153h-139l-41 69h-2zM386 437v52h157v-489h-148v53h-2q-48 -62 -136 -62q-102 0 -166.5 70t-64.5 183q0 112 64 183.5t160 71.5q82 0 135 -62h1zM289 128q44 0 74 32.5t30 83.5q0 50 -29.5 83
t-73.5 33q-45 0 -75 -32.5t-30 -83.5q0 -52 29 -84t75 -32z" />
    <glyph glyph-name="uni1EA8" unicode="&#x1ea8;" 
d="M565 909q-31 0 -63 -28l-46 45q49 47 122 47q48 0 75 -22.5t27 -58.5q0 -31 -23 -51.5t-63 -29.5l-6 -22l-58 -4q-18 18 -18 31q0 15 39 37t39 39t-25 17zM342 829l-39 -69h-138l108 153h136l115 -153h-139l-41 69h-2zM512 0l-42 127h-249l-41 -127h-175l260 710h160
l262 -710h-175zM267 269h157l-78 239h-2z" />
    <glyph glyph-name="uni1EA9" unicode="&#x1ea9;" horiz-adv-x="591" 
d="M497 813q47 0 74.5 -22.5t27.5 -58.5q0 -31 -23.5 -51.5t-63.5 -29.5l-6 -23l-58 -3q-18 18 -18 31q0 10 12 20t27 16.5t27 17.5t12 22q0 17 -25 17q-28 0 -63 -28l-45 45q47 47 122 47zM291 623l-39 -69h-138l108 153h136l115 -153h-139l-41 69h-2zM386 437v52h157v-489
h-148v53h-2q-48 -62 -136 -62q-102 0 -166.5 70t-64.5 183q0 112 64 183.5t160 71.5q82 0 135 -62h1zM289 128q44 0 74 32.5t30 83.5q0 50 -29.5 83t-73.5 33q-45 0 -75 -32.5t-30 -83.5q0 -52 29 -84t75 -32z" />
    <glyph glyph-name="uni1EAA" unicode="&#x1eaa;" 
d="M280 903q-26 0 -47 -38l-67 22q15 37 43 59.5t65 22.5q31 0 83 -25q28 -14 49 -14q32 0 53 38l66 -17q-14 -41 -43.5 -64.5t-68.5 -23.5q-33 0 -79 22q-40 18 -54 18zM343 789l-59 -52h-132l131 109h117l138 -109h-133l-60 52h-2zM512 0l-42 127h-249l-41 -127h-175
l260 710h160l262 -710h-175zM267 269h157l-78 239h-2z" />
    <glyph glyph-name="uni1EAB" unicode="&#x1eab;" horiz-adv-x="591" 
d="M251 771q-22 0 -44 -47l-91 39q17 56 48 91t68 35q13 0 23 -1.5t19.5 -5t13.5 -5.5t14 -8t12 -7q30 -19 50 -19q34 0 55 46l90 -29q-17 -61 -49.5 -98.5t-76.5 -37.5q-41 0 -87 28q-5 3 -12 7t-11 6.5t-10 4t-12 1.5zM225 707h136l115 -153h-139l-41 69h-2l-39 -69h-138z
M386 489h157v-489h-148v53h-2q-48 -62 -136 -62q-102 0 -166.5 70t-64.5 183q0 112 64 183.5t160 71.5q82 0 135 -62h1v52zM289 128q44 0 74 32.5t30 83.5q0 50 -29.5 83t-73.5 33q-45 0 -75 -32.5t-30 -83.5q0 -52 29 -84t75 -32z" />
    <glyph glyph-name="uni1EAC" unicode="&#x1eac;" 
d="M341 847l-39 -69h-138l108 153h136l115 -153h-139l-41 69h-2zM687 0h-175l-42 127h-249l-41 -127h-175l260 710h160zM267 269h157l-78 239h-2zM342 -76q41 0 69.5 -25.5t28.5 -65.5t-28.5 -65.5t-69.5 -25.5t-69.5 25.5t-28.5 65.5t28.5 65.5t69.5 25.5z" />
    <glyph glyph-name="uni1EAD" unicode="&#x1ead;" horiz-adv-x="591" 
d="M291 623l-39 -69h-138l108 153h136l115 -153h-139l-41 69h-2zM386 489h157v-489h-148v53h-2q-48 -62 -136 -62q-102 0 -166.5 70t-64.5 183q0 112 64 183.5t160 71.5q82 0 135 -62h1v52zM289 128q44 0 74 32.5t30 83.5q0 50 -29.5 83t-73.5 33q-45 0 -75 -32.5t-30 -83.5
q0 -52 29 -84t75 -32zM288 -76q41 0 69.5 -25.5t28.5 -65.5t-28.5 -65.5t-69.5 -25.5t-69.5 25.5t-28.5 65.5t28.5 65.5t69.5 25.5z" />
    <glyph glyph-name="uni1EAE" unicode="&#x1eae;" 
d="M551 948l-162 -107h-100l97 107h165zM345 731q-147 0 -184 121h94q23 -50 90 -50t89 50h95q-37 -121 -184 -121zM512 0l-42 127h-249l-41 -127h-175l260 710h160l262 -710h-175zM267 269h157l-78 239h-2z" />
    <glyph glyph-name="uni1EAF" unicode="&#x1eaf;" horiz-adv-x="591" 
d="M462 878l-124 -151h-147l112 150zM282 549q-69 0 -118 42t-54 115h115q2 -24 17 -40t40 -16q24 0 40 15t17 41h115q-5 -68 -51 -112.5t-121 -44.5zM386 489h157v-489h-148v53h-2q-48 -62 -136 -62q-102 0 -166.5 70t-64.5 183q0 112 64 183.5t160 71.5q82 0 135 -62h1v52
zM289 128q44 0 74 32.5t30 83.5q0 50 -29.5 83t-73.5 33q-45 0 -75 -32.5t-30 -83.5q0 -52 29 -84t75 -32z" />
    <glyph glyph-name="uni1EB0" unicode="&#x1eb0;" 
d="M401 841h-100l-162 107h165zM256 852q22 -50 89 -50t90 50h94q-37 -121 -184 -121q-145 0 -184 121h95zM512 0l-42 127h-249l-41 -127h-175l260 710h160l262 -710h-175zM267 269h157l-78 239h-2z" />
    <glyph glyph-name="uni1EB1" unicode="&#x1eb1;" horiz-adv-x="591" 
d="M348 727h-146l-124 151l160 -1zM292 650q24 0 40 15t17 41h115q-5 -68 -51 -112.5t-121 -44.5q-69 0 -118 42t-54 115h115q2 -24 17 -40t40 -16zM386 489h157v-489h-148v53h-2q-48 -62 -136 -62q-102 0 -166.5 70t-64.5 183q0 112 64 183.5t160 71.5q82 0 135 -62h1v52z
M289 128q44 0 74 32.5t30 83.5q0 50 -29.5 83t-73.5 33q-45 0 -75 -32.5t-30 -83.5q0 -52 29 -84t75 -32z" />
    <glyph glyph-name="uni1EB2" unicode="&#x1eb2;" 
d="M339 907q-27 0 -57 -25l-41 40q42 42 110 42q41 0 64.5 -18t23.5 -48q0 -26 -20.5 -44.5t-53.5 -26.5l-6 -11l-31 -1q-27 0 -27 19q0 12 30.5 30t30.5 29q0 14 -23 14zM345 731q-147 0 -184 121h94q23 -50 90 -50t89 50h95q-37 -121 -184 -121zM512 0l-42 127h-249
l-41 -127h-175l260 710h160l262 -710h-175zM267 269h157l-78 239h-2z" />
    <glyph glyph-name="uni1EB3" unicode="&#x1eb3;" horiz-adv-x="591" 
d="M287 837q-31 0 -62 -27l-46 45q51 47 122 47q51 0 79 -22.5t28 -58.5q0 -63 -92 -81l-6 -23l-58 -3q-18 16 -18 30q0 12 20 24.5t39.5 25.5t19.5 27q0 16 -26 16zM291 549q-69 0 -118 42t-54 115h115q2 -24 17 -40t40 -16q24 0 40 15t17 41h115q-5 -68 -51 -112.5
t-121 -44.5zM386 489h157v-489h-148v53h-2q-48 -62 -136 -62q-102 0 -166.5 70t-64.5 183q0 112 64 183.5t160 71.5q82 0 135 -62h1v52zM289 128q44 0 74 32.5t30 83.5q0 50 -29.5 83t-73.5 33q-45 0 -75 -32.5t-30 -83.5q0 -52 29 -84t75 -32z" />
    <glyph glyph-name="uni1EB4" unicode="&#x1eb4;" 
d="M280 903q-26 0 -47 -38l-67 22q15 37 43 59.5t65 22.5q31 0 83 -25q28 -14 49 -14q32 0 53 38l66 -17q-14 -41 -43.5 -64.5t-68.5 -23.5q-33 0 -79 22q-40 18 -54 18zM345 731q-147 0 -184 121h94q23 -50 90 -50t89 50h95q-37 -121 -184 -121zM512 0l-42 127h-249
l-41 -127h-175l260 710h160l262 -710h-175zM267 269h157l-78 239h-2z" />
    <glyph glyph-name="uni1EB5" unicode="&#x1eb5;" horiz-adv-x="591" 
d="M245 771q-22 0 -44 -47l-91 39q17 56 48 91t68 35q13 0 23 -1.5t19.5 -5t13.5 -5.5t14 -8t12 -7q30 -19 50 -19q34 0 55 46l90 -29q-17 -61 -49.5 -98.5t-76.5 -37.5q-41 0 -87 28q-5 3 -12 7t-11 6.5t-10 4t-12 1.5zM291 650q24 0 40 15t17 41h115q-5 -68 -51 -112.5
t-121 -44.5q-69 0 -118 42t-54 115h115q2 -24 17 -40t40 -16zM386 489h157v-489h-148v53h-2q-48 -62 -136 -62q-102 0 -166.5 70t-64.5 183q0 112 64 183.5t160 71.5q82 0 135 -62h1v52zM289 128q44 0 74 32.5t30 83.5q0 50 -29.5 83t-73.5 33q-45 0 -75 -32.5t-30 -83.5
q0 -52 29 -84t75 -32z" />
    <glyph glyph-name="uni1EB6" unicode="&#x1eb6;" 
d="M344 773q-69 0 -118 42t-54 115h115q2 -24 17 -40t40 -16q24 0 40 15t17 41h115q-5 -68 -51 -112.5t-121 -44.5zM687 0h-175l-42 127h-249l-41 -127h-175l260 710h160zM267 269h157l-78 239h-2zM342 -76q41 0 69.5 -25.5t28.5 -65.5t-28.5 -65.5t-69.5 -25.5t-69.5 25.5
t-28.5 65.5t28.5 65.5t69.5 25.5z" />
    <glyph glyph-name="uni1EB7" unicode="&#x1eb7;" horiz-adv-x="591" 
d="M294 549q-69 0 -118 42t-54 115h115q2 -24 17 -40t40 -16q24 0 40 15t17 41h115q-5 -68 -51 -112.5t-121 -44.5zM386 489h157v-489h-148v53h-2q-48 -62 -136 -62q-102 0 -166.5 70t-64.5 183q0 112 64 183.5t160 71.5q82 0 135 -62h1v52zM289 128q44 0 74 32.5t30 83.5
q0 50 -29.5 83t-73.5 33q-45 0 -75 -32.5t-30 -83.5q0 -52 29 -84t75 -32zM288 -76q41 0 69.5 -25.5t28.5 -65.5t-28.5 -65.5t-69.5 -25.5t-69.5 25.5t-28.5 65.5t28.5 65.5t69.5 25.5z" />
    <glyph glyph-name="uni1EB8" unicode="&#x1eb8;" horiz-adv-x="581" 
d="M62 0v710h463v-149h-299v-136h236v-147h-236v-129h320v-149h-484zM308 -76q41 0 69.5 -25.5t28.5 -65.5t-28.5 -65.5t-69.5 -25.5t-69.5 25.5t-28.5 65.5t28.5 65.5t69.5 25.5z" />
    <glyph glyph-name="uni1EB9" unicode="&#x1eb9;" horiz-adv-x="546" 
d="M520 249q0 -26 -4 -46h-332q8 -40 39.5 -62.5t75.5 -22.5q68 0 118 59l83 -93q-33 -42 -89 -67.5t-129 -25.5q-110 0 -182 70.5t-72 183.5q0 111 70 182.5t178 71.5q107 0 175.5 -70t68.5 -180zM278 374q-36 0 -61.5 -20.5t-32.5 -58.5l183 1q-8 36 -31 57t-58 21z
M287 -76q41 0 69.5 -25.5t28.5 -65.5t-28.5 -65.5t-69.5 -25.5t-69.5 25.5t-28.5 65.5t28.5 65.5t69.5 25.5z" />
    <glyph glyph-name="uni1EBA" unicode="&#x1eba;" horiz-adv-x="581" 
d="M261 760q-18 16 -18 30q0 10 12.5 20t27 17t27 18t12.5 22q0 16 -26 16q-30 0 -62 -27l-46 45q51 47 122 47q51 0 79 -22.5t28 -58.5q0 -63 -92 -81l-6 -23zM62 0v710h463v-149h-299v-136h236v-147h-236v-129h320v-149h-484z" />
    <glyph glyph-name="uni1EBB" unicode="&#x1ebb;" horiz-adv-x="546" 
d="M279 660q-31 0 -62 -27l-46 45q51 47 122 47q51 0 79 -22.5t28 -58.5q0 -63 -92 -81l-6 -23l-58 -3q-18 16 -18 30q0 15 39.5 37t39.5 40q0 16 -26 16zM520 249q0 -26 -4 -46h-332q8 -40 39.5 -62.5t75.5 -22.5q68 0 118 59l83 -93q-33 -42 -89 -67.5t-129 -25.5
q-110 0 -182 70.5t-72 183.5q0 111 70 182.5t178 71.5q107 0 175.5 -70t68.5 -180zM278 374q-36 0 -61.5 -20.5t-32.5 -58.5l183 1q-8 36 -31 57t-58 21z" />
    <glyph glyph-name="uni1EBC" unicode="&#x1ebc;" horiz-adv-x="581" 
d="M189 770l-91 39q18 57 50.5 91.5t77.5 34.5q41 0 88 -27q32 -19 50 -19q33 0 56 46l90 -29q-17 -61 -49.5 -98.5t-76.5 -37.5q-42 0 -88 28q-34 19 -52 19q-33 0 -55 -47zM62 0v710h463v-149h-299v-136h236v-147h-236v-129h320v-149h-484z" />
    <glyph glyph-name="uni1EBD" unicode="&#x1ebd;" horiz-adv-x="546" 
d="M227 594q-33 0 -55 -47l-91 39q18 57 50.5 91.5t77.5 34.5q41 0 88 -27q32 -19 50 -19q33 0 56 46l90 -29q-17 -61 -49.5 -98.5t-76.5 -37.5q-42 0 -88 28q-34 19 -52 19zM520 249q0 -26 -4 -46h-332q8 -40 39.5 -62.5t75.5 -22.5q68 0 118 59l83 -93q-33 -42 -89 -67.5
t-129 -25.5q-110 0 -182 70.5t-72 183.5q0 111 70 182.5t178 71.5q107 0 175.5 -70t68.5 -180zM278 374q-36 0 -61.5 -20.5t-32.5 -58.5l183 1q-8 36 -31 57t-58 21z" />
    <glyph glyph-name="uni1EBE" unicode="&#x1ebe;" horiz-adv-x="581" 
d="M564 963l148 1l-144 -150h-115zM299 828l-39 -69h-138l108 153h136l115 -153h-139l-41 69h-2zM226 278v-129h320v-149h-484v710h463v-149h-299v-136h236v-147h-236z" />
    <glyph glyph-name="uni1EBF" unicode="&#x1ebf;" horiz-adv-x="546" 
d="M518 802l147 1l-143 -151h-115zM280 623l-39 -69h-138l108 153h136l115 -153h-139l-41 69h-2zM276 499q107 0 175.5 -70t68.5 -180q0 -26 -4 -46h-332q8 -40 39.5 -62.5t75.5 -22.5q68 0 118 59l83 -93q-33 -42 -89 -67.5t-129 -25.5q-110 0 -182 70.5t-72 183.5
q0 111 70 182.5t178 71.5zM278 374q-36 0 -61.5 -20.5t-32.5 -58.5l183 1q-8 36 -31 57t-58 21z" />
    <glyph glyph-name="uni1EC0" unicode="&#x1ec0;" horiz-adv-x="581" 
d="M614 814h-111l-117 150h143zM300 828l-39 -69h-138l108 153h136l115 -153h-139l-41 69h-2zM226 278v-129h320v-149h-484v710h463v-149h-299v-136h236v-147h-236z" />
    <glyph glyph-name="uni1EC1" unicode="&#x1ec1;" horiz-adv-x="546" 
d="M561 653h-111l-117 151l143 -1zM282 623l-39 -69h-138l108 153h136l115 -153h-139l-41 69h-2zM276 499q107 0 175.5 -70t68.5 -180q0 -26 -4 -46h-332q8 -40 39.5 -62.5t75.5 -22.5q68 0 118 59l83 -93q-33 -42 -89 -67.5t-129 -25.5q-110 0 -182 70.5t-72 183.5
q0 111 70 182.5t178 71.5zM278 374q-36 0 -61.5 -20.5t-32.5 -58.5l183 1q-8 36 -31 57t-58 21z" />
    <glyph glyph-name="uni1EC2" unicode="&#x1ec2;" horiz-adv-x="581" 
d="M534 972q48 0 75 -22.5t27 -58.5q0 -31 -23 -51.5t-63 -29.5l-6 -22l-58 -4q-18 18 -18 31q0 15 39 37t39 39t-25 17q-31 0 -63 -28l-46 45q49 47 122 47zM298 828l-39 -69h-138l108 153h136l115 -153h-139l-41 69h-2zM226 278v-129h320v-149h-484v710h463v-149h-299
v-136h236v-147h-236z" />
    <glyph glyph-name="uni1EC3" unicode="&#x1ec3;" horiz-adv-x="546" 
d="M486 813q47 0 74.5 -22.5t27.5 -58.5q0 -31 -23.5 -51.5t-63.5 -29.5l-6 -23l-58 -3q-18 18 -18 31q0 10 12 20t27 16.5t27 17.5t12 22q0 17 -25 17q-28 0 -63 -28l-45 45q47 47 122 47zM280 623l-39 -69h-138l108 153h136l115 -153h-139l-41 69h-2zM276 499
q107 0 175.5 -70t68.5 -180q0 -26 -4 -46h-332q8 -40 39.5 -62.5t75.5 -22.5q68 0 118 59l83 -93q-33 -42 -89 -67.5t-129 -25.5q-110 0 -182 70.5t-72 183.5q0 111 70 182.5t178 71.5zM278 374q-36 0 -61.5 -20.5t-32.5 -58.5l183 1q-8 36 -31 57t-58 21z" />
    <glyph glyph-name="uni1EC4" unicode="&#x1ec4;" horiz-adv-x="581" 
d="M236 902q-26 0 -47 -38l-67 22q15 37 43 59.5t65 22.5q31 0 83 -25q28 -14 49 -14q32 0 53 38l66 -17q-14 -41 -43.5 -64.5t-68.5 -23.5q-33 0 -79 22q-40 18 -54 18zM299 788l-59 -52h-132l131 109h117l138 -109h-133l-60 52h-2zM226 149h320v-149h-484v710h463v-149
h-299v-136h236v-147h-236v-129z" />
    <glyph glyph-name="uni1EC5" unicode="&#x1ec5;" horiz-adv-x="546" 
d="M240 771q-22 0 -44 -47l-91 39q17 56 48 91t68 35q13 0 23 -1.5t19.5 -5t13.5 -5.5t14 -8t12 -7q30 -19 50 -19q34 0 55 46l90 -29q-17 -61 -49.5 -98.5t-76.5 -37.5q-41 0 -87 28q-5 3 -12 7t-11 6.5t-10 4t-12 1.5zM214 707h136l115 -153h-139l-41 69h-2l-39 -69h-138z
M520 249q0 -26 -4 -46h-332q8 -40 39.5 -62.5t75.5 -22.5q68 0 118 59l83 -93q-33 -42 -89 -67.5t-129 -25.5q-110 0 -182 70.5t-72 183.5q0 111 70 182.5t178 71.5q107 0 175.5 -70t68.5 -180zM278 374q-36 0 -61.5 -20.5t-32.5 -58.5l183 1q-8 36 -31 57t-58 21z" />
    <glyph glyph-name="uni1EC6" unicode="&#x1ec6;" horiz-adv-x="581" 
d="M297 846l-39 -69h-138l108 153h136l115 -153h-139l-41 69h-2zM226 149h320v-149h-484v710h463v-149h-299v-136h236v-147h-236v-129zM308 -76q41 0 69.5 -25.5t28.5 -65.5t-28.5 -65.5t-69.5 -25.5t-69.5 25.5t-28.5 65.5t28.5 65.5t69.5 25.5z" />
    <glyph glyph-name="uni1EC7" unicode="&#x1ec7;" horiz-adv-x="546" 
d="M280 623l-39 -69h-138l108 153h136l115 -153h-139l-41 69h-2zM520 249q0 -26 -4 -46h-332q8 -40 39.5 -62.5t75.5 -22.5q68 0 118 59l83 -93q-33 -42 -89 -67.5t-129 -25.5q-110 0 -182 70.5t-72 183.5q0 111 70 182.5t178 71.5q107 0 175.5 -70t68.5 -180zM278 374
q-36 0 -61.5 -20.5t-32.5 -58.5l183 1q-8 36 -31 57t-58 21zM287 -76q41 0 69.5 -25.5t28.5 -65.5t-28.5 -65.5t-69.5 -25.5t-69.5 25.5t-28.5 65.5t28.5 65.5t69.5 25.5z" />
    <glyph glyph-name="uni1EC8" unicode="&#x1ec8;" horiz-adv-x="302" 
d="M109 760q-18 16 -18 30q0 10 12.5 20t27 17t27 18t12.5 22q0 16 -26 16q-30 0 -62 -27l-46 45q51 47 122 47q51 0 79 -22.5t28 -58.5q0 -63 -92 -81l-6 -23zM66 0v710h169v-710h-169z" />
    <glyph glyph-name="uni1EC9" unicode="&#x1ec9;" horiz-adv-x="270" 
d="M95 537q-18 16 -18 30q0 15 39.5 37t39.5 40q0 16 -26 16q-30 0 -62 -27l-46 45q51 47 122 47q51 0 79 -22.5t28 -58.5q0 -63 -92 -81l-6 -23zM57 0v489h155v-489h-155z" />
    <glyph glyph-name="uni1ECA" unicode="&#x1eca;" horiz-adv-x="302" 
d="M66 0v710h169v-710h-169zM148 -76q41 0 69.5 -25.5t28.5 -65.5t-28.5 -65.5t-69.5 -25.5t-69.5 25.5t-28.5 65.5t28.5 65.5t69.5 25.5z" />
    <glyph glyph-name="uni1ECB" unicode="&#x1ecb;" horiz-adv-x="270" 
d="M135 548q-41 0 -69.5 25.5t-28.5 65.5t28.5 65.5t69.5 25.5t69.5 -25.5t28.5 -65.5t-28.5 -65.5t-69.5 -25.5zM57 0v489h155v-489h-155zM141 -76q41 0 69.5 -25.5t28.5 -65.5t-28.5 -65.5t-69.5 -25.5t-69.5 25.5t-28.5 65.5t28.5 65.5t69.5 25.5z" />
    <glyph glyph-name="uni1ECC" unicode="&#x1ecc;" horiz-adv-x="802" 
d="M402 -10q-162 0 -264 102.5t-102 262.5q0 161 102 263t264 102q160 0 262 -101t102 -264q0 -162 -102 -263.5t-262 -101.5zM402 146q82 0 136 60t54 149q0 90 -54 149.5t-136 59.5q-84 0 -138 -60t-54 -149q0 -88 54 -148.5t138 -60.5zM401 -76q41 0 69.5 -25.5
t28.5 -65.5t-28.5 -65.5t-69.5 -25.5t-69.5 25.5t-28.5 65.5t28.5 65.5t69.5 25.5z" />
    <glyph glyph-name="uni1ECD" unicode="&#x1ecd;" horiz-adv-x="583" 
d="M292 -10q-117 0 -190.5 71t-73.5 183t73.5 183.5t190.5 71.5q116 0 190 -71t74 -184q0 -112 -74 -183t-190 -71zM292 129q45 0 75.5 32.5t30.5 82.5q0 51 -30 83t-76 32q-47 0 -76.5 -32.5t-29.5 -82.5q0 -49 30 -82t76 -33zM291 -76q41 0 69.5 -25.5t28.5 -65.5
t-28.5 -65.5t-69.5 -25.5t-69.5 25.5t-28.5 65.5t28.5 65.5t69.5 25.5z" />
    <glyph glyph-name="uni1ECE" unicode="&#x1ece;" horiz-adv-x="802" 
d="M362 761q-18 16 -18 30q0 15 39.5 37t39.5 40q0 16 -26 16q-31 0 -62 -27l-46 45q51 47 122 47q51 0 79 -22.5t28 -58.5q0 -63 -92 -81l-6 -23zM402 -10q-162 0 -264 102.5t-102 262.5q0 161 102 263t264 102q160 0 262 -101t102 -264q0 -162 -102 -263.5t-262 -101.5z
M402 146q82 0 136 60t54 149q0 90 -54 149.5t-136 59.5q-84 0 -138 -60t-54 -149q0 -88 54 -148.5t138 -60.5z" />
    <glyph glyph-name="uni1ECF" unicode="&#x1ecf;" horiz-adv-x="583" 
d="M252 537q-18 16 -18 30q0 15 39.5 37t39.5 40q0 16 -26 16q-31 0 -62 -27l-46 45q51 47 122 47q51 0 79 -22.5t28 -58.5q0 -63 -92 -81l-6 -23zM292 -10q-117 0 -190.5 71t-73.5 183t73.5 183.5t190.5 71.5q116 0 190 -71t74 -184q0 -112 -74 -183t-190 -71zM292 129
q45 0 75.5 32.5t30.5 82.5q0 51 -30 83t-76 32q-47 0 -76.5 -32.5t-29.5 -82.5q0 -49 30 -82t76 -33z" />
    <glyph glyph-name="uni1ED0" unicode="&#x1ed0;" horiz-adv-x="802" 
d="M813 965l-144 -150h-115l111 149zM400 829l-39 -69h-138l108 153h136l115 -153h-139l-41 69h-2zM402 720q160 0 262 -101t102 -264q0 -162 -102 -263.5t-262 -101.5q-162 0 -264 102.5t-102 262.5q0 161 102 263t264 102zM402 146q82 0 136 60t54 149q0 90 -54 149.5
t-136 59.5q-84 0 -138 -60t-54 -149q0 -88 54 -148.5t138 -60.5z" />
    <glyph glyph-name="uni1ED1" unicode="&#x1ed1;" horiz-adv-x="583" 
d="M673 803l-143 -151h-115l111 150zM288 623l-39 -69h-138l108 153h136l115 -153h-139l-41 69h-2zM292 499q116 0 190 -71t74 -184q0 -112 -74 -183t-190 -71q-117 0 -190.5 71t-73.5 183t73.5 183.5t190.5 71.5zM292 129q45 0 75.5 32.5t30.5 82.5q0 51 -30 83t-76 32
q-47 0 -76.5 -32.5t-29.5 -82.5q0 -49 30 -82t76 -33z" />
    <glyph glyph-name="uni1ED2" unicode="&#x1ed2;" horiz-adv-x="802" 
d="M715 815h-111l-117 150h143zM401 829l-39 -69h-138l108 153h136l115 -153h-139l-41 69h-2zM402 720q160 0 262 -101t102 -264q0 -162 -102 -263.5t-262 -101.5q-162 0 -264 102.5t-102 262.5q0 161 102 263t264 102zM402 146q82 0 136 60t54 149q0 90 -54 149.5
t-136 59.5q-84 0 -138 -60t-54 -149q0 -88 54 -148.5t138 -60.5z" />
    <glyph glyph-name="uni1ED3" unicode="&#x1ed3;" horiz-adv-x="583" 
d="M569 653h-111l-117 151l143 -1zM290 623l-39 -69h-138l108 153h136l115 -153h-139l-41 69h-2zM292 499q116 0 190 -71t74 -184q0 -112 -74 -183t-190 -71q-117 0 -190.5 71t-73.5 183t73.5 183.5t190.5 71.5zM292 129q45 0 75.5 32.5t30.5 82.5q0 51 -30 83t-76 32
q-47 0 -76.5 -32.5t-29.5 -82.5q0 -49 30 -82t76 -33z" />
    <glyph glyph-name="uni1ED4" unicode="&#x1ed4;" horiz-adv-x="802" 
d="M622 909q-31 0 -63 -28l-46 45q49 47 122 47q48 0 75 -22.5t27 -58.5q0 -31 -23 -51.5t-63 -29.5l-6 -22l-58 -4q-18 18 -18 31q0 15 39 37t39 39t-25 17zM399 829l-39 -69h-138l108 153h136l115 -153h-139l-41 69h-2zM402 720q160 0 262 -101t102 -264
q0 -162 -102 -263.5t-262 -101.5q-162 0 -264 102.5t-102 262.5q0 161 102 263t264 102zM402 146q82 0 136 60t54 149q0 90 -54 149.5t-136 59.5q-84 0 -138 -60t-54 -149q0 -88 54 -148.5t138 -60.5z" />
    <glyph glyph-name="uni1ED5" unicode="&#x1ed5;" horiz-adv-x="583" 
d="M494 813q47 0 74.5 -22.5t27.5 -58.5q0 -31 -23.5 -51.5t-63.5 -29.5l-6 -23l-58 -3q-18 18 -18 31q0 10 12 20t27 16.5t27 17.5t12 22q0 17 -25 17q-28 0 -63 -28l-45 45q47 47 122 47zM288 623l-39 -69h-138l108 153h136l115 -153h-139l-41 69h-2zM292 499
q116 0 190 -71t74 -184q0 -112 -74 -183t-190 -71q-117 0 -190.5 71t-73.5 183t73.5 183.5t190.5 71.5zM292 129q45 0 75.5 32.5t30.5 82.5q0 51 -30 83t-76 32q-47 0 -76.5 -32.5t-29.5 -82.5q0 -49 30 -82t76 -33z" />
    <glyph glyph-name="uni1ED6" unicode="&#x1ed6;" horiz-adv-x="802" 
d="M337 903q-26 0 -47 -38l-67 22q15 37 43 59.5t65 22.5q31 0 83 -25q28 -14 49 -14q32 0 53 38l66 -17q-14 -41 -43.5 -64.5t-68.5 -23.5q-33 0 -79 22q-40 18 -54 18zM400 789l-59 -52h-132l131 109h117l138 -109h-133l-60 52h-2zM402 720q160 0 262 -101t102 -264
q0 -162 -102 -263.5t-262 -101.5q-162 0 -264 102.5t-102 262.5q0 161 102 263t264 102zM402 146q82 0 136 60t54 149q0 90 -54 149.5t-136 59.5q-84 0 -138 -60t-54 -149q0 -88 54 -148.5t138 -60.5z" />
    <glyph glyph-name="uni1ED7" unicode="&#x1ed7;" horiz-adv-x="583" 
d="M248 771q-22 0 -44 -47l-91 39q17 56 48 91t68 35q13 0 23 -1.5t19.5 -5t13.5 -5.5t14 -8t12 -7q30 -19 50 -19q34 0 55 46l90 -29q-17 -61 -49.5 -98.5t-76.5 -37.5q-41 0 -87 28q-5 3 -12 7t-11 6.5t-10 4t-12 1.5zM222 707h136l115 -153h-139l-41 69h-2l-39 -69h-138z
M292 499q116 0 190 -71t74 -184q0 -112 -74 -183t-190 -71q-117 0 -190.5 71t-73.5 183t73.5 183.5t190.5 71.5zM292 129q45 0 75.5 32.5t30.5 82.5q0 51 -30 83t-76 32q-47 0 -76.5 -32.5t-29.5 -82.5q0 -49 30 -82t76 -33z" />
    <glyph glyph-name="uni1ED8" unicode="&#x1ed8;" horiz-adv-x="802" 
d="M398 847l-39 -69h-138l108 153h136l115 -153h-139l-41 69h-2zM402 720q160 0 262 -101t102 -264q0 -162 -102 -263.5t-262 -101.5q-162 0 -264 102.5t-102 262.5q0 161 102 263t264 102zM402 146q82 0 136 60t54 149q0 90 -54 149.5t-136 59.5q-84 0 -138 -60t-54 -149
q0 -88 54 -148.5t138 -60.5zM401 -76q41 0 69.5 -25.5t28.5 -65.5t-28.5 -65.5t-69.5 -25.5t-69.5 25.5t-28.5 65.5t28.5 65.5t69.5 25.5z" />
    <glyph glyph-name="uni1ED9" unicode="&#x1ed9;" horiz-adv-x="583" 
d="M288 623l-39 -69h-138l108 153h136l115 -153h-139l-41 69h-2zM292 499q116 0 190 -71t74 -184q0 -112 -74 -183t-190 -71q-117 0 -190.5 71t-73.5 183t73.5 183.5t190.5 71.5zM292 129q45 0 75.5 32.5t30.5 82.5q0 51 -30 83t-76 32q-47 0 -76.5 -32.5t-29.5 -82.5
q0 -49 30 -82t76 -33zM291 -76q41 0 69.5 -25.5t28.5 -65.5t-28.5 -65.5t-69.5 -25.5t-69.5 25.5t-28.5 65.5t28.5 65.5t69.5 25.5z" />
    <glyph glyph-name="uni1EDA" unicode="&#x1eda;" horiz-adv-x="848" 
d="M605 931l-124 -151h-147l112 150zM714 774h133v-76q0 -138 -117 -172v-1q36 -77 36 -170q0 -162 -102 -263.5t-262 -101.5q-162 0 -264 102.5t-102 262.5q0 161 102 263t264 102q178 0 281 -122q19 12 25 34.5t6 62.5v79zM402 146q82 0 136 60t54 149q0 90 -54 149.5
t-136 59.5q-84 0 -138 -60t-54 -149q0 -88 54 -148.5t138 -60.5z" />
    <glyph glyph-name="uni1EDB" unicode="&#x1edb;" horiz-adv-x="677" 
d="M490 706l-124 -151h-147l112 150zM539 565h133v-76q0 -144 -125 -174q9 -33 9 -71q0 -112 -74 -183t-190 -71q-117 0 -190.5 71t-73.5 183t73.5 183.5t190.5 71.5q71 0 128.5 -28t91.5 -79q27 20 27 94v79zM292 129q45 0 75.5 32.5t30.5 82.5q0 51 -30 83t-76 32
q-47 0 -76.5 -32.5t-29.5 -82.5q0 -49 30 -82t76 -33z" />
    <glyph glyph-name="uni1EDC" unicode="&#x1edc;" horiz-adv-x="848" 
d="M486 780h-146l-124 151l160 -1zM714 774h133v-76q0 -138 -117 -172v-1q36 -77 36 -170q0 -162 -102 -263.5t-262 -101.5q-162 0 -264 102.5t-102 262.5q0 161 102 263t264 102q178 0 281 -122q19 12 25 34.5t6 62.5v79zM402 146q82 0 136 60t54 149q0 90 -54 149.5
t-136 59.5q-84 0 -138 -60t-54 -149q0 -88 54 -148.5t138 -60.5z" />
    <glyph glyph-name="uni1EDD" unicode="&#x1edd;" horiz-adv-x="677" 
d="M382 555h-146l-124 151l160 -1zM539 565h133v-76q0 -144 -125 -174q9 -33 9 -71q0 -112 -74 -183t-190 -71q-117 0 -190.5 71t-73.5 183t73.5 183.5t190.5 71.5q71 0 128.5 -28t91.5 -79q27 20 27 94v79zM292 129q45 0 75.5 32.5t30.5 82.5q0 51 -30 83t-76 32
q-47 0 -76.5 -32.5t-29.5 -82.5q0 -49 30 -82t76 -33z" />
    <glyph glyph-name="uni1EDE" unicode="&#x1ede;" horiz-adv-x="848" 
d="M397 884q-31 0 -62 -27l-46 45q51 47 122 47q51 0 79 -22.5t28 -58.5q0 -63 -92 -81l-6 -23l-58 -3q-18 16 -18 30q0 15 39.5 37t39.5 40q0 16 -26 16zM714 774h133v-76q0 -138 -117 -172v-1q36 -77 36 -170q0 -162 -102 -263.5t-262 -101.5q-162 0 -264 102.5
t-102 262.5q0 161 102 263t264 102q178 0 281 -122q19 12 25 34.5t6 62.5v79zM402 146q82 0 136 60t54 149q0 90 -54 149.5t-136 59.5q-84 0 -138 -60t-54 -149q0 -88 54 -148.5t138 -60.5z" />
    <glyph glyph-name="uni1EDF" unicode="&#x1edf;" horiz-adv-x="677" 
d="M287 660q-31 0 -62 -27l-46 45q51 47 122 47q51 0 79 -22.5t28 -58.5q0 -63 -92 -81l-6 -23l-58 -3q-18 16 -18 30q0 15 39.5 37t39.5 40q0 16 -26 16zM539 565h133v-76q0 -144 -125 -174q9 -33 9 -71q0 -112 -74 -183t-190 -71q-117 0 -190.5 71t-73.5 183t73.5 183.5
t190.5 71.5q71 0 128.5 -28t91.5 -79q27 20 27 94v79zM292 129q45 0 75.5 32.5t30.5 82.5q0 51 -30 83t-76 32q-47 0 -76.5 -32.5t-29.5 -82.5q0 -49 30 -82t76 -33z" />
    <glyph glyph-name="uni1EE0" unicode="&#x1ee0;" horiz-adv-x="848" 
d="M345 818q-33 0 -55 -47l-91 39q18 57 50.5 91.5t77.5 34.5q41 0 88 -27q32 -19 50 -19q33 0 56 46l90 -29q-17 -61 -49.5 -98.5t-76.5 -37.5q-42 0 -88 28q-34 19 -52 19zM714 774h133v-76q0 -138 -117 -172v-1q36 -77 36 -170q0 -162 -102 -263.5t-262 -101.5
q-162 0 -264 102.5t-102 262.5q0 161 102 263t264 102q178 0 281 -122q19 12 25 34.5t6 62.5v79zM402 146q82 0 136 60t54 149q0 90 -54 149.5t-136 59.5q-84 0 -138 -60t-54 -149q0 -88 54 -148.5t138 -60.5z" />
    <glyph glyph-name="uni1EE1" unicode="&#x1ee1;" horiz-adv-x="677" 
d="M235 594q-33 0 -55 -47l-91 39q18 57 50.5 91.5t77.5 34.5q41 0 88 -27q32 -19 50 -19q33 0 56 46l90 -29q-17 -61 -49.5 -98.5t-76.5 -37.5q-42 0 -88 28q-34 19 -52 19zM539 565h133v-76q0 -144 -125 -174q9 -33 9 -71q0 -112 -74 -183t-190 -71q-117 0 -190.5 71
t-73.5 183t73.5 183.5t190.5 71.5q71 0 128.5 -28t91.5 -79q27 20 27 94v79zM292 129q45 0 75.5 32.5t30.5 82.5q0 51 -30 83t-76 32q-47 0 -76.5 -32.5t-29.5 -82.5q0 -49 30 -82t76 -33z" />
    <glyph glyph-name="uni1EE2" unicode="&#x1ee2;" horiz-adv-x="848" 
d="M714 774h133v-76q0 -138 -117 -172v-1q36 -77 36 -170q0 -162 -102 -263.5t-262 -101.5q-162 0 -264 102.5t-102 262.5q0 161 102 263t264 102q178 0 281 -122q19 12 25 34.5t6 62.5v79zM402 146q82 0 136 60t54 149q0 90 -54 149.5t-136 59.5q-84 0 -138 -60t-54 -149
q0 -88 54 -148.5t138 -60.5zM401 -76q41 0 69.5 -25.5t28.5 -65.5t-28.5 -65.5t-69.5 -25.5t-69.5 25.5t-28.5 65.5t28.5 65.5t69.5 25.5z" />
    <glyph glyph-name="uni1EE3" unicode="&#x1ee3;" horiz-adv-x="677" 
d="M539 565h133v-76q0 -144 -125 -174q9 -33 9 -71q0 -112 -74 -183t-190 -71q-117 0 -190.5 71t-73.5 183t73.5 183.5t190.5 71.5q71 0 128.5 -28t91.5 -79q27 20 27 94v79zM292 129q45 0 75.5 32.5t30.5 82.5q0 51 -30 83t-76 32q-47 0 -76.5 -32.5t-29.5 -82.5
q0 -49 30 -82t76 -33zM291 -76q41 0 69.5 -25.5t28.5 -65.5t-28.5 -65.5t-69.5 -25.5t-69.5 25.5t-28.5 65.5t28.5 65.5t69.5 25.5z" />
    <glyph glyph-name="uni1EE4" unicode="&#x1ee4;" horiz-adv-x="696" 
d="M347 -10q-134 0 -213.5 80.5t-79.5 225.5v414h169v-403q0 -69 32.5 -114.5t91.5 -45.5q56 0 91.5 43t35.5 117v403h168v-414q0 -141 -77.5 -223.5t-217.5 -82.5zM346 -76q41 0 69.5 -25.5t28.5 -65.5t-28.5 -65.5t-69.5 -25.5t-69.5 25.5t-28.5 65.5t28.5 65.5t69.5 25.5
z" />
    <glyph glyph-name="uni1EE5" unicode="&#x1ee5;" horiz-adv-x="566" 
d="M361 489h157v-489h-157v55h-3q-53 -64 -138 -64q-176 0 -176 208v290h156v-251q0 -59 17.5 -83.5t57.5 -24.5q37 0 61.5 30t24.5 87v242zM287 -76q41 0 69.5 -25.5t28.5 -65.5t-28.5 -65.5t-69.5 -25.5t-69.5 25.5t-28.5 65.5t28.5 65.5t69.5 25.5z" />
    <glyph glyph-name="uni1EE6" unicode="&#x1ee6;" horiz-adv-x="696" 
d="M308 761q-18 16 -18 30q0 15 39.5 37t39.5 40q0 16 -26 16q-31 0 -62 -27l-46 45q51 47 122 47q51 0 79 -22.5t28 -58.5q0 -63 -92 -81l-6 -23zM347 -10q-134 0 -213.5 80.5t-79.5 225.5v414h169v-403q0 -69 32.5 -114.5t91.5 -45.5q56 0 91.5 43t35.5 117v403h168v-414
q0 -141 -77.5 -223.5t-217.5 -82.5z" />
    <glyph glyph-name="uni1EE7" unicode="&#x1ee7;" horiz-adv-x="566" 
d="M279 660q-31 0 -62 -27l-46 45q51 47 122 47q51 0 79 -22.5t28 -58.5q0 -63 -92 -81l-6 -23l-58 -3q-18 16 -18 30q0 15 39.5 37t39.5 40q0 16 -26 16zM361 489h157v-489h-157v55h-3q-53 -64 -138 -64q-176 0 -176 208v290h156v-251q0 -59 17.5 -83.5t57.5 -24.5
q37 0 61.5 30t24.5 87v242z" />
    <glyph glyph-name="uni1EE8" unicode="&#x1ee8;" horiz-adv-x="824" 
d="M296 931l-124 -151h-147l112 150zM705 774h133v-76q0 -92 -52 -137.5t-144 -43.5v-221q0 -141 -77.5 -223.5t-217.5 -82.5q-134 0 -213.5 80.5t-79.5 225.5v414h169v-403q0 -69 32.5 -114.5t91.5 -45.5q56 0 91.5 43t35.5 117v403h168v-123q40 7 51.5 31.5t11.5 76.5v79z
" />
    <glyph glyph-name="uni1EE9" unicode="&#x1ee9;" horiz-adv-x="705" 
d="M478 706l-124 -151h-147l112 150zM570 565h133v-76q0 -89 -49 -134t-136 -47v-308h-157v55h-3q-53 -64 -138 -64q-176 0 -176 208v290h156v-251q0 -59 17.5 -83.5t57.5 -24.5q37 0 61.5 30t24.5 87v242h157v-109q33 9 42.5 33t9.5 73v79z" />
    <glyph glyph-name="uni1EEA" unicode="&#x1eea;" horiz-adv-x="824" 
d="M72 930l110 -150h-146l-124 151zM705 774h133v-76q0 -92 -52 -137.5t-144 -43.5v-221q0 -141 -77.5 -223.5t-217.5 -82.5q-134 0 -213.5 80.5t-79.5 225.5v414h169v-403q0 -69 32.5 -114.5t91.5 -45.5q56 0 91.5 43t35.5 117v403h168v-123q40 7 51.5 31.5t11.5 76.5v79z
" />
    <glyph glyph-name="uni1EEB" unicode="&#x1eeb;" horiz-adv-x="705" 
d="M377 555h-146l-124 151l160 -1zM570 565h133v-76q0 -89 -49 -134t-136 -47v-308h-157v55h-3q-53 -64 -138 -64q-176 0 -176 208v290h156v-251q0 -59 17.5 -83.5t57.5 -24.5q37 0 61.5 30t24.5 87v242h157v-109q33 9 42.5 33t9.5 73v79z" />
    <glyph glyph-name="uni1EEC" unicode="&#x1eec;" horiz-adv-x="824" 
d="M343 884q-31 0 -62 -27l-46 45q51 47 122 47q51 0 79 -22.5t28 -58.5q0 -63 -92 -81l-6 -23l-58 -3q-18 16 -18 30q0 15 39.5 37t39.5 40q0 16 -26 16zM705 774h133v-76q0 -92 -52 -137.5t-144 -43.5v-221q0 -141 -77.5 -223.5t-217.5 -82.5q-134 0 -213.5 80.5
t-79.5 225.5v414h169v-403q0 -69 32.5 -114.5t91.5 -45.5q56 0 91.5 43t35.5 117v403h168v-123q40 7 51.5 31.5t11.5 76.5v79z" />
    <glyph glyph-name="uni1EED" unicode="&#x1eed;" horiz-adv-x="705" 
d="M279 660q-31 0 -62 -27l-46 45q51 47 122 47q51 0 79 -22.5t28 -58.5q0 -63 -92 -81l-6 -23l-58 -3q-18 16 -18 30q0 15 39.5 37t39.5 40q0 16 -26 16zM570 565h133v-76q0 -89 -49 -134t-136 -47v-308h-157v55h-3q-53 -64 -138 -64q-176 0 -176 208v290h156v-251
q0 -59 17.5 -83.5t57.5 -24.5q37 0 61.5 30t24.5 87v242h157v-109q33 9 42.5 33t9.5 73v79z" />
    <glyph glyph-name="uni1EEE" unicode="&#x1eee;" horiz-adv-x="824" 
d="M291 818q-33 0 -55 -47l-91 39q18 57 50.5 91.5t77.5 34.5q41 0 88 -27q32 -19 50 -19q33 0 56 46l90 -29q-17 -61 -49.5 -98.5t-76.5 -37.5q-42 0 -88 28q-34 19 -52 19zM705 774h133v-76q0 -92 -52 -137.5t-144 -43.5v-221q0 -141 -77.5 -223.5t-217.5 -82.5
q-134 0 -213.5 80.5t-79.5 225.5v414h169v-403q0 -69 32.5 -114.5t91.5 -45.5q56 0 91.5 43t35.5 117v403h168v-123q40 7 51.5 31.5t11.5 76.5v79z" />
    <glyph glyph-name="uni1EEF" unicode="&#x1eef;" horiz-adv-x="705" 
d="M227 594q-33 0 -55 -47l-91 39q18 57 50.5 91.5t77.5 34.5q41 0 88 -27q32 -19 50 -19q33 0 56 46l90 -29q-17 -61 -49.5 -98.5t-76.5 -37.5q-42 0 -88 28q-34 19 -52 19zM570 565h133v-76q0 -89 -49 -134t-136 -47v-308h-157v55h-3q-53 -64 -138 -64q-176 0 -176 208
v290h156v-251q0 -59 17.5 -83.5t57.5 -24.5q37 0 61.5 30t24.5 87v242h157v-109q33 9 42.5 33t9.5 73v79z" />
    <glyph glyph-name="uni1EF0" unicode="&#x1ef0;" horiz-adv-x="824" 
d="M705 774h133v-76q0 -92 -52 -137.5t-144 -43.5v-221q0 -141 -77.5 -223.5t-217.5 -82.5q-134 0 -213.5 80.5t-79.5 225.5v414h169v-403q0 -69 32.5 -114.5t91.5 -45.5q56 0 91.5 43t35.5 117v403h168v-123q40 7 51.5 31.5t11.5 76.5v79zM346 -76q41 0 69.5 -25.5
t28.5 -65.5t-28.5 -65.5t-69.5 -25.5t-69.5 25.5t-28.5 65.5t28.5 65.5t69.5 25.5z" />
    <glyph glyph-name="uni1EF1" unicode="&#x1ef1;" horiz-adv-x="705" 
d="M570 565h133v-76q0 -89 -49 -134t-136 -47v-308h-157v55h-3q-53 -64 -138 -64q-176 0 -176 208v290h156v-251q0 -59 17.5 -83.5t57.5 -24.5q37 0 61.5 30t24.5 87v242h157v-109q33 9 42.5 33t9.5 73v79zM287 -76q41 0 69.5 -25.5t28.5 -65.5t-28.5 -65.5t-69.5 -25.5
t-69.5 25.5t-28.5 65.5t28.5 65.5t69.5 25.5z" />
    <glyph glyph-name="Ygrave" unicode="&#x1ef2;" horiz-adv-x="631" 
d="M401 780h-146l-124 151l160 -1zM439 710h194l-234 -401v-309h-169v309l-232 401h191l124 -235h4z" />
    <glyph glyph-name="ygrave" unicode="&#x1ef3;" horiz-adv-x="532" 
d="M357 553h-146l-124 151l160 -1zM365 489h160l-257 -687h-155l85 231l-191 456h162l99 -265h3z" />
    <glyph glyph-name="uni1EF4" unicode="&#x1ef4;" horiz-adv-x="631" 
d="M230 0v309l-232 401h191l124 -235h4l122 235h194l-234 -401v-309h-169zM313 -76q41 0 69.5 -25.5t28.5 -65.5t-28.5 -65.5t-69.5 -25.5t-69.5 25.5t-28.5 65.5t28.5 65.5t69.5 25.5z" />
    <glyph glyph-name="uni1EF5" unicode="&#x1ef5;" horiz-adv-x="532" 
d="M365 489h160l-257 -687h-155l85 231l-191 456h162l99 -265h3zM438 -76q41 0 69.5 -25.5t28.5 -65.5t-28.5 -65.5t-69.5 -25.5t-69.5 25.5t-28.5 65.5t28.5 65.5t69.5 25.5z" />
    <glyph glyph-name="uni1EF6" unicode="&#x1ef6;" horiz-adv-x="631" 
d="M311 884q-31 0 -62 -27l-46 45q51 47 122 47q51 0 79 -22.5t28 -58.5q0 -63 -92 -81l-6 -23l-58 -3q-18 16 -18 30q0 15 39.5 37t39.5 40q0 16 -26 16zM439 710h194l-234 -401v-309h-169v309l-232 401h191l124 -235h4z" />
    <glyph glyph-name="uni1EF7" unicode="&#x1ef7;" horiz-adv-x="532" 
d="M263 660q-31 0 -62 -27l-46 45q51 47 122 47q51 0 79 -22.5t28 -58.5q0 -63 -92 -81l-6 -23l-58 -3q-18 16 -18 30q0 15 39.5 37t39.5 40q0 16 -26 16zM365 489h160l-257 -687h-155l85 231l-191 456h162l99 -265h3z" />
    <glyph glyph-name="uni1EF8" unicode="&#x1ef8;" horiz-adv-x="631" 
d="M259 818q-33 0 -55 -47l-91 39q18 57 50.5 91.5t77.5 34.5q41 0 88 -27q32 -19 50 -19q33 0 56 46l90 -29q-17 -61 -49.5 -98.5t-76.5 -37.5q-42 0 -88 28q-34 19 -52 19zM439 710h194l-234 -401v-309h-169v309l-232 401h191l124 -235h4z" />
    <glyph glyph-name="uni1EF9" unicode="&#x1ef9;" horiz-adv-x="532" 
d="M211 594q-33 0 -55 -47l-91 39q18 57 50.5 91.5t77.5 34.5q41 0 88 -27q32 -19 50 -19q33 0 56 46l90 -29q-17 -61 -49.5 -98.5t-76.5 -37.5q-42 0 -88 28q-34 19 -52 19zM365 489h160l-257 -687h-155l85 231l-191 456h162l99 -265h3z" />
    <glyph glyph-name="uni2002" unicode="&#x2002;" horiz-adv-x="467" 
 />
    <glyph glyph-name="uni2003" unicode="&#x2003;" horiz-adv-x="934" 
 />
    <glyph glyph-name="uni2009" unicode="&#x2009;" horiz-adv-x="15" 
 />
    <glyph glyph-name="endash" unicode="&#x2013;" horiz-adv-x="541" 
d="M37 232v132h467v-132h-467z" />
    <glyph glyph-name="emdash" unicode="&#x2014;" horiz-adv-x="1008" 
d="M37 232v132h934v-132h-934z" />
    <glyph glyph-name="uni2015" unicode="&#x2015;" horiz-adv-x="1188" 
d="M43 232v132h1102v-132h-1102z" />
    <glyph glyph-name="quoteleft" unicode="&#x2018;" horiz-adv-x="232" 
d="M219 709l-30 -270h-156l68 270h118z" />
    <glyph glyph-name="quoteright" unicode="&#x2019;" horiz-adv-x="232" 
d="M26 440l30 270h156l-68 -270h-118z" />
    <glyph glyph-name="quotesinglbase" unicode="&#x201a;" horiz-adv-x="243" 
d="M16 -134l30 270h157l-75 -270h-112z" />
    <glyph glyph-name="quotedblleft" unicode="&#x201c;" horiz-adv-x="443" 
d="M220 710l-30 -270h-157l69 270h118zM430 710l-30 -270h-156l68 270h118z" />
    <glyph glyph-name="quotedblright" unicode="&#x201d;" horiz-adv-x="443" 
d="M26 440l30 270h156l-68 -270h-118zM236 440l30 270h157l-69 -270h-118z" />
    <glyph glyph-name="quotedblbase" unicode="&#x201e;" horiz-adv-x="455" 
d="M16 -80l30 270h156l-68 -270h-118zM226 -80l30 270h157l-69 -270h-118z" />
    <glyph glyph-name="dagger" unicode="&#x2020;" horiz-adv-x="375" 
d="M188 217l-43 71l5 123l-1 107h-18l-92 -5v85l92 -5h17l-3 94h86l-4 -94h18l91 6v-86l-91 5h-19v-107l5 -123z" />
    <glyph glyph-name="daggerdbl" unicode="&#x2021;" horiz-adv-x="375" 
d="M145 52l4 93h-18l-92 -6v85l91 -5h20v44l-5 104l5 105v46h-19l-92 -5v84l91 -5h19l-5 95h86l-5 -95h19l92 5v-83l-93 4h-17v-46l4 -105l-6 -104l2 -44h18l92 5v-84l-92 5h-19l5 -93h-85z" />
    <glyph glyph-name="bullet" unicode="&#x2022;" horiz-adv-x="413" 
d="M206 191q-52 0 -88.5 36.5t-36.5 88.5t36.5 88.5t88.5 36.5q53 0 89.5 -36.5t36.5 -88.5t-37 -88.5t-89 -36.5z" />
    <glyph glyph-name="ellipsis" unicode="&#x2026;" horiz-adv-x="1006" 
d="M161 -10q-39 0 -66 27t-27 65q0 37 27 64t66 27q37 0 64.5 -27t27.5 -64q0 -38 -27 -65t-65 -27zM495 -10q-39 0 -66 27t-27 65q0 37 27 64t66 27q37 0 64.5 -27t27.5 -64q0 -38 -27 -65t-65 -27zM829 -10q-39 0 -66 27t-27 65q0 37 27 64t66 27q37 0 64.5 -27t27.5 -64
q0 -38 -27 -65t-65 -27z" />
    <glyph glyph-name="perthousand" unicode="&#x2030;" horiz-adv-x="1467" 
d="M408 -27l-114 50l317 704l114 -50zM231 318q-85 0 -143.5 56.5t-58.5 145.5q0 84 56.5 142t145.5 58q86 0 145 -56t59 -144q0 -85 -57 -143.5t-147 -58.5zM233 426q37 0 60 26.5t23 65.5q0 41 -24 67t-59 26q-36 0 -59.5 -26.5t-23.5 -66.5q0 -41 24 -66.5t59 -25.5z
M785 -10q-86 0 -144.5 56.5t-58.5 144.5q0 84 56.5 142t146.5 58q85 0 144 -56t59 -144q0 -84 -56.5 -142.5t-146.5 -58.5zM1235 -10q-85 0 -144 56.5t-59 144.5q0 84 56.5 142t146.5 58q86 0 144.5 -56t58.5 -144q0 -84 -56.5 -142.5t-146.5 -58.5zM786 98q36 0 59.5 26.5
t23.5 65.5q0 41 -24 66.5t-59 25.5q-37 0 -60.5 -26.5t-23.5 -65.5q0 -40 24.5 -66t59.5 -26zM1236 98q37 0 60 26.5t23 65.5q0 41 -24 66.5t-59 25.5q-37 0 -60 -26.5t-23 -65.5q0 -41 24 -66.5t59 -25.5z" />
    <glyph glyph-name="guilsinglleft" unicode="&#x2039;" horiz-adv-x="300" 
d="M305 46h-148l-114 201l116 205h147l-118 -205z" />
    <glyph glyph-name="guilsinglright" unicode="&#x203a;" horiz-adv-x="299" 
d="M9 46l117 201l-118 205h147l116 -205l-114 -201h-148z" />
    <glyph glyph-name="fraction" unicode="&#x2044;" horiz-adv-x="235" 
d="M32 -27l-115 50l317 704l114 -50z" />
    <glyph glyph-name="uni2070" unicode="&#x2070;" horiz-adv-x="400" 
 />
    <glyph glyph-name="dong" unicode="&#x20ab;" horiz-adv-x="597" 
d="M603 640v-96h-56v-544h-148v53h-2q-50 -62 -140 -62q-101 0 -165.5 70t-64.5 183q0 111 64 183t159 72q86 0 139 -62h2v107h-87v96h87v96h156v-96h56zM290 128q46 0 76.5 32t30.5 84q0 50 -30 83t-77 33q-45 0 -75 -32.5t-30 -83.5t29.5 -83.5t75.5 -32.5zM68 -176v134
h478v-134h-478z" />
    <glyph glyph-name="Euro" unicode="&#x20ac;" horiz-adv-x="596" 
d="M490 171l90 -120q-86 -59 -190 -59q-114 0 -201.5 63t-115.5 178h-67v73h57q-1 8 -1 24q0 19 1 28h-57v73h69q28 108 110.5 174t204.5 66q101 0 186 -59l-95 -117q-41 27 -91 27q-43 0 -79.5 -24t-57.5 -67h195v-73h-216q-1 -9 -1 -28q0 -16 1 -24h216v-73h-196
q20 -43 56.5 -68t81.5 -25q55 0 100 31z" />
    <glyph glyph-name="uni20BA" unicode="&#x20ba;" horiz-adv-x="574" 
d="M432 287l125 -43q-35 -131 -102.5 -187.5t-172.5 -56.5h-203v185l-62 -29l-34 73l96 45v59l-62 -29l-34 73l95 45v288h169v-207l104 49l34 -73l-138 -66v-58l104 49l34 -73l-138 -66v-138h28q59 0 95 36.5t62 123.5z" />
    <glyph glyph-name="uni2113" unicode="&#x2113;" horiz-adv-x="455" 
d="M394 129l45 -30q-63 -109 -177 -109q-160 0 -182 141q-7 -5 -26 -20.5t-29 -23.5l-28 39q5 4 35.5 28t44.5 36l2 257q1 232 172 232q59 0 89 -41t30 -105q0 -145 -175 -312v-20q0 -142 92 -142q55 0 107 70zM267 605q-28 0 -50.5 -37t-22.5 -116l1 -164q125 135 125 235
q0 82 -53 82z" />
    <glyph glyph-name="uni2116" unicode="&#x2116;" horiz-adv-x="1112" 
d="M895 408q-72 0 -117.5 42.5t-45.5 111.5q0 68 45.5 110.5t117.5 42.5t117.5 -42.5t45.5 -110.5q0 -69 -45.5 -111.5t-117.5 -42.5zM505 273v437h167v-710h-172l-270 426h-1v-426h-167v710h167zM895 617q-22 0 -36.5 -15.5t-14.5 -39.5q0 -25 14.5 -40.5t36.5 -15.5t37 16
t15 40t-14.5 39.5t-37.5 15.5zM737 251v105h318v-105h-318z" />
    <glyph glyph-name="trademark" unicode="&#x2122;" horiz-adv-x="677" 
d="M94 387v241h-80v82h252v-82h-80v-241h-92zM306 387v323h94l77 -156l75 156h94v-323h-90v154l-51 -95h-58l-51 95v-154h-90z" />
    <glyph glyph-name="uni2126" unicode="&#x2126;" horiz-adv-x="741" 
d="M594 151v-2h102v-149h-283v149q117 106 117 237q0 79 -44.5 130t-115.5 50q-71 0 -115.5 -50.5t-44.5 -129.5q0 -132 118 -237v-149h-284v149h103v1q-111 100 -111 248q0 145 91.5 233.5t242.5 88.5t243 -88.5t92 -233.5q0 -146 -111 -247z" />
    <glyph glyph-name="estimated" unicode="&#x212e;" horiz-adv-x="784" 
d="M392 -10q-147 0 -249.5 94t-102.5 227q0 134 103 227.5t249 93.5q147 0 249.5 -94t102.5 -227v-9h-495v-233q61 -41 144 -41q132 0 210 84h64q-47 -56 -120 -89t-155 -33zM248 347h288l-1 206q-63 40 -143 40q-78 0 -144 -41v-205z" />
    <glyph glyph-name="partialdiff" unicode="&#x2202;" horiz-adv-x="582" 
d="M275 695q67 0 117 -28.5t77.5 -70t44.5 -98.5t22 -103.5t5 -96.5q0 -149 -71.5 -228.5t-180.5 -79.5q-104 0 -176 64.5t-72 166.5q0 105 62.5 164.5t147.5 59.5q75 0 129 -35q-21 150 -126 151q-17 0 -38.5 -4.5t-52.5 -13.5t-40 -11l-43 124q101 39 195 39zM292 137
q40 0 67.5 35.5t27.5 91.5v1q-42 50 -97 50q-41 0 -65.5 -23.5t-24.5 -64.5q0 -38 25.5 -64t66.5 -26z" />
    <glyph glyph-name="emptyset" unicode="&#x2205;" horiz-adv-x="724" 
d="M620 508q62 -84 62 -190q0 -132 -93.5 -227t-227.5 -95q-104 0 -190 63l-53 -53l-62 62l53 53q-67 88 -67 197q0 132 93 227t227 95q110 0 197 -68l48 48l62 -63zM165 316q0 -59 31 -107l275 275q-50 32 -109 32q-83 0 -140 -58.5t-57 -141.5zM361 119q83 0 140 58.5
t57 140.5q0 55 -27 101l-272 -272q47 -28 102 -28z" />
    <glyph glyph-name="uni2206" unicode="&#x2206;" horiz-adv-x="679" 
d="M422 710l230 -583v-127h-626v127l230 583h166zM213 149h251l-124 354z" />
    <glyph glyph-name="product" unicode="&#x220f;" horiz-adv-x="688" 
d="M66 -106v816h556v-816h-168v667h-220v-667h-168z" />
    <glyph glyph-name="summation" unicode="&#x2211;" horiz-adv-x="608" 
d="M569 710v-149h-310l181 -242l-181 -242h310v-149h-528v116l217 275l-217 271v120h528z" />
    <glyph glyph-name="minus" unicode="&#x2212;" horiz-adv-x="553" 
d="M38 210v134h478v-134h-478z" />
    <glyph glyph-name="radical" unicode="&#x221a;" horiz-adv-x="742" 
d="M695 822h109l-396 -822h-101l-167 500h-115v127h239l134 -420h2z" />
    <glyph glyph-name="infinity" unicode="&#x221e;" horiz-adv-x="754" 
d="M541 457q73 0 121.5 -51t48.5 -126q0 -80 -50 -128t-120 -48q-88 0 -165 90q-73 -90 -163 -90q-72 0 -121 50.5t-49 125.5q0 80 50 128.5t120 48.5q86 0 164 -90q77 90 164 90zM224 220q23 0 43 15t45 45q-16 20 -27 31t-27.5 20t-33.5 9q-25 0 -41 -15.5t-16 -44.5
t16 -44.5t41 -15.5zM532 220q23 0 38.5 15.5t15.5 44.5t-15.5 44.5t-38.5 15.5q-40 0 -90 -60q25 -29 45.5 -44.5t44.5 -15.5z" />
    <glyph glyph-name="integral" unicode="&#x222b;" horiz-adv-x="439" 
d="M53 -175q-45 -1 -85 8l18 118h9q46 0 59 19.5t24 89.5l74 491q11 74 57.5 113.5t109.5 41.5q22 0 41.5 -1.5t32 -4.5t22.5 -5.5t15 -4.5t6 -2l-18 -109q-17 1 -41 1q-46 0 -58.5 -18.5t-23.5 -90.5l-75 -492q-11 -73 -57.5 -112.5t-109.5 -41.5z" />
    <glyph glyph-name="uni2236" unicode="&#x2236;" horiz-adv-x="279" 
d="M134 373q-39 0 -66 27t-27 65q0 37 27 64t66 27q37 0 64.5 -27t27.5 -64q0 -38 -27 -65t-65 -27zM134 48q-39 0 -66 27t-27 65q0 37 27 64t66 27q37 0 64.5 -27t27.5 -64q0 -38 -27 -65t-65 -27z" />
    <glyph glyph-name="approxequal" unicode="&#x2248;" horiz-adv-x="580" 
d="M405 302q-33 0 -97 25t-104 25q-55 0 -117 -39l-42 101q16 19 58 43.5t85 24.5q40 0 104 -25t96 -25q56 0 103 42l44 -102q-20 -27 -55 -48.5t-75 -21.5zM405 79q-33 0 -97 25t-104 25q-55 0 -117 -39l-42 100q16 20 58 45t85 25q40 0 104 -25.5t96 -25.5q56 0 103 42
l44 -103q-20 -26 -55 -47.5t-75 -21.5z" />
    <glyph glyph-name="notequal" unicode="&#x2260;" horiz-adv-x="581" 
d="M530 325h-158l-44 -96h202v-134h-265l-46 -99l-97 37l29 62h-99v134h162l44 96h-206v134h269l52 111l96 -38l-34 -73h95v-134z" />
    <glyph glyph-name="lessequal" unicode="&#x2264;" horiz-adv-x="575" 
d="M533 174l-472 198v110l472 202v-147l-276 -109l276 -110v-144zM534 0h-475v134h475v-134z" />
    <glyph glyph-name="greaterequal" unicode="&#x2265;" horiz-adv-x="575" 
d="M55 174v144l276 110l-276 109v147l472 -202v-110zM54 0v134h475v-134h-475z" />
    <glyph glyph-name="uni2713" unicode="&#x2713;" horiz-adv-x="564" 
d="M207 115l-193 200l84 82l88 -91l304 496l100 -62z" />
    <glyph glyph-name="uni2715" unicode="&#x2715;" horiz-adv-x="349" 
d="M95 114l-85 85l79 79l-79 79l86 85l78 -79l79 80l86 -87l-79 -79l79 -79l-85 -83l-78 78z" />
    <glyph glyph-name="Q.alt" horiz-adv-x="804" 
d="M772 -36l-100 -123l-186 157q-42 -8 -84 -8q-162 0 -264 102.5t-102 262.5q0 161 102 263t264 102q160 0 262 -101t102 -264q0 -181 -125 -284zM211 355q0 -88 54 -148.5t137 -60.5t136.5 60t53.5 149q0 90 -53.5 149.5t-136.5 59.5t-137 -60t-54 -149z" />
    <glyph glyph-name="i.loclTRK" horiz-adv-x="270" 
d="M135 548q-41 0 -69.5 25.5t-28.5 65.5t28.5 65.5t69.5 25.5t69.5 -25.5t28.5 -65.5t-28.5 -65.5t-69.5 -25.5zM57 0v489h155v-489h-155z" />
    <glyph glyph-name="a.alt" horiz-adv-x="506" 
d="M257 499q99 0 152.5 -47.5t53.5 -161.5v-290h-144l-5 40h-2q-59 -49 -128 -49q-79 0 -120 42t-41 111q0 159 201 160h86q-1 38 -19.5 54.5t-55.5 16.5q-64 0 -134 -38l-46 115q91 47 202 47zM226 105q38 0 61 19t23 33v52h-69q-67 -2 -67 -54q0 -23 14 -36.5t38 -13.5z
" />
    <glyph glyph-name="aacute.alt" horiz-adv-x="506" 
d="M445 706l-124 -151h-147l112 150zM257 499q99 0 152.5 -47.5t53.5 -161.5v-290h-144l-5 40h-2q-59 -49 -128 -49q-79 0 -120 42t-41 111q0 159 201 160h86q-1 38 -19.5 54.5t-55.5 16.5q-64 0 -134 -38l-46 115q91 47 202 47zM226 105q38 0 61 19t23 33v52h-69
q-67 -2 -67 -54q0 -23 14 -36.5t38 -13.5z" />
    <glyph glyph-name="abreve.alt" horiz-adv-x="506" 
d="M259 549q-69 0 -118 42t-54 115h115q2 -24 17 -40t40 -16q24 0 40 15t17 41h115q-5 -68 -51 -112.5t-121 -44.5zM257 499q99 0 152.5 -47.5t53.5 -161.5v-290h-144l-5 40h-2q-59 -49 -128 -49q-79 0 -120 42t-41 111q0 159 201 160h86q-1 38 -19.5 54.5t-55.5 16.5
q-64 0 -134 -38l-46 115q91 47 202 47zM226 105q38 0 61 19t23 33v52h-69q-67 -2 -67 -54q0 -23 14 -36.5t38 -13.5z" />
    <glyph glyph-name="uni1EAF.alt" horiz-adv-x="506" 
d="M426 878l-124 -151h-147l112 150zM246 549q-69 0 -118 42t-54 115h115q2 -24 17 -40t40 -16q24 0 40 15t17 41h115q-5 -68 -51 -112.5t-121 -44.5zM257 499q99 0 152.5 -47.5t53.5 -161.5v-290h-144l-5 40h-2q-59 -49 -128 -49q-79 0 -120 42t-41 111q0 159 201 160h86
q-1 38 -19.5 54.5t-55.5 16.5q-64 0 -134 -38l-46 115q91 47 202 47zM226 105q38 0 61 19t23 33v52h-69q-67 -2 -67 -54q0 -23 14 -36.5t38 -13.5z" />
    <glyph glyph-name="uni1EB7.alt" horiz-adv-x="506" 
d="M258 549q-69 0 -118 42t-54 115h115q2 -24 17 -40t40 -16q24 0 40 15t17 41h115q-5 -68 -51 -112.5t-121 -44.5zM257 499q99 0 152.5 -47.5t53.5 -161.5v-290h-144l-5 40h-2q-59 -49 -128 -49q-79 0 -120 42t-41 111q0 159 201 160h86q-1 38 -19.5 54.5t-55.5 16.5
q-64 0 -134 -38l-46 115q91 47 202 47zM226 105q38 0 61 19t23 33v52h-69q-67 -2 -67 -54q0 -23 14 -36.5t38 -13.5zM258 -76q41 0 69.5 -25.5t28.5 -65.5t-28.5 -65.5t-69.5 -25.5t-69.5 25.5t-28.5 65.5t28.5 65.5t69.5 25.5z" />
    <glyph glyph-name="uni1EB1.alt" horiz-adv-x="506" 
d="M312 727h-146l-124 151l160 -1zM256 650q24 0 40 15t17 41h115q-5 -68 -51 -112.5t-121 -44.5q-69 0 -118 42t-54 115h115q2 -24 17 -40t40 -16zM257 499q99 0 152.5 -47.5t53.5 -161.5v-290h-144l-5 40h-2q-59 -49 -128 -49q-79 0 -120 42t-41 111q0 159 201 160h86
q-1 38 -19.5 54.5t-55.5 16.5q-64 0 -134 -38l-46 115q91 47 202 47zM226 105q38 0 61 19t23 33v52h-69q-67 -2 -67 -54q0 -23 14 -36.5t38 -13.5z" />
    <glyph glyph-name="uni1EB3.alt" horiz-adv-x="506" 
d="M251 837q-31 0 -62 -27l-46 45q51 47 122 47q51 0 79 -22.5t28 -58.5q0 -63 -92 -81l-6 -23l-58 -3q-18 16 -18 30q0 12 20 24.5t39.5 25.5t19.5 27q0 16 -26 16zM255 549q-69 0 -118 42t-54 115h115q2 -24 17 -40t40 -16q24 0 40 15t17 41h115q-5 -68 -51 -112.5
t-121 -44.5zM257 499q99 0 152.5 -47.5t53.5 -161.5v-290h-144l-5 40h-2q-59 -49 -128 -49q-79 0 -120 42t-41 111q0 159 201 160h86q-1 38 -19.5 54.5t-55.5 16.5q-64 0 -134 -38l-46 115q91 47 202 47zM226 105q38 0 61 19t23 33v52h-69q-67 -2 -67 -54q0 -23 14 -36.5
t38 -13.5z" />
    <glyph glyph-name="uni1EB5.alt" horiz-adv-x="506" 
d="M209 771q-22 0 -44 -47l-91 39q17 56 48 91t68 35q13 0 23 -1.5t19.5 -5t13.5 -5.5t14 -8t12 -7q30 -19 50 -19q34 0 55 46l90 -29q-17 -61 -49.5 -98.5t-76.5 -37.5q-41 0 -87 28q-5 3 -12 7t-11 6.5t-10 4t-12 1.5zM255 650q24 0 40 15t17 41h115q-5 -68 -51 -112.5
t-121 -44.5q-69 0 -118 42t-54 115h115q2 -24 17 -40t40 -16zM257 499q99 0 152.5 -47.5t53.5 -161.5v-290h-144l-5 40h-2q-59 -49 -128 -49q-79 0 -120 42t-41 111q0 159 201 160h86q-1 38 -19.5 54.5t-55.5 16.5q-64 0 -134 -38l-46 115q91 47 202 47zM226 105q38 0 61 19
t23 33v52h-69q-67 -2 -67 -54q0 -23 14 -36.5t38 -13.5z" />
    <glyph glyph-name="acircumflex.alt" horiz-adv-x="506" 
d="M257 623l-39 -69h-138l108 153h136l115 -153h-139l-41 69h-2zM257 499q99 0 152.5 -47.5t53.5 -161.5v-290h-144l-5 40h-2q-59 -49 -128 -49q-79 0 -120 42t-41 111q0 159 201 160h86q-1 38 -19.5 54.5t-55.5 16.5q-64 0 -134 -38l-46 115q91 47 202 47zM226 105
q38 0 61 19t23 33v52h-69q-67 -2 -67 -54q0 -23 14 -36.5t38 -13.5z" />
    <glyph glyph-name="uni1EA5.alt" horiz-adv-x="506" 
d="M493 802l147 1l-143 -151h-115zM255 623l-39 -69h-138l108 153h136l115 -153h-139l-41 69h-2zM257 499q99 0 152.5 -47.5t53.5 -161.5v-290h-144l-5 40h-2q-59 -49 -128 -49q-79 0 -120 42t-41 111q0 159 201 160h86q-1 38 -19.5 54.5t-55.5 16.5q-64 0 -134 -38l-46 115
q91 47 202 47zM226 105q38 0 61 19t23 33v52h-69q-67 -2 -67 -54q0 -23 14 -36.5t38 -13.5z" />
    <glyph glyph-name="uni1EAD.alt" horiz-adv-x="506" 
d="M255 623l-39 -69h-138l108 153h136l115 -153h-139l-41 69h-2zM257 499q99 0 152.5 -47.5t53.5 -161.5v-290h-144l-5 40h-2q-59 -49 -128 -49q-79 0 -120 42t-41 111q0 159 201 160h86q-1 38 -19.5 54.5t-55.5 16.5q-64 0 -134 -38l-46 115q91 47 202 47zM226 105
q38 0 61 19t23 33v52h-69q-67 -2 -67 -54q0 -23 14 -36.5t38 -13.5zM258 -76q41 0 69.5 -25.5t28.5 -65.5t-28.5 -65.5t-69.5 -25.5t-69.5 25.5t-28.5 65.5t28.5 65.5t69.5 25.5z" />
    <glyph glyph-name="uni1EA7.alt" horiz-adv-x="506" 
d="M536 653h-111l-117 151l143 -1zM257 623l-39 -69h-138l108 153h136l115 -153h-139l-41 69h-2zM257 499q99 0 152.5 -47.5t53.5 -161.5v-290h-144l-5 40h-2q-59 -49 -128 -49q-79 0 -120 42t-41 111q0 159 201 160h86q-1 38 -19.5 54.5t-55.5 16.5q-64 0 -134 -38l-46 115
q91 47 202 47zM226 105q38 0 61 19t23 33v52h-69q-67 -2 -67 -54q0 -23 14 -36.5t38 -13.5z" />
    <glyph glyph-name="uni1EA9.alt" horiz-adv-x="506" 
d="M461 813q47 0 74.5 -22.5t27.5 -58.5q0 -31 -23.5 -51.5t-63.5 -29.5l-6 -23l-58 -3q-18 18 -18 31q0 10 12 20t27 16.5t27 17.5t12 22q0 17 -25 17q-28 0 -63 -28l-45 45q47 47 122 47zM255 623l-39 -69h-138l108 153h136l115 -153h-139l-41 69h-2zM257 499
q99 0 152.5 -47.5t53.5 -161.5v-290h-144l-5 40h-2q-59 -49 -128 -49q-79 0 -120 42t-41 111q0 159 201 160h86q-1 38 -19.5 54.5t-55.5 16.5q-64 0 -134 -38l-46 115q91 47 202 47zM226 105q38 0 61 19t23 33v52h-69q-67 -2 -67 -54q0 -23 14 -36.5t38 -13.5z" />
    <glyph glyph-name="uni1EAB.alt" horiz-adv-x="506" 
d="M215 771q-22 0 -44 -47l-91 39q17 56 48 91t68 35q13 0 23 -1.5t19.5 -5t13.5 -5.5t14 -8t12 -7q30 -19 50 -19q34 0 55 46l90 -29q-17 -61 -49.5 -98.5t-76.5 -37.5q-41 0 -87 28q-5 3 -12 7t-11 6.5t-10 4t-12 1.5zM189 707h136l115 -153h-139l-41 69h-2l-39 -69h-138z
M257 499q99 0 152.5 -47.5t53.5 -161.5v-290h-144l-5 40h-2q-59 -49 -128 -49q-79 0 -120 42t-41 111q0 159 201 160h86q-1 38 -19.5 54.5t-55.5 16.5q-64 0 -134 -38l-46 115q91 47 202 47zM226 105q38 0 61 19t23 33v52h-69q-67 -2 -67 -54q0 -23 14 -36.5t38 -13.5z" />
    <glyph glyph-name="adieresis.alt" horiz-adv-x="506" 
d="M147 548q-41 0 -69.5 25.5t-28.5 65.5t28.5 65.5t69.5 25.5t69 -25.5t28 -65.5t-28 -65.5t-69 -25.5zM370 548q-41 0 -69.5 25.5t-28.5 65.5t28.5 65.5t69.5 25.5t69.5 -25.5t28.5 -65.5t-28.5 -65.5t-69.5 -25.5zM257 499q99 0 152.5 -47.5t53.5 -161.5v-290h-144l-5 40
h-2q-59 -49 -128 -49q-79 0 -120 42t-41 111q0 159 201 160h86q-1 38 -19.5 54.5t-55.5 16.5q-64 0 -134 -38l-46 115q91 47 202 47zM226 105q38 0 61 19t23 33v52h-69q-67 -2 -67 -54q0 -23 14 -36.5t38 -13.5z" />
    <glyph glyph-name="uni1EA1.alt" horiz-adv-x="506" 
d="M257 499q99 0 152.5 -47.5t53.5 -161.5v-290h-144l-5 40h-2q-59 -49 -128 -49q-79 0 -120 42t-41 111q0 159 201 160h86q-1 38 -19.5 54.5t-55.5 16.5q-64 0 -134 -38l-46 115q91 47 202 47zM226 105q38 0 61 19t23 33v52h-69q-67 -2 -67 -54q0 -23 14 -36.5t38 -13.5z
M258 -76q41 0 69.5 -25.5t28.5 -65.5t-28.5 -65.5t-69.5 -25.5t-69.5 25.5t-28.5 65.5t28.5 65.5t69.5 25.5z" />
    <glyph glyph-name="agrave.alt" horiz-adv-x="506" 
d="M367 555h-146l-124 151l160 -1zM257 499q99 0 152.5 -47.5t53.5 -161.5v-290h-144l-5 40h-2q-59 -49 -128 -49q-79 0 -120 42t-41 111q0 159 201 160h86q-1 38 -19.5 54.5t-55.5 16.5q-64 0 -134 -38l-46 115q91 47 202 47zM226 105q38 0 61 19t23 33v52h-69
q-67 -2 -67 -54q0 -23 14 -36.5t38 -13.5z" />
    <glyph glyph-name="uni1EA3.alt" horiz-adv-x="506" 
d="M254 660q-30 0 -62 -27l-46 45q51 47 122 47q51 0 79 -22.5t28 -58.5q0 -63 -92 -81l-6 -23l-58 -3q-18 16 -18 30q0 15 39.5 37t39.5 40q0 16 -26 16zM257 499q99 0 152.5 -47.5t53.5 -161.5v-290h-144l-5 40h-2q-59 -49 -128 -49q-79 0 -120 42t-41 111q0 159 201 160
h86q-1 38 -19.5 54.5t-55.5 16.5q-64 0 -134 -38l-46 115q91 47 202 47zM226 105q38 0 61 19t23 33v52h-69q-67 -2 -67 -54q0 -23 14 -36.5t38 -13.5z" />
    <glyph glyph-name="amacron.alt" horiz-adv-x="506" 
d="M416 699v-121h-313v121h313zM257 499q99 0 152.5 -47.5t53.5 -161.5v-290h-144l-5 40h-2q-59 -49 -128 -49q-79 0 -120 42t-41 111q0 159 201 160h86q-1 38 -19.5 54.5t-55.5 16.5q-64 0 -134 -38l-46 115q91 47 202 47zM226 105q38 0 61 19t23 33v52h-69q-67 -2 -67 -54
q0 -23 14 -36.5t38 -13.5z" />
    <glyph glyph-name="aogonek.alt" horiz-adv-x="506" 
d="M257 499q99 0 152.5 -47.5t53.5 -161.5v-290h-3q-40 -1 -65.5 -22t-25.5 -45q0 -38 37 -38q21 0 36 5l7 -80q-29 -11 -76 -11q-55 0 -87.5 26.5t-32.5 67.5q0 26 17 54t48 47l-4 36h-2q-59 -49 -128 -49q-79 0 -120 42t-41 111q0 159 201 160h86q-1 38 -19.5 54.5
t-55.5 16.5q-64 0 -134 -38l-46 115q91 47 202 47zM226 105q38 0 61 19t23 33v52h-69q-67 -2 -67 -54q0 -23 14 -36.5t38 -13.5z" />
    <glyph glyph-name="aring.alt" horiz-adv-x="506" 
d="M259 531q-47 0 -80 31.5t-33 78.5q0 46 31.5 77.5t81.5 31.5q47 0 80 -31t33 -78q0 -46 -31.5 -78t-81.5 -32zM258 677q-14 0 -24 -10.5t-10 -24.5q0 -15 10 -25t24 -10q16 0 26 10.5t10 25.5q0 14 -10.5 24t-25.5 10zM257 499q99 0 152.5 -47.5t53.5 -161.5v-290h-144
l-5 40h-2q-59 -49 -128 -49q-79 0 -120 42t-41 111q0 159 201 160h86q-1 38 -19.5 54.5t-55.5 16.5q-64 0 -134 -38l-46 115q91 47 202 47zM226 105q38 0 61 19t23 33v52h-69q-67 -2 -67 -54q0 -23 14 -36.5t38 -13.5z" />
    <glyph glyph-name="aringacute.alt" horiz-adv-x="505" 
d="M259 531q-47 0 -80 31.5t-33 78.5q0 46 31.5 77.5t81.5 31.5q41 0 70 -23l59 46l161 1l-177 -143q-4 -43 -35 -71.5t-78 -28.5zM258 677q-14 0 -24 -10.5t-10 -24.5q0 -15 10 -25t24 -10q16 0 26 10.5t10 25.5q0 14 -10.5 24t-25.5 10zM257 499q99 0 152.5 -47.5
t53.5 -161.5v-290h-144l-5 40h-2q-59 -49 -128 -49q-79 0 -120 42t-41 111q0 159 201 160h86q-1 38 -19.5 54.5t-55.5 16.5q-64 0 -134 -38l-46 115q91 47 202 47zM226 105q38 0 61 19t23 33v52h-69q-67 -2 -67 -54q0 -23 14 -36.5t38 -13.5z" />
    <glyph glyph-name="atilde.alt" horiz-adv-x="506" 
d="M204 594q-33 0 -55 -47l-91 39q18 57 50.5 91.5t77.5 34.5q41 0 88 -27q32 -19 50 -19q33 0 56 46l90 -29q-17 -61 -49.5 -98.5t-76.5 -37.5q-42 0 -88 28q-34 19 -52 19zM257 499q99 0 152.5 -47.5t53.5 -161.5v-290h-144l-5 40h-2q-59 -49 -128 -49q-79 0 -120 42
t-41 111q0 159 201 160h86q-1 38 -19.5 54.5t-55.5 16.5q-64 0 -134 -38l-46 115q91 47 202 47zM226 105q38 0 61 19t23 33v52h-69q-67 -2 -67 -54q0 -23 14 -36.5t38 -13.5z" />
    <glyph glyph-name="g.alt" horiz-adv-x="521" 
d="M300 98q41 0 76 -6.5t68 -21.5t52 -45t19 -73q0 -77 -63.5 -125t-203.5 -48q-118 0 -179.5 39t-61.5 105q0 69 56 110v4q-34 26 -34 69q0 47 55 102q-45 48 -45 113q0 79 59 128.5t155 49.5q52 0 98 -16h1l82 86l87 -87l-77 -71l-1 -1q25 -41 25 -89q0 -78 -60.5 -127.5
t-163.5 -49.5q-41 0 -77 12q-17 -17 -17 -33q0 -13 13.5 -19t52.5 -6h84zM252 389q-25 0 -43.5 -19t-18.5 -48q0 -28 18 -47t44 -19q25 0 43 18.5t18 47.5q0 30 -17.5 48.5t-43.5 18.5zM250 -99q51 -1 79 11t28 32q0 21 -19 28t-59 7q-74 0 -122 7q-17 -17 -17 -36
q0 -49 110 -49z" />
    <glyph glyph-name="gbreve.alt" horiz-adv-x="521" 
d="M254 547q-69 0 -118 42t-54 115h115q2 -24 17 -40t40 -16q24 0 40 15t17 41h115q-5 -68 -51 -112.5t-121 -44.5zM300 98q41 0 76 -6.5t68 -21.5t52 -45t19 -73q0 -77 -63.5 -125t-203.5 -48q-118 0 -179.5 39t-61.5 105q0 69 56 110v4q-34 26 -34 69q0 47 55 102
q-45 48 -45 113q0 79 59 128.5t155 49.5q52 0 98 -16h1l82 86l87 -87l-77 -71l-1 -1q25 -41 25 -89q0 -78 -60.5 -127.5t-163.5 -49.5q-41 0 -77 12q-17 -17 -17 -33q0 -13 13.5 -19t52.5 -6h84zM252 389q-25 0 -43.5 -19t-18.5 -48q0 -28 18 -47t44 -19q25 0 43 18.5
t18 47.5q0 30 -17.5 48.5t-43.5 18.5zM250 -99q51 -1 79 11t28 32q0 21 -19 28t-59 7q-74 0 -122 7q-17 -17 -17 -36q0 -49 110 -49z" />
    <glyph glyph-name="gcaron.alt" horiz-adv-x="521" 
d="M321 552h-136l-112 153h139l38 -68h4l40 68h138zM300 98q41 0 76 -6.5t68 -21.5t52 -45t19 -73q0 -77 -63.5 -125t-203.5 -48q-118 0 -179.5 39t-61.5 105q0 69 56 110v4q-34 26 -34 69q0 47 55 102q-45 48 -45 113q0 79 59 128.5t155 49.5q52 0 98 -16h1l82 86l87 -87
l-77 -71l-1 -1q25 -41 25 -89q0 -78 -60.5 -127.5t-163.5 -49.5q-41 0 -77 12q-17 -17 -17 -33q0 -13 13.5 -19t52.5 -6h84zM252 389q-25 0 -43.5 -19t-18.5 -48q0 -28 18 -47t44 -19q25 0 43 18.5t18 47.5q0 30 -17.5 48.5t-43.5 18.5zM250 -99q51 -1 79 11t28 32
q0 21 -19 28t-59 7q-74 0 -122 7q-17 -17 -17 -36q0 -49 110 -49z" />
    <glyph glyph-name="gcircumflex.alt" horiz-adv-x="521" 
d="M300 98q41 0 76 -6.5t68 -21.5t52 -45t19 -73q0 -77 -63.5 -125t-203.5 -48q-118 0 -179.5 39t-61.5 105q0 69 56 110v4q-34 26 -34 69q0 47 55 102q-45 48 -45 113q0 79 59 128.5t155 49.5q52 0 98 -16h1l67 70h-135l-41 71l-41 -71h-138l108 153h137l112 -151l13 14
l87 -87l-77 -71l-1 -1q25 -41 25 -89q0 -78 -60.5 -127.5t-163.5 -49.5q-41 0 -77 12q-17 -17 -17 -33q0 -13 13.5 -19t52.5 -6h84zM252 389q-25 0 -43.5 -19t-18.5 -48q0 -28 18 -47t44 -19q25 0 43 18.5t18 47.5q0 30 -17.5 48.5t-43.5 18.5zM250 -99q51 -1 79 11t28 32
q0 21 -19 28t-59 7q-74 0 -122 7q-17 -17 -17 -36q0 -49 110 -49z" />
    <glyph glyph-name="gcommaaccent.alt" horiz-adv-x="521" 
d="M320 564h-127q-5 16 -5 42q0 60 39 92t112 34l29 -85q-29 -6 -41.5 -16.5t-12.5 -30.5q0 -14 6 -36zM300 98q41 0 76 -6.5t68 -21.5t52 -45t19 -73q0 -77 -63.5 -125t-203.5 -48q-118 0 -179.5 39t-61.5 105q0 69 56 110v4q-34 26 -34 69q0 47 55 102q-45 48 -45 113
q0 79 59 128.5t155 49.5q52 0 98 -16h1l82 86l87 -87l-77 -71l-1 -1q25 -41 25 -89q0 -78 -60.5 -127.5t-163.5 -49.5q-41 0 -77 12q-17 -17 -17 -33q0 -13 13.5 -19t52.5 -6h84zM252 389q-25 0 -43.5 -19t-18.5 -48q0 -28 18 -47t44 -19q25 0 43 18.5t18 47.5
q0 30 -17.5 48.5t-43.5 18.5zM250 -99q51 -1 79 11t28 32q0 21 -19 28t-59 7q-74 0 -122 7q-17 -17 -17 -36q0 -49 110 -49z" />
    <glyph glyph-name="gdotaccent.alt" horiz-adv-x="521" 
d="M254 546q-41 0 -69.5 25.5t-28.5 65.5t28.5 65.5t69.5 25.5t69.5 -25.5t28.5 -65.5t-28.5 -65.5t-69.5 -25.5zM300 98q41 0 76 -6.5t68 -21.5t52 -45t19 -73q0 -77 -63.5 -125t-203.5 -48q-118 0 -179.5 39t-61.5 105q0 69 56 110v4q-34 26 -34 69q0 47 55 102
q-45 48 -45 113q0 79 59 128.5t155 49.5q52 0 98 -16h1l82 86l87 -87l-77 -71l-1 -1q25 -41 25 -89q0 -78 -60.5 -127.5t-163.5 -49.5q-41 0 -77 12q-17 -17 -17 -33q0 -13 13.5 -19t52.5 -6h84zM252 389q-25 0 -43.5 -19t-18.5 -48q0 -28 18 -47t44 -19q25 0 43 18.5
t18 47.5q0 30 -17.5 48.5t-43.5 18.5zM250 -99q51 -1 79 11t28 32q0 21 -19 28t-59 7q-74 0 -122 7q-17 -17 -17 -36q0 -49 110 -49z" />
    <glyph glyph-name="f.calt" horiz-adv-x="342" 
d="M69 0v362h-48v127h48v76q0 89 43 135t118 46q40 0 84 -14l-20 -123q-16 4 -23 4q-46 0 -46 -53v-71h93v-127h-93v-362h-156z" />
    <glyph glyph-name="j.calt" horiz-adv-x="257" 
d="M128 552q-41 0 -69.5 25.5t-28.5 65.5t28.5 65.5t69.5 25.5t69.5 -25.5t28.5 -65.5t-28.5 -65.5t-69.5 -25.5zM-7 -73q5 -1 26 -1q15 0 22.5 8.5t8.5 19t1 35.5v500h156v-513q0 -92 -36 -137.5t-113 -45.5q-45 0 -78 7z" />
    <glyph glyph-name="uni0237.calt" horiz-adv-x="257" 
d="M-7 -73q5 -1 26 -1q15 0 22.5 8.5t8.5 19t1 35.5v500h156v-513q0 -92 -36 -137.5t-113 -45.5q-45 0 -78 7z" />
    <glyph glyph-name="jcircumflex.calt" horiz-adv-x="257" 
d="M126 627l-39 -69h-138l108 153h136l115 -153h-139l-41 69h-2zM51 -11v500h156v-513q0 -92 -36 -137.5t-113 -45.5q-45 0 -78 7l13 127q5 -1 26 -1q15 0 22.5 8.5t8.5 19t1 35.5z" />
    <glyph glyph-name="germandbls.calt" horiz-adv-x="773" 
d="M550 428q55 -21 83 -34t60.5 -37.5t46 -58t13.5 -80.5q0 -59 -23.5 -105t-60.5 -71.5t-77.5 -38t-81.5 -12.5q-122 0 -225 85l76 138q37 -37 78.5 -56t72.5 -19q32 0 49 17.5t17 42.5q0 29 -22 46t-83 38q-77 26 -130 62l116 214v2q-67 8 -115 8q-62 0 -94 -26.5
t-32 -102.5v-439h-168l1 460q0 139 73.5 199t209.5 60q161 0 346 -48l-130 -241v-3z" />
    <glyph glyph-name="gamma.alt" horiz-adv-x="557" 
d="M537 489q-26 -241 -196 -493q17 -81 24 -194h-146q-21 171 -61 327q-34 133 -56 183t-60 50q-11 0 -26 -3l-20 124q50 16 91 16q59 0 90 -30t57 -101q34 -93 56 -198h1q80 184 86 319h160z" />
    <glyph glyph-name="eta.alt" horiz-adv-x="609" 
d="M387 499q176 0 176 -212v-485h-156v447q0 59 -19 84.5t-59 25.5q-37 0 -59.5 -29.5t-22.5 -84.5v-245h-157v320q0 45 -33 45q-8 0 -25 -5l-18 118q49 21 93 21q101 0 122 -89h2q28 43 69 66t87 23z" />
    <glyph glyph-name="uni03BC.alt" horiz-adv-x="600" 
d="M580 132l18 -119q-42 -22 -92 -22q-95 0 -120 76h-1q-45 -76 -123 -76q-42 0 -69 24l-3 -4q16 -61 16 -126v-83h-156v687h156v-247q0 -59 19 -86t59 -27q37 0 59 29.5t22 85.5v245h156v-321q0 -43 30 -43q10 0 29 7z" />
    <glyph glyph-name="nu.alt" horiz-adv-x="550" 
d="M357 489h167q-4 -260 -194 -489h-141l-182 489h163l101 -326h2q85 141 84 326z" />
    <glyph glyph-name="xi.alt" horiz-adv-x="492" 
d="M337 121q82 -27 113.5 -64.5t31.5 -95.5q0 -97 -86 -181l-130 63q57 63 57 97q0 22 -19 37.5t-66 30.5q-40 13 -62 21.5t-55 27t-50 38t-30.5 51t-13.5 71.5q0 112 120 160v3q-68 40 -68 107q0 78 85 120v2l-105 -4v131h404v-119q-119 -7 -174.5 -29t-55.5 -71
q0 -79 160 -79h43v-128h-136q-56 0 -85 -23.5t-29 -56.5q0 -39 32 -60t119 -49z" />
    <glyph glyph-name="pi.alt" horiz-adv-x="630" 
d="M592 131l18 -120q-55 -20 -108 -20q-134 0 -134 154v213h-122v-358h-155v358h-82v122l84 9h516v-131h-88v-190q0 -25 8.5 -33t25.5 -8q18 0 37 4z" />
    <glyph glyph-name="upsilon.alt" horiz-adv-x="550" 
d="M270 -9q-108 0 -169.5 61.5t-61.5 185.5v251h156v-240q0 -59 19.5 -90t54.5 -30q40 2 65 45t25 122q0 78 -26 185l150 19q37 -100 37 -203q0 -158 -70 -232t-180 -74z" />
    <glyph glyph-name="psi.alt" horiz-adv-x="724" 
d="M694 299q0 -154 -70.5 -230t-185.5 -78v-189h-153v188q-112 2 -179.5 64.5t-67.5 183.5v251h150v-240q0 -61 26 -92.5t72 -33.5v513l150 10v-523q102 10 102 180q0 77 -25 178l143 19q38 -90 38 -201z" />
    <glyph glyph-name="upsilontonos.alt" horiz-adv-x="550" 
d="M202 557l53 177h171l-85 -177h-139zM270 -9q-108 0 -169.5 61.5t-61.5 185.5v251h156v-240q0 -59 19.5 -90t54.5 -30q40 2 65 45t25 122q0 78 -26 185l150 19q37 -100 37 -203q0 -158 -70 -232t-180 -74z" />
    <glyph glyph-name="upsilondieresis.alt" horiz-adv-x="550" 
d="M150 549q-41 0 -69.5 25.5t-28.5 65.5t28.5 65.5t69.5 25.5t69.5 -25.5t28.5 -65.5t-28.5 -65.5t-69.5 -25.5zM390 549q-41 0 -69.5 25.5t-28.5 65.5t28.5 65.5t69.5 25.5t69 -25.5t28 -65.5t-28 -65.5t-69 -25.5zM270 -9q-108 0 -169.5 61.5t-61.5 185.5v251h156v-240
q0 -59 19.5 -90t54.5 -30q40 2 65 45t25 122q0 78 -26 185l150 19q37 -100 37 -203q0 -158 -70 -232t-180 -74z" />
    <glyph glyph-name="upsilondieresistonos.alt" horiz-adv-x="550" 
d="M208 556l9 177h127l-32 -177h-104zM448 548q-41 0 -69.5 26t-28.5 66q0 39 28.5 65t69.5 26t69.5 -26t28.5 -65q0 -40 -28.5 -66t-69.5 -26zM92 548q-41 0 -69 25.5t-28 65.5t28 65.5t69 25.5q42 0 70 -25.5t28 -65.5t-28 -65.5t-70 -25.5zM270 -9q-108 0 -169.5 61.5
t-61.5 185.5v251h156v-240q0 -59 19.5 -90t54.5 -30q40 2 65 45t25 122q0 78 -26 185l150 19q37 -100 37 -203q0 -158 -70 -232t-180 -74z" />
    <glyph glyph-name="etatonos.alt" horiz-adv-x="609" 
d="M483 734l-85 -177h-139l53 177h171zM387 499q176 0 176 -212v-485h-156v447q0 59 -19 84.5t-59 25.5q-37 0 -59.5 -29.5t-22.5 -84.5v-245h-157v320q0 45 -33 45q-8 0 -25 -5l-18 118q49 21 93 21q101 0 122 -89h2q28 43 69 66t87 23z" />
    <glyph glyph-name="bullet.case" horiz-adv-x="413" 
d="M206 215q-52 0 -88.5 36.5t-36.5 88.5t36.5 88.5t88.5 36.5q53 0 89.5 -36.5t36.5 -88.5t-37 -88.5t-89 -36.5z" />
    <glyph glyph-name="exclamdown.case" horiz-adv-x="290" 
d="M146 543q38 0 65 -27t27 -65q0 -37 -27.5 -64t-64.5 -27q-39 0 -66 27t-27 64q0 38 27 65t66 27zM91 288h114l27 -491h-168z" />
    <glyph glyph-name="questiondown.case" horiz-adv-x="459" 
d="M277 543q39 0 66 -27t27 -65q0 -37 -27 -64t-66 -27q-37 0 -64.5 27t-27.5 64q0 38 27 65t65 27zM347 290l1 -48q0 -9 -1.5 -18.5t-2.5 -16.5t-6 -16.5t-7 -14.5t-9.5 -14.5t-9.5 -13t-11.5 -13.5t-11 -12t-12.5 -13l-12 -12q-20 -21 -30 -33t-20 -32t-10 -38
q0 -29 17 -45.5t47 -16.5q51 0 90 47l110 -101q-35 -42 -92 -67t-120 -25q-93 0 -156.5 50.5t-63.5 148.5q0 87 89 170q6 5 22 19.5t22 20.5t16 17t14 20t5 18l4 39h138z" />
    <glyph glyph-name="braceleft.case" horiz-adv-x="341" 
d="M247 450q0 -85 -52 -110v-2q29 -12 40.5 -32t11.5 -79v-161q0 -35 10.5 -51t43.5 -16h21v-101h-83q-51 0 -86.5 37.5t-35.5 96.5v171q0 21 -1.5 31.5t-9 23t-26 18.5t-48.5 6v114q30 0 48.5 7t25.5 20.5t9 23.5t2 27v173q0 57 34 95.5t88 38.5h83v-101h-21
q-31 0 -42.5 -20t-11.5 -43v-167z" />
    <glyph glyph-name="braceright.case" horiz-adv-x="341" 
d="M237 475q0 -17 2 -27t9 -23.5t25.5 -20.5t48.5 -7v-114q-30 0 -48.5 -6t-26 -18.5t-9 -23t-1.5 -31.5v-171q0 -59 -35.5 -96.5t-86.5 -37.5h-83v101h21q33 0 43.5 16t10.5 51v161q0 59 11.5 79t40.5 32v2q-52 25 -52 110v167q0 13 -3 25.5t-16 25t-35 12.5h-21v101h83
q54 0 88 -38.5t34 -95.5v-173z" />
    <glyph glyph-name="bracketleft.case" horiz-adv-x="340" 
d="M56 -106v885h259v-114h-126v-656h126v-115h-259z" />
    <glyph glyph-name="bracketright.case" horiz-adv-x="371" 
d="M327 -105h-259v115h126v656h-126v114h259v-885z" />
    <glyph glyph-name="parenleft.case" horiz-adv-x="299" 
d="M167 -117q-125 187 -125 456q0 273 126 457l113 -51q-99 -181 -99 -406q0 -221 99 -405z" />
    <glyph glyph-name="parenright.case" horiz-adv-x="291" 
d="M147 -117l-114 51q99 184 99 405q0 225 -99 406l113 51q126 -184 126 -457q0 -269 -125 -456z" />
    <glyph glyph-name="emdash.case" horiz-adv-x="998" 
d="M32 258v132h934v-132h-934z" />
    <glyph glyph-name="endash.case" horiz-adv-x="531" 
d="M32 258v132h467v-132h-467z" />
    <glyph glyph-name="uni2015.case" horiz-adv-x="1177" 
d="M38 259v132h1101v-132h-1101z" />
    <glyph glyph-name="hyphen.case" horiz-adv-x="358" 
d="M32 259v138h294v-138h-294z" />
    <glyph glyph-name="guillemotleft.case" horiz-adv-x="519" 
d="M301 91h-147l-114 201l116 205h146l-118 -205zM523 91h-147l-115 201l117 205h146l-118 -205z" />
    <glyph glyph-name="guillemotright.case" horiz-adv-x="519" 
d="M9 90l117 201l-118 205h146l117 -205l-115 -201h-147zM231 90l117 201l-118 205h146l116 -205l-114 -201h-147z" />
    <glyph glyph-name="CR" horiz-adv-x="236" 
 />
    <glyph glyph-name="plus.case" horiz-adv-x="566" 
d="M215 90v170h-171v134h171v172h135v-172h171v-134h-171v-170h-135z" />
    <glyph glyph-name="at.case" horiz-adv-x="883" 
d="M666 540l-28 -267q-1 -9 -1 -22q0 -40 30 -40q40 0 64 52.5t24 100.5q0 118 -75 198.5t-204 80.5q-72 0 -131.5 -21t-97.5 -55t-64.5 -78t-38 -88t-11.5 -87q0 -126 82 -212.5t196 -86.5q101 0 201 56l45 -72q-113 -77 -246 -77q-162 0 -269 111t-107 281q0 53 14 108.5
t48 112.5t83 101t126 72t170 28q172 0 274 -105.5t102 -265.5q0 -31 -5.5 -62.5t-21.5 -66.5t-41 -62t-67.5 -44.5t-97.5 -17.5q-56 0 -92 23q-22 16 -30 43h-3q-19 -25 -50.5 -40.5t-62.5 -15.5q-74 0 -118 52t-44 137q0 34 10 72.5t30 77t57.5 63.5t85.5 25q68 0 106 -54
h1l6 45h151zM426 252q32 0 56.5 27t24.5 68q0 32 -17 52t-42 20q-31 0 -56 -27.5t-25 -68.5q0 -32 17 -51.5t42 -19.5z" />
    <glyph glyph-name="NULL" horiz-adv-x="0" 
 />
    <glyph glyph-name="KB" horiz-adv-x="911" 
d="M466 -1q-94 0 -160 36.5t-94 94.5l22 9q69 -94 200 -94q53 0 87.5 25t34.5 76q0 43 -43.5 86t-117.5 71q-19 -70 -20 -74q39 -7 72 -17l-6 -36h-247l-1 34q50 34 98 50l73 382l-65 19l-3 30q49 29 118 29l69 -35l-62 -194l-67 -189l11 -2q35 132 90 188t131 56
q56 0 89 -24t33 -74q0 -60 -49 -98t-147 -38q-37 0 -68 4l-1 -9q51 -6 86.5 -13.5t79.5 -24t67.5 -45.5t23.5 -69q0 -67 -61.5 -110.5t-172.5 -43.5zM404 330q90 3 131 40.5t41 83.5q0 21 -10.5 35.5t-29.5 14.5q-26 0 -63.5 -42.5t-68.5 -131.5zM42 -146l-12 39h7l8 -28
l8 28h7l8 -28l8 28h7l-12 -39h-7l-7 29l-8 -29h-7zM99 -146l-13 39h8l8 -28l7 28h8l7 -28l8 28h8l-13 -39h-6l-8 29l-8 -29h-6zM155 -146l-12 39h7l8 -28l8 28h7l8 -28l8 28h7l-12 -39h-7l-8 29l-8 -29h-6zM212 -146v39h6v-19l15 19h9l-15 -18l15 -21h-8l-11 16l-5 -5v-11
h-6zM263 -146q-19 0 -19 20q0 19 19 19q8 0 14 -5.5t6 -13.5q0 -20 -20 -20zM302 -146q-9 0 -14 6l4 5q4 -5 10 -5q7 0 7 4t-8 7q-11 4 -11 11q0 11 12 11q8 0 12 -5l-3 -5q-4 4 -9 4q-6 0 -6 -4q0 -3 7 -6q12 -3 12 -12q0 -11 -13 -11zM330 -146v33h-11v6h29v-6h-12v-33h-6
zM347 -146l14 39h7l14 -39h-7l-2 8h-17l-2 -8h-7zM399 -146q-8 0 -14 6l5 5q4 -5 9 -5q7 0 7 4t-8 7q-11 4 -11 11q0 11 12 11q8 0 13 -5l-4 -5q-4 4 -9 4t-5 -4q0 -3 7 -6q12 -4 12 -12q0 -11 -14 -11zM420 -146v39h14q12 0 12 -10q0 -7 -6 -8q8 -2 8 -10q0 -11 -12 -11
h-16zM452 -146l14 39h6l15 -39h-7l-3 8h-16l-3 -8h-6zM493 -146v39h14q14 0 14 -13q0 -9 -9 -11l10 -15h-8l-9 14h-5v-14h-7zM536 -146v33h-12v6h29v-6h-11v-33h-6zM571 -146q-9 0 -14 6l5 5q2 -5 9 -5t7 4t-8 7q-11 4 -11 11q0 11 12 11q8 0 12 -5l-3 -5q-4 4 -9 4
q-6 0 -6 -4q0 -3 8 -6q11 -4 11 -12q0 -11 -13 -11zM610 -146q-20 0 -20 20q0 19 20 19q19 0 19 -19q0 -20 -19 -20zM637 -146v39h7v-19l15 19h8l-15 -18l15 -21h-8l-11 16l-4 -5v-11h-7zM670 -146l14 39h6l15 -39h-7l-3 8h-15l-3 -8h-7zM722 -146q-9 0 -14 6l4 5
q4 -5 11 -5q6 0 6 4t-8 7q-12 4 -12 11q0 11 13 11q8 0 13 -5l-4 -5q-4 4 -9 4t-6 -4q0 -3 8 -6q12 -4 12 -12q0 -11 -14 -11zM772 -146q-19 0 -19 19q0 20 19 20q9 0 16 -7l-5 -4q-5 5 -11 5q-12 0 -12 -14q0 -13 12 -13q6 0 11 5l5 -4q-7 -7 -16 -7zM812 -146
q-20 0 -20 20q0 19 20 19q8 0 14 -5.5t6 -13.5q0 -20 -20 -20zM839 -146v39h7l12 -23l14 23h6v-39h-6v26l-11 -19h-5l-10 19v-26h-7zM263 -140q13 0 13 14q0 13 -13 13t-13 -13q0 -14 13 -14zM427 -124h6q6 0 6 6q0 5 -7 5h-5v-11zM500 -126h6q8 0 8 6q0 7 -8 7h-6v-13z
M610 -140q13 0 13 14q0 13 -13 13t-13 -13q0 -14 13 -14zM812 -140q13 0 13 14q0 13 -13 13t-13 -13q0 -14 13 -14zM358 -132h12l-6 17zM463 -132h12l-6 17zM682 -132h11l-5 17zM427 -140h7q7 0 7 5q0 6 -7 6h-7v-11zM200 -146q-4 0 -4 3q0 5 4 5t4 -5q0 -3 -4 -3zM745 -146
q-4 0 -4 3q0 5 4 5t4 -5q0 -3 -4 -3z" />
    <glyph glyph-name="jacute" horiz-adv-x="257" 
d="M56 559l112 150l159 1l-124 -151h-147zM53 -207q-60 0 -112 18l26 124q20 -9 42 -9q42 0 42 63v500h156v-513q0 -90 -40 -136.5t-114 -46.5z" />
    <glyph glyph-name="Jacute" horiz-adv-x="493" 
d="M280 779l112 150l159 1l-124 -151h-147zM209 -10q-57 0 -110.5 24t-88.5 70l96 118q40 -53 91 -53q72 0 72 104v457h168v-453q0 -267 -228 -267z" />
    </font>
</defs>
</svg>
